<svg xmlns="http://www.w3.org/2000/svg" viewBox="0 0 300 300"><path d="M52.94,112a27.141,27.141,0,0,0,.28-5.07c0-.09-.01-.17-.01-.26a13.926,13.926,0,0,1,3.7,1.5c.26.16.51.32.74.49Z" fill="#a18aba"/><path d="M45.96,113.54a1.624,1.624,0,0,1-1.38-2.22,13.928,13.928,0,0,1,.04-1.63,3.356,3.356,0,0,1,1.47,1.66A8.494,8.494,0,0,1,45.96,113.54Z" fill="#a18aba"/><path d="M47.24,109.44a1.88,1.88,0,0,0-.28-.34c-.56-.53-1.34-.56-1.99-.93.29-.67.82-.98,1.75-.29a.931.931,0,0,1,.26.36A3.754,3.754,0,0,1,47.24,109.44Z" fill="#a18aba"/><path d="M50.17,106.13c-.03-.52-.08-1.03-.14-1.53-.62-.07-1.24-.1-1.87-.12-.01,0-.02.01-.03.02a5.315,5.315,0,0,1,.42,1.51,12.691,12.691,0,0,1,.08,2.14c.61,2.38.49,5.54-.57,7.04-1.72,2.44-4.79.85-5.9-1.28a10.354,10.354,0,0,1-.29-7.39,12.654,12.654,0,0,1,.6-1.64c-.63.1-1.26.23-1.86.38-.03.51-.04,1.02-.03,1.55,0,.18,0,.37.01.55a20.946,20.946,0,0,0,2,8.67c.97,1.87,2.17,2.92,3.21,2.92,1.05-.03,2.17-1.2,3.01-3.13a12.358,12.358,0,0,0,.44-1.17c.01-.01.01-.01,0-.02a22.019,22.019,0,0,0,.97-7.6C50.21,106.73,50.19,106.42,50.17,106.13Zm-3.59-1.14c-1.23-.33-1.96.05-2.19,1.15a.59.59,0,0,0-.02.14.789.789,0,0,1,.12-.15,2.061,2.061,0,0,1,2.13-.97C46.61,105.1,46.59,105.05,46.58,104.99Zm-3.49,3.5a9.927,9.927,0,0,0-.12,2.31,12.5,12.5,0,0,1,.26-2.16C43.18,108.59,43.14,108.54,43.09,108.49Z" fill="#a18aba"/><path d="M38.27,112.76a7.418,7.418,0,0,0-4.49.26c.01-.4,0-.81-.01-1.21-.02-.6-.06-1.19-.11-1.76.86-.55,1.7-1.07,2.51-1.53a12.241,12.241,0,0,1,1.45-.72A27.876,27.876,0,0,0,38.27,112.76Z" fill="#a18aba"/><path d="M25.18,114.51a.127.127,0,0,0-.01.06.076.076,0,0,0-.04-.02A.1.1,0,0,1,25.18,114.51Z" fill="#a18aba"/><path d="M26.51,118.41c-1.08-.24-1.56-.85-1.44-1.84a2.713,2.713,0,0,1,.06-.38,13.764,13.764,0,0,1,.04-1.62,4.422,4.422,0,0,1,1.1.96,2.172,2.172,0,0,1,.37.69A8.442,8.442,0,0,1,26.51,118.41Z" fill="#a18aba"/><path d="M27.51,113.99a2.7,2.7,0,0,0-1.04-.56c.27-.22.54-.44.82-.65a.882.882,0,0,1,.24.33C27.53,113.4,27.52,113.7,27.51,113.99Z" fill="#a18aba"/><path d="M30.66,115.28c-.03.34-.07.67-.11.99a17.358,17.358,0,0,1-1.19,4.43c-.84,1.92-1.97,3.09-3.01,3.13-1.03-.01-2.25-1.06-3.21-2.92a17.336,17.336,0,0,1-1.26-3.41l.26-.26a7.163,7.163,0,0,0,.56,1.53c0,.01.01.01.01.02,1.1,2.12,4.18,3.71,5.9,1.28,1.03-1.47,1.17-4.54.6-6.9a.833.833,0,0,1-.04-.15,11.638,11.638,0,0,0-.02-1.67c.5-.37,1.01-.74,1.51-1.08.06.53.09,1.08.11,1.64v.11A23.314,23.314,0,0,1,30.66,115.28Z" fill="#a18aba"/><path d="M114.92,198.31c-5.1,9.31-12.31,16.83-23.82,20.44-13.07,4.09-28.26.22-36.94-9.43-8.79-9.78-10.47-23.51-10.94-34.38-.12-2.71,0-5.85.14-9.18.32-8.24.7-17.58-2.58-24.09-2.31-4.61-4.95-5.59-6.77-5.59h-.03c-2.38.02-4.57,1.73-6,4.7l-.34.7c-1.66,3.46-4.74,9.89-8.6,11.08a4.63,4.63,0,0,1-3.82-.58c-6.47-3.75-4.91-14.3-.73-22.52a38.573,38.573,0,0,1,5.6-7.97c.12.28.25.54.38.8,1.53,2.93,3.59,4.54,5.82,4.54h.16c2.3-.08,4.31-1.83,5.66-4.93a20.563,20.563,0,0,0,1.41-5.25c1.03-.89,2.99-1.84,5.94-.23.15.34.31.67.47.99,1.52,2.94,3.58,4.54,5.81,4.54h.16c2.3-.07,4.31-1.83,5.66-4.93a4.78,4.78,0,0,0,.19-.48l7.98-5.68a7.861,7.861,0,0,1,1.11,4.53c-.26,7.38-1.91,15.02-3.52,22.4-2.31,10.71-4.71,21.78-3.19,32.87,1.88,13.62,11.23,32.3,26.19,31.25,8.7-.62,16.05-6.14,21.02-15.51a21.684,21.684,0,0,0,1.5,3.49,15.131,15.131,0,0,0,11.79,8.42,1.087,1.087,0,0,0,.18.01A.41.41,0,0,0,114.92,198.31Z" fill="#a18aba"/><path d="M118.61,190.51c-.77,1.9-1.61,3.76-2.51,5.55a1.484,1.484,0,0,0-1.11-.73c-9.91-1.21-11.5-12.45-11.57-12.95a.947.947,0,0,0-.07-.29c.48-1.16.93-2.37,1.33-3.62,1.92,4.6,5.99,11.08,13.89,12.04Z" fill="#a18aba"/><path d="M121.61,182.33q-.915,2.79-1.95,5.5a1.406,1.406,0,0,0-.73-.3c-9.22-1.12-12.28-12.19-12.73-14.04.41-1.26.86-2.61,1.37-4.02C109.31,174.04,113.33,181.23,121.61,182.33Z" fill="#a18aba"/><path d="M283.6,127.87a279.271,279.271,0,0,1-20.15,56.06c-5.54,11.39-22.41,46.04-51.72,40.83-17.44-3.1-26.73-13.3-32.09-26.33-.4-.95-.77-1.92-1.13-2.9-.59-1.65-1.13-3.35-1.62-5.07-.29-1.02-.57-2.06-.83-3.1-.44-1.76-.83-3.53-1.2-5.33-.21-1.08-.41-2.16-.61-3.25-1.14-6.43-1.92-13.03-2.67-19.42l-.12-1.04c-.61-5.21-1.18-10.13-1.92-14.91-.77-5.02-2.29-11.15-7.24-13.99a14.052,14.052,0,0,0-12.14-1.33c-10.87,3.84-17.6,19.96-18.84,23.16-2.22,5.74-3.98,11.84-5.85,18.3-.95,3.31-1.91,6.64-2.94,9.93a1.515,1.515,0,0,0-.38-.1c-10.01-1.22-12.76-14.16-12.78-14.29a1.043,1.043,0,0,0-.08-.25v-.01c6.92-17.77,19.69-42.46,32.4-50.23,14.16-8.64,28.37-6.91,37.1,4.54,8.59,11.27,8.91,24.01,9.25,37.5a152.08,152.08,0,0,0,1.1,17.35,36.545,36.545,0,0,0,.77,3.91,38.429,38.429,0,0,0,1.25,4.02,41.852,41.852,0,0,0,2.1,4.64,41.171,41.171,0,0,0,2.86,4.63c.47.68.96,1.32,1.45,1.95a47.035,47.035,0,0,0,4.08,4.52c4.46,4.36,8.62,6.76,9.69,7.13a20.232,20.232,0,0,0,16.18-.77c15.1-7.54,23.65-34.1,30.52-55.44,2.34-7.24,4.54-14.08,6.67-19.1,1.84-4.31,5.85-11.58,12.11-11.81a7.257,7.257,0,0,1,5.7,2.04C284.61,122.06,284.09,125.83,283.6,127.87Z" fill="#a18aba"/><path d="M58.96,107.72l-.04.03a.412.412,0,0,1,.13.1Zm-18.23-4.05q-.09.78-.12,1.59c-.03.51-.04,1.02-.03,1.55.42-.11.85-.2,1.29-.29a12.654,12.654,0,0,1,.6-1.64l.18-.39a6.448,6.448,0,0,1,.82-1.29C42.53,103.32,41.62,103.48,40.73,103.67Zm5.85,1.32c-1.23-.33-1.96.05-2.19,1.15a.308.308,0,0,1,.1-.01,2.061,2.061,0,0,1,2.13-.97C46.61,105.1,46.59,105.05,46.58,104.99Zm3.45-.39c-.07-.53-.15-1.04-.26-1.55-.61-.05-1.23-.08-1.85-.09a4.072,4.072,0,0,1,.39.57.722.722,0,0,1-.15.95c-.01,0-.02.01-.03.02a5.315,5.315,0,0,1,.42,1.51c.54.02,1.09.06,1.62.12C50.14,105.61,50.09,105.1,50.03,104.6ZM22.14,117.24a8.321,8.321,0,0,1-.25-1.82l-.39.36c.1.59.23,1.17.38,1.72a12.973,12.973,0,0,0,.49,1.6l.33-.33A7.163,7.163,0,0,1,22.14,117.24Zm1.38-1.51a1.927,1.927,0,0,0-.01.24l.03-.03A1.492,1.492,0,0,1,23.52,115.73Zm.04-1.81a9.955,9.955,0,0,0-.04,1.81,12.767,12.767,0,0,1,.2-1.96C23.66,113.82,23.61,113.87,23.56,113.92Zm1.57.63a.076.076,0,0,1,.04.02.127.127,0,0,1,.01-.06A.1.1,0,0,0,25.13,114.55Zm1.14.98a4.422,4.422,0,0,0-1.1-.96,13.764,13.764,0,0,0-.04,1.62,2.713,2.713,0,0,0-.06.38C25.46,116.22,25.86,115.87,26.27,115.53Zm4.39-5.26c-.05-.58-.12-1.14-.21-1.67-.54.36-1.08.74-1.63,1.14a6.128,6.128,0,0,1,.33,1.61,11.638,11.638,0,0,1,.02,1.67.833.833,0,0,0,.04.15c.52-.39,1.04-.78,1.56-1.15v-.11C30.75,111.35,30.72,110.8,30.66,110.27Zm-3.37,2.51c-.01-.01-.01-.02-.02-.02-.93-.69-1.46-.39-1.76.28a5.228,5.228,0,0,0,.96.39,2.7,2.7,0,0,1,1.04.56c.01-.29.02-.59.02-.88A.882.882,0,0,0,27.29,112.78Z" fill="#2c2c2c"/><path d="M49.25,114.63c.01.01.01.01,0,.02l-.01-.01Z" fill="#2c2c2c"/><path d="M59.05,107.85a.412.412,0,0,0-.13-.1l.04-.03Z" fill="#2c2c2c"/><path d="M30.66,115.28c-.03.34-.07.67-.11.99l-.42-.26A6.037,6.037,0,0,1,30.66,115.28Z" fill="#2c2c2c"/><path d="M284.76,117.72a10.147,10.147,0,0,0-8.05-3.05c-7.52.28-12.17,7.57-14.75,13.63-2.2,5.15-4.42,12.05-6.77,19.36-6.7,20.81-15.04,46.7-29.01,53.67a17.082,17.082,0,0,1-13.85.63c-2.03-.71-17.71-10.66-20.22-28.39a146.983,146.983,0,0,1-1.07-17.01c-.34-13.37-.68-27.2-9.87-39.24-9.73-12.77-25.46-14.79-41.05-5.28-18.03,11.02-33.9,50.31-37.63,63.38-4.13,14.41-12.08,22.76-22.39,23.5-7.43.54-12.69-4.88-15.8-9.52a48.7,48.7,0,0,1-7.2-19.15c-1.45-10.56.89-21.37,3.16-31.82,1.63-7.52,3.31-15.29,3.58-22.93a10.545,10.545,0,0,0-5.38-9.9,18.067,18.067,0,0,0-5.56-2.1,21.424,21.424,0,0,0-2.01-6.52c-1.56-3-3.69-4.62-5.98-4.54s-4.3,1.83-5.65,4.93a21.594,21.594,0,0,0-1.61,7.2,17.418,17.418,0,0,0-2.98,1.35c-.49.28-.98.58-1.49.9-1.24-5.75-4.21-9.59-7.72-9.5-4.45.15-7.6,6.6-7.32,15.01a27.458,27.458,0,0,0,.84,5.96,42.837,42.837,0,0,0-7.17,9.81c-4.96,9.75-6.29,21.73,1.91,26.48a7.539,7.539,0,0,0,6.2.85c5.12-1.58,8.44-8.51,10.43-12.65l.33-.69c.9-1.87,2.14-3,3.32-3.01,1.35-.01,2.84,1.43,4.1,3.93,2.93,5.83,2.57,14.75,2.26,22.63-.14,3.39-.26,6.6-.14,9.43.5,11.38,2.28,25.77,11.71,36.25,9.59,10.66,25.69,14.79,40.06,10.29,23.73-7.44,30.15-29.7,36.36-51.23,1.85-6.39,3.59-12.43,5.77-18.05,3.19-8.23,9.57-18.78,17.04-21.41a11.054,11.054,0,0,1,9.64,1.09c3.84,2.22,5.1,7.5,5.78,11.86.72,4.73,1.3,9.62,1.9,14.8l.12,1.04c3.22,27.49,7.23,61.71,42.6,68a37.176,37.176,0,0,0,6.52.59c27.47,0,43.05-32.01,48.43-43.06a281.7,281.7,0,0,0,20.36-56.66C287.61,124.07,286.99,120.22,284.76,117.72Zm-225.8-10,.09.13a.412.412,0,0,0-.13-.1Zm-5.74-.79c0-.09-.01-.17-.01-.26a13.926,13.926,0,0,1,3.7,1.5c.26.16.51.32.74.49L52.94,112A27.141,27.141,0,0,0,53.22,106.93Zm-12.61-1.67q.03-.81.12-1.59a17.479,17.479,0,0,1,1.28-5.1c.83-1.92,1.96-3.1,3-3.13h.05c1.04,0,2.21,1.09,3.17,2.92a17.457,17.457,0,0,1,1.54,4.69c.11.51.19,1.02.26,1.55.06.5.11,1.01.14,1.53.02.29.04.6.05.9a22.019,22.019,0,0,1-.97,7.6c.01.01.01.01,0,.02a12.358,12.358,0,0,1-.44,1.17c-.84,1.93-1.96,3.1-3.01,3.13-1.04,0-2.24-1.05-3.21-2.92a20.946,20.946,0,0,1-2-8.67c-.01-.18-.01-.37-.01-.55C40.57,106.28,40.58,105.77,40.61,105.26Zm-4.44,3.26a12.241,12.241,0,0,1,1.45-.72,27.876,27.876,0,0,0,.65,4.96,7.418,7.418,0,0,0-4.49.26c.01-.4,0-.81-.01-1.21-.02-.6-.06-1.19-.11-1.76C34.52,109.5,35.36,108.98,36.17,108.52Zm-10.61-8.21h.05c1.87,0,4.02,3.35,4.84,8.29.09.53.16,1.09.21,1.67.06.53.09,1.08.11,1.64v.11a23.314,23.314,0,0,1-.11,3.26c-.03.34-.07.67-.11.99a17.358,17.358,0,0,1-1.19,4.43c-.84,1.92-1.97,3.09-3.01,3.13-1.03-.01-2.25-1.06-3.21-2.92a17.336,17.336,0,0,1-1.26-3.41c-.15-.55-.28-1.13-.38-1.72a25.1,25.1,0,0,1-.36-3.55C20.92,105.5,23.29,100.39,25.56,100.31ZM91.1,218.75c-13.07,4.09-28.26.22-36.94-9.43-8.79-9.78-10.47-23.51-10.94-34.38-.12-2.71,0-5.85.14-9.18.32-8.24.7-17.58-2.58-24.09-2.31-4.61-4.95-5.59-6.77-5.59h-.03c-2.38.02-4.57,1.73-6,4.7l-.34.7c-1.66,3.46-4.74,9.89-8.6,11.08a4.63,4.63,0,0,1-3.82-.58c-6.47-3.75-4.91-14.3-.73-22.52a38.573,38.573,0,0,1,5.6-7.97c.12.28.25.54.38.8,1.53,2.93,3.59,4.54,5.82,4.54h.16c2.3-.08,4.31-1.83,5.66-4.93a20.563,20.563,0,0,0,1.41-5.25c1.03-.89,2.99-1.84,5.94-.23.15.34.31.67.47.99,1.52,2.94,3.58,4.54,5.81,4.54h.16c2.3-.07,4.31-1.83,5.66-4.93a4.78,4.78,0,0,0,.19-.48l7.98-5.68a7.861,7.861,0,0,1,1.11,4.53c-.26,7.38-1.91,15.02-3.52,22.4-2.31,10.71-4.71,21.78-3.19,32.87,1.88,13.62,11.23,32.3,26.19,31.25,8.7-.62,16.05-6.14,21.02-15.51a21.684,21.684,0,0,0,1.5,3.49,15.131,15.131,0,0,0,11.79,8.42,1.087,1.087,0,0,0,.18.01.41.41,0,0,0,.11-.01C109.82,207.62,102.61,215.14,91.1,218.75Zm25-22.69a1.484,1.484,0,0,0-1.11-.73c-9.91-1.21-11.5-12.45-11.57-12.95a.947.947,0,0,0-.07-.29c.48-1.16.93-2.37,1.33-3.62,1.92,4.6,5.99,11.08,13.89,12.04h.04C117.84,192.41,117,194.27,116.1,196.06Zm3.56-8.23a1.406,1.406,0,0,0-.73-.3c-9.22-1.12-12.28-12.19-12.73-14.04.41-1.26.86-2.61,1.37-4.02,1.74,4.57,5.76,11.76,14.04,12.86Q120.7,185.12,119.66,187.83Zm51.92-28.47-.12-1.04c-.61-5.21-1.18-10.13-1.92-14.91-.77-5.02-2.29-11.15-7.24-13.99a14.052,14.052,0,0,0-12.14-1.33c-10.87,3.84-17.6,19.96-18.84,23.16-2.22,5.74-3.98,11.84-5.85,18.3-.95,3.31-1.91,6.64-2.94,9.93a1.515,1.515,0,0,0-.38-.1c-10.01-1.22-12.76-14.16-12.78-14.29a1.043,1.043,0,0,0-.08-.25v-.01c6.92-17.77,19.69-42.46,32.4-50.23,14.16-8.64,28.37-6.91,37.1,4.54,8.59,11.27,8.91,24.01,9.25,37.5a152.08,152.08,0,0,0,1.1,17.35,36.545,36.545,0,0,0,.77,3.91c-3.47-1.48-9.68-3.05-15.66.88C173.11,172.35,172.33,165.75,171.58,159.36Zm3.28,22.67c7.51-5.96,15.78-.46,16.14-.21a1.4,1.4,0,0,0,.16.1,41.852,41.852,0,0,0,2.1,4.64c-4.29-1.64-11.25-3.16-17.2.8C175.62,185.6,175.23,183.83,174.86,182.03Zm2.03,8.43c7.67-6.05,18.72.5,18.83.57a1.672,1.672,0,0,0,.4.16c.47.68.96,1.32,1.45,1.95-5.17-1.31-13.15-2.2-19.06,2.39C177.92,193.88,177.38,192.18,176.89,190.46ZM283.6,127.87a279.271,279.271,0,0,1-20.15,56.06c-5.54,11.39-22.41,46.04-51.72,40.83-17.44-3.1-26.73-13.3-32.09-26.33a1.486,1.486,0,0,0,.31-.2c7.79-6.62,21.47-.66,21.6-.6a.293.293,0,0,0,.1.03c4.46,4.36,8.62,6.76,9.69,7.13a20.232,20.232,0,0,0,16.18-.77c15.1-7.54,23.65-34.1,30.52-55.44,2.34-7.24,4.54-14.08,6.67-19.1,1.84-4.31,5.85-11.58,12.11-11.81a7.257,7.257,0,0,1,5.7,2.04C284.61,122.06,284.09,125.83,283.6,127.87Z" fill="#2c2c2c"/><path d="M48.62,137.873a6.238,6.238,0,0,1-1.163-.108,7.4,7.4,0,0,1,.457-14.593,5.485,5.485,0,0,1,5.622,3.266,10.866,10.866,0,0,0,1.049,1.653,4.524,4.524,0,0,1,.859,4.869A7.409,7.409,0,0,1,48.62,137.873Zm-.094-11.733c-.1,0-.2.006-.3.016h0a4.4,4.4,0,0,0-.2,8.661A4.342,4.342,0,0,0,52.6,132c.355-1.049.265-1.172-.438-2.133a13.8,13.8,0,0,1-1.311-2.079A2.555,2.555,0,0,0,48.526,126.14Z" fill="#2c2c2c"/><path d="M45.96,113.54a1.624,1.624,0,0,1-1.38-2.22,13.928,13.928,0,0,1,.04-1.63,3.356,3.356,0,0,1,1.47,1.66A8.494,8.494,0,0,1,45.96,113.54Z" fill="#fff"/><path d="M47.24,109.44a1.88,1.88,0,0,0-.28-.34c-.56-.53-1.34-.56-1.99-.93.29-.67.82-.98,1.75-.29a.931.931,0,0,1,.26.36A3.754,3.754,0,0,1,47.24,109.44Z" fill="#fff"/><path d="M43.09,108.49a9.927,9.927,0,0,0-.12,2.31,12.5,12.5,0,0,1,.26-2.16C43.18,108.59,43.14,108.54,43.09,108.49Zm3.49-3.5c-1.23-.33-1.96.05-2.19,1.15a.59.59,0,0,0-.02.14.789.789,0,0,1,.12-.15,2.061,2.061,0,0,1,2.13-.97C46.61,105.1,46.59,105.05,46.58,104.99Zm0,0c-1.23-.33-1.96.05-2.19,1.15a.59.59,0,0,0-.02.14.789.789,0,0,1,.12-.15,2.061,2.061,0,0,1,2.13-.97C46.61,105.1,46.59,105.05,46.58,104.99Zm-3.49,3.5a9.927,9.927,0,0,0-.12,2.31,12.5,12.5,0,0,1,.26-2.16C43.18,108.59,43.14,108.54,43.09,108.49Zm0,0a9.927,9.927,0,0,0-.12,2.31,12.5,12.5,0,0,1,.26-2.16C43.18,108.59,43.14,108.54,43.09,108.49Zm3.49-3.5c-1.23-.33-1.96.05-2.19,1.15a.59.59,0,0,0-.02.14.789.789,0,0,1,.12-.15,2.061,2.061,0,0,1,2.13-.97C46.61,105.1,46.59,105.05,46.58,104.99Zm0,0c-1.23-.33-1.96.05-2.19,1.15a.59.59,0,0,0-.02.14.789.789,0,0,1,.12-.15,2.061,2.061,0,0,1,2.13-.97C46.61,105.1,46.59,105.05,46.58,104.99Zm-3.61,5.81a12.5,12.5,0,0,1,.26-2.16c-.05-.05-.09-.1-.14-.15A9.927,9.927,0,0,0,42.97,110.8Zm7.2-4.67c-.03-.52-.08-1.03-.14-1.53-.07-.53-.15-1.04-.26-1.55a17.457,17.457,0,0,0-1.54-4.69c-.96-1.83-2.13-2.92-3.17-2.92h-.05c-1.04.03-2.17,1.21-3,3.13a17.479,17.479,0,0,0-1.28,5.1q-.09.78-.12,1.59c-.03.51-.04,1.02-.03,1.55,0,.18,0,.37.01.55a20.946,20.946,0,0,0,2,8.67c.97,1.87,2.17,2.92,3.21,2.92,1.05-.03,2.17-1.2,3.01-3.13a12.358,12.358,0,0,0,.44-1.17c.01-.01.01-.01,0-.02a22.019,22.019,0,0,0,.97-7.6C50.21,106.73,50.19,106.42,50.17,106.13Zm-2.11,9.06c-1.72,2.44-4.79.85-5.9-1.28a10.354,10.354,0,0,1-.29-7.39,12.654,12.654,0,0,1,.6-1.64l.18-.39a6.448,6.448,0,0,1,.82-1.29c1.27-1.52,3.06-2.05,4.45-.24a4.072,4.072,0,0,1,.39.57.722.722,0,0,1-.15.95c-.01,0-.02.01-.03.02a5.315,5.315,0,0,1,.42,1.51,12.691,12.691,0,0,1,.08,2.14C49.24,110.53,49.12,113.69,48.06,115.19Zm-3.67-9.05a.59.59,0,0,0-.02.14.789.789,0,0,1,.12-.15,2.061,2.061,0,0,1,2.13-.97c-.01-.06-.03-.11-.04-.17C45.35,104.66,44.62,105.04,44.39,106.14Zm-1.42,4.66a12.5,12.5,0,0,1,.26-2.16c-.05-.05-.09-.1-.14-.15A9.927,9.927,0,0,0,42.97,110.8Zm.12-2.31a9.927,9.927,0,0,0-.12,2.31,12.5,12.5,0,0,1,.26-2.16C43.18,108.59,43.14,108.54,43.09,108.49Zm3.49-3.5c-1.23-.33-1.96.05-2.19,1.15a.59.59,0,0,0-.02.14.789.789,0,0,1,.12-.15,2.061,2.061,0,0,1,2.13-.97C46.61,105.1,46.59,105.05,46.58,104.99Zm0,0c-1.23-.33-1.96.05-2.19,1.15a.59.59,0,0,0-.02.14.789.789,0,0,1,.12-.15,2.061,2.061,0,0,1,2.13-.97C46.61,105.1,46.59,105.05,46.58,104.99Zm-3.49,3.5a9.927,9.927,0,0,0-.12,2.31,12.5,12.5,0,0,1,.26-2.16C43.18,108.59,43.14,108.54,43.09,108.49Zm0,0a9.927,9.927,0,0,0-.12,2.31,12.5,12.5,0,0,1,.26-2.16C43.18,108.59,43.14,108.54,43.09,108.49Zm3.49-3.5c-1.23-.33-1.96.05-2.19,1.15a.59.59,0,0,0-.02.14.789.789,0,0,1,.12-.15,2.061,2.061,0,0,1,2.13-.97C46.61,105.1,46.59,105.05,46.58,104.99Zm0,0c-1.23-.33-1.96.05-2.19,1.15a.59.59,0,0,0-.02.14.789.789,0,0,1,.12-.15,2.061,2.061,0,0,1,2.13-.97C46.61,105.1,46.59,105.05,46.58,104.99Zm-3.49,3.5a9.927,9.927,0,0,0-.12,2.31,12.5,12.5,0,0,1,.26-2.16C43.18,108.59,43.14,108.54,43.09,108.49Z" fill="#fff"/><path d="M39.133,91.418a1.5,1.5,0,0,1-1.27-2.3c1.267-2.028,5.08-4.994,10.435-1.706a1.5,1.5,0,1,1-1.57,2.557c-4.116-2.53-6.108.4-6.321.739A1.5,1.5,0,0,1,39.133,91.418Z" fill="#2c2c2c"/><path d="M48.63,108.15a12.691,12.691,0,0,0-.08-2.14,5.315,5.315,0,0,0-.42-1.51c.01-.01.02-.02.03-.02a.722.722,0,0,0,.15-.95,4.072,4.072,0,0,0-.39-.57c-1.39-1.81-3.18-1.28-4.45.24a6.448,6.448,0,0,0-.82,1.29l-.18.39a12.654,12.654,0,0,0-.6,1.64,10.354,10.354,0,0,0,.29,7.39c1.11,2.13,4.18,3.72,5.9,1.28C49.12,113.69,49.24,110.53,48.63,108.15Zm-4.24-2.01c.23-1.1.96-1.48,2.19-1.15.01.06.03.11.04.17a2.061,2.061,0,0,0-2.13.97.789.789,0,0,0-.12.15A.59.59,0,0,1,44.39,106.14Zm.19,5.18a13.928,13.928,0,0,1,.04-1.63,3.356,3.356,0,0,1,1.47,1.66,8.494,8.494,0,0,1-.13,2.19A1.624,1.624,0,0,1,44.58,111.32Zm.39-3.15c.29-.67.82-.98,1.75-.29a.931.931,0,0,1,.26.36,3.754,3.754,0,0,1,.26,1.2,1.88,1.88,0,0,0-.28-.34C46.4,108.57,45.62,108.54,44.97,108.17Zm-1.88.32c.05.05.09.1.14.15a12.5,12.5,0,0,0-.26,2.16A9.927,9.927,0,0,1,43.09,108.49Z" fill="#2c2c2c"/><path d="M47.24,109.44a1.88,1.88,0,0,0-.28-.34c.01-.29.02-.57.02-.86A3.754,3.754,0,0,1,47.24,109.44Z" fill="#2c2c2c"/><path d="M23.54,115.94l-.03.03a1.927,1.927,0,0,1,.01-.24A1.492,1.492,0,0,0,23.54,115.94Z" fill="#fff"/><path d="M23.72,113.77a12.767,12.767,0,0,0-.2,1.96,9.955,9.955,0,0,1,.04-1.81C23.61,113.87,23.66,113.82,23.72,113.77Z" fill="#fff"/><path d="M23.89,113.63c-.06.05-.11.09-.16.14.02-.09.03-.17.05-.25Z" fill="#fff"/><path d="M25.18,114.51a.127.127,0,0,0-.01.06.076.076,0,0,0-.04-.02A.1.1,0,0,1,25.18,114.51Z" fill="#fff"/><path d="M26.51,118.41c-1.08-.24-1.56-.85-1.44-1.84a2.713,2.713,0,0,1,.06-.38,13.764,13.764,0,0,1,.04-1.62,4.422,4.422,0,0,1,1.1.96,2.172,2.172,0,0,1,.37.69A8.442,8.442,0,0,1,26.51,118.41Z" fill="#fff"/><path d="M27.13,109.87c-1.28-.35-2.02.08-2.21,1.3.61-.82,1.42-1.4,2.25-1.13C27.16,109.98,27.14,109.93,27.13,109.87Zm.16,2.91c-.01-.01-.01-.02-.02-.02-.93-.69-1.46-.39-1.76.28a5.228,5.228,0,0,0,.96.39,2.7,2.7,0,0,1,1.04.56c.01-.29.02-.59.02-.88A.882.882,0,0,0,27.29,112.78Zm0,0c-.01-.01-.01-.02-.02-.02-.93-.69-1.46-.39-1.76.28a5.228,5.228,0,0,0,.96.39,2.7,2.7,0,0,1,1.04.56c.01-.29.02-.59.02-.88A.882.882,0,0,0,27.29,112.78Zm-.16-2.91c-1.28-.35-2.02.08-2.21,1.3.61-.82,1.42-1.4,2.25-1.13C27.16,109.98,27.14,109.93,27.13,109.87Zm0,0c-1.28-.35-2.02.08-2.21,1.3.61-.82,1.42-1.4,2.25-1.13C27.16,109.98,27.14,109.93,27.13,109.87Zm.16,2.91c-.01-.01-.01-.02-.02-.02-.93-.69-1.46-.39-1.76.28a5.228,5.228,0,0,0,.96.39,2.7,2.7,0,0,1,1.04.56c.01-.29.02-.59.02-.88A.882.882,0,0,0,27.29,112.78Zm0,0c-.01-.01-.01-.02-.02-.02-.93-.69-1.46-.39-1.76.28a5.228,5.228,0,0,0,.96.39,2.7,2.7,0,0,1,1.04.56c.01-.29.02-.59.02-.88A.882.882,0,0,0,27.29,112.78Zm-.16-2.91c-1.28-.35-2.02.08-2.21,1.3.61-.82,1.42-1.4,2.25-1.13C27.16,109.98,27.14,109.93,27.13,109.87Zm0,0c-1.28-.35-2.02.08-2.21,1.3.61-.82,1.42-1.4,2.25-1.13C27.16,109.98,27.14,109.93,27.13,109.87Zm.16,2.91c-.01-.01-.01-.02-.02-.02-.93-.69-1.46-.39-1.76.28a5.228,5.228,0,0,0,.96.39,2.7,2.7,0,0,1,1.04.56c.01-.29.02-.59.02-.88A.882.882,0,0,0,27.29,112.78Zm0,0c-.01-.01-.01-.02-.02-.02-.93-.69-1.46-.39-1.76.28a5.228,5.228,0,0,0,.96.39,2.7,2.7,0,0,1,1.04.56c.01-.29.02-.59.02-.88A.882.882,0,0,0,27.29,112.78Zm-.12-2.74c-.01-.06-.03-.11-.04-.17-1.28-.35-2.02.08-2.21,1.3C25.53,110.35,26.34,109.77,27.17,110.04Zm3.6,1.98v-.11c-.02-.56-.05-1.11-.11-1.64-.05-.58-.12-1.14-.21-1.67-.82-4.94-2.97-8.29-4.84-8.29h-.05c-2.27.08-4.64,5.19-4.42,11.92a25.1,25.1,0,0,0,.36,3.55c.1.59.23,1.17.38,1.72a17.336,17.336,0,0,0,1.26,3.41c.96,1.86,2.18,2.91,3.21,2.92,1.04-.04,2.17-1.21,3.01-3.13a17.358,17.358,0,0,0,1.19-4.43c.04-.32.08-.65.11-.99A23.314,23.314,0,0,0,30.77,112.02Zm-2.16,8.05c-1.72,2.43-4.8.84-5.9-1.28,0-.01-.01-.01-.01-.02a7.163,7.163,0,0,1-.56-1.53,8.321,8.321,0,0,1-.25-1.82,13.217,13.217,0,0,1,1.31-6.05c1.26-2.59,3.89-4,5.66-.97a.73.73,0,0,1-.18.98,1.581,1.581,0,0,1,.14.36,6.128,6.128,0,0,1,.33,1.61,11.638,11.638,0,0,1,.02,1.67.833.833,0,0,0,.04.15C29.78,115.53,29.64,118.6,28.61,120.07Zm-1.34-7.31c-.93-.69-1.46-.39-1.76.28a5.228,5.228,0,0,0,.96.39,2.7,2.7,0,0,1,1.04.56c.01-.29.02-.59.02-.88a.882.882,0,0,0-.24-.33C27.28,112.77,27.28,112.76,27.27,112.76Zm-.1-2.72c-.01-.06-.03-.11-.04-.17-1.28-.35-2.02.08-2.21,1.3C25.53,110.35,26.34,109.77,27.17,110.04Zm-.04-.17c-1.28-.35-2.02.08-2.21,1.3.61-.82,1.42-1.4,2.25-1.13C27.16,109.98,27.14,109.93,27.13,109.87Zm.16,2.91c-.01-.01-.01-.02-.02-.02-.93-.69-1.46-.39-1.76.28a5.228,5.228,0,0,0,.96.39,2.7,2.7,0,0,1,1.04.56c.01-.29.02-.59.02-.88A.882.882,0,0,0,27.29,112.78Zm0,0c-.01-.01-.01-.02-.02-.02-.93-.69-1.46-.39-1.76.28a5.228,5.228,0,0,0,.96.39,2.7,2.7,0,0,1,1.04.56c.01-.29.02-.59.02-.88A.882.882,0,0,0,27.29,112.78Zm-.16-2.91c-1.28-.35-2.02.08-2.21,1.3.61-.82,1.42-1.4,2.25-1.13C27.16,109.98,27.14,109.93,27.13,109.87Zm0,0c-1.28-.35-2.02.08-2.21,1.3.61-.82,1.42-1.4,2.25-1.13C27.16,109.98,27.14,109.93,27.13,109.87Zm.16,2.91c-.01-.01-.01-.02-.02-.02-.93-.69-1.46-.39-1.76.28a5.228,5.228,0,0,0,.96.39,2.7,2.7,0,0,1,1.04.56c.01-.29.02-.59.02-.88A.882.882,0,0,0,27.29,112.78Zm0,0c-.01-.01-.01-.02-.02-.02-.93-.69-1.46-.39-1.76.28a5.228,5.228,0,0,0,.96.39,2.7,2.7,0,0,1,1.04.56c.01-.29.02-.59.02-.88A.882.882,0,0,0,27.29,112.78Zm-.16-2.91c-1.28-.35-2.02.08-2.21,1.3.61-.82,1.42-1.4,2.25-1.13C27.16,109.98,27.14,109.93,27.13,109.87Z" fill="#fff"/><path d="M19.682,96.294A1.5,1.5,0,0,1,18.411,94c1.268-2.028,5.08-4.993,10.436-1.706a1.5,1.5,0,0,1-1.571,2.557c-4.115-2.53-6.108.4-6.321.739A1.5,1.5,0,0,1,19.682,96.294Z" fill="#2c2c2c"/><path d="M29.21,113.17a.833.833,0,0,1-.04-.15,11.638,11.638,0,0,0-.02-1.67,6.128,6.128,0,0,0-.33-1.61,1.581,1.581,0,0,0-.14-.36.73.73,0,0,0,.18-.98c-1.77-3.03-4.4-1.62-5.66.97a13.217,13.217,0,0,0-1.31,6.05,8.321,8.321,0,0,0,.25,1.82,7.163,7.163,0,0,0,.56,1.53c0,.01.01.01.01.02,1.1,2.12,4.18,3.71,5.9,1.28C29.64,118.6,29.78,115.53,29.21,113.17Zm-5.67,2.77-.03.03a1.927,1.927,0,0,1,.01-.24,9.955,9.955,0,0,1,.04-1.81c.05-.05.1-.1.16-.15a12.767,12.767,0,0,0-.2,1.96A1.492,1.492,0,0,0,23.54,115.94Zm.19-2.17c.02-.09.03-.17.05-.25l.11.11C23.83,113.68,23.78,113.72,23.73,113.77Zm3.78.22a2.7,2.7,0,0,0-1.04-.56,5.228,5.228,0,0,1-.96-.39c.3-.67.83-.97,1.76-.28.01,0,.01.01.02.02a.882.882,0,0,1,.24.33C27.53,113.4,27.52,113.7,27.51,113.99Zm-.38-4.12c.01.06.03.11.04.17-.83-.27-1.64.31-2.25,1.13C25.11,109.95,25.85,109.52,27.13,109.87Zm-.62,8.54c-1.08-.24-1.56-.85-1.44-1.84a2.713,2.713,0,0,1,.06-.38,13.764,13.764,0,0,1,.04-1.62.076.076,0,0,0-.04-.02.1.1,0,0,1,.05-.04.127.127,0,0,0-.01.06,4.422,4.422,0,0,1,1.1.96,2.172,2.172,0,0,1,.37.69A8.442,8.442,0,0,1,26.51,118.41Z" fill="#2c2c2c"/><path d="M23.54,115.94l-.03.03a1.927,1.927,0,0,1,.01-.24A1.492,1.492,0,0,0,23.54,115.94Z" fill="#2c2c2c"/><path d="M23.89,113.63c-.06.05-.11.09-.16.14.02-.09.03-.17.05-.25Z" fill="#2c2c2c"/><path d="M25.18,114.51a.127.127,0,0,0-.01.06.076.076,0,0,0-.04-.02A.1.1,0,0,1,25.18,114.51Z" fill="#2c2c2c"/></svg>