<svg xmlns="http://www.w3.org/2000/svg" width="300" height="300" viewBox="0 0 300 300"><path d="M157.58,12.05l-.662.06.249-.022C157.3,12.075,157.444,12.064,157.58,12.05Z" fill="#2c2c2c"/><path d="M157.228,12.083l-.061,0-.059.005Z" fill="#2c2c2c"/><path d="M182.48,69.5c-2.47,2.94-7.79,5-11.31,6.36-2.82,1.09-4.09,1.6-4.72,2.41-.9,1.16-.85,2.55-.78,4.31a32.152,32.152,0,0,1-.33,6.72c-.8,5.22-4.16,9.3-9.99,12.13-3.13,1.52-7.12,1.7-10.03,1.83-2.69.12-4.17.19-4.92,1.23a8.83,8.83,0,0,0-.94,2.81c-.79,3.18-2.25,9.09-6.45,14.42-2.5,3.18-7.84,6.84-19.09,6.22-2.76-.17-3.34,1.72-3.79,3.22a12.886,12.886,0,0,1-2.18,4.48c-3.53,4.71-8.74,7-15.92,7-4.87,0-6.56-3.25-8.05-6.11-.85-1.64-1.59-3.05-2.95-3.51a2.973,2.973,0,0,0-.9-.14,10.979,10.979,0,0,0-2.99.68c-3.9,1.25-9.25,2.96-13.51-5.15-5.7-10.82,9.41-19.28,10.05-19.63l1.55-.85-1.09-1.39c-.08-.11-6.86-8.83-6.86-15.98a8.611,8.611,0,0,1,.81-3.81c3.74-7.64,10.64-7.21,22.06-6.5l.97.06c1.55.1,3.24.03,4.05-1.2.84-1.28.12-2.72-.65-4.24-1.41-2.81-2.32-5.17-.26-7.84,2.53-3.26,5.06-2.95,7.3-2.67,1.48.18,3.33.41,4.23-1.26a8.57,8.57,0,0,0,.58-4.01,44.31,44.31,0,0,1,2.75-15.44c2.81-8.24,10.07-7.47,14.87-6.96,1.84.19,3.05.32,3.97-.05,2.14-.86,2.45-2.1,2.8-3.53a19.3,19.3,0,0,1,1.4-4.01c2.13-4.58,5.8-9.43,18.06-13.93,11.08-4.07,19.98.5,23.56,6.47,1.89,3.15,1,7.47.28,10.94-.46,2.24-.83,4.02-.43,5.35.38,1.3.71,1.84,1.83,2.29.66.28,2.41,1,7.54,6.69C191.61,56.48,185.5,65.9,182.48,69.5Z" fill="#a18aba"/><path d="M185.23,44.91c-5.54-6.16-7.61-7.04-8.61-7.45-.03-.08-.06-.2-.12-.37a13.262,13.262,0,0,1,.5-3.91c.78-3.77,1.84-8.93-.65-13.08-4.2-7-14.49-12.4-27.17-7.75-13.28,4.88-17.33,10.32-19.74,15.48a22.859,22.859,0,0,0-1.59,4.56c-.29,1.18-.29,1.18-.97,1.46a13.15,13.15,0,0,1-2.57-.15c-5.05-.53-14.44-1.52-18.03,8.98a47.155,47.155,0,0,0-2.91,16.38,11.715,11.715,0,0,1-.15,2.43,11.218,11.218,0,0,1-1.29-.11c-2.42-.3-6.46-.8-10.04,3.81-3.39,4.38-1.3,8.54-.05,11.03.18.34.39.77.54,1.11a10.642,10.642,0,0,1-1.08-.02l-.96-.05c-11.8-.74-20.32-1.27-24.94,8.18-3.66,7.47,2.76,17.85,5.37,21.57-6.37,4.02-15.04,12.85-9.8,22.8,5.44,10.33,13.02,7.91,17.09,6.61a12.255,12.255,0,0,1,2.03-.54,9.669,9.669,0,0,1,1.23,2.03c1.51,2.89,4.02,7.73,10.71,7.73,8.19,0,14.19-2.68,18.32-8.2a15.825,15.825,0,0,0,2.65-5.41c.13-.44.3-.99.34-1.08a1.667,1.667,0,0,1,.42-.02c12.55.7,18.66-3.61,21.61-7.35,4.6-5.84,6.16-12.16,7-15.56.15-.58.3-1.22.4-1.56a23.9,23.9,0,0,1,2.68-.2c3.18-.15,7.53-.34,11.21-2.13,6.77-3.29,10.69-8.12,11.65-14.37a35.367,35.367,0,0,0,.36-7.29,6.29,6.29,0,0,1,.09-2.29,22.67,22.67,0,0,1,3.49-1.52c4.04-1.56,9.57-3.7,12.53-7.23C187.53,68.15,195.7,56.54,185.23,44.91ZM171.17,75.86c-2.82,1.09-4.09,1.6-4.72,2.41-.9,1.16-.85,2.55-.78,4.31a32.152,32.152,0,0,1-.33,6.72c-.8,5.22-4.16,9.3-9.99,12.13-3.13,1.52-7.12,1.7-10.03,1.83-2.69.12-4.17.19-4.92,1.23a8.83,8.83,0,0,0-.94,2.81c-.79,3.18-2.25,9.09-6.45,14.42-2.5,3.18-7.84,6.84-19.09,6.22-2.76-.17-3.34,1.72-3.79,3.22a12.886,12.886,0,0,1-2.18,4.48c-3.53,4.71-8.74,7-15.92,7-4.87,0-6.56-3.25-8.05-6.11-.85-1.64-1.59-3.05-2.95-3.51a2.973,2.973,0,0,0-.9-.14,10.979,10.979,0,0,0-2.99.68c-3.9,1.25-9.25,2.96-13.51-5.15-5.7-10.82,9.41-19.28,10.05-19.63l1.55-.85-1.09-1.39c-.08-.11-6.86-8.83-6.86-15.98a8.611,8.611,0,0,1,.81-3.81c3.74-7.64,10.64-7.21,22.06-6.5l.97.06c1.55.1,3.24.03,4.05-1.2.84-1.28.12-2.72-.65-4.24-1.41-2.81-2.32-5.17-.26-7.84,2.53-3.26,5.06-2.95,7.3-2.67,1.48.18,3.33.41,4.23-1.26a8.57,8.57,0,0,0,.58-4.01,44.31,44.31,0,0,1,2.75-15.44c2.81-8.24,10.07-7.47,14.87-6.96,1.84.19,3.05.32,3.97-.05,2.14-.86,2.45-2.1,2.8-3.53a19.3,19.3,0,0,1,1.4-4.01c2.13-4.58,5.8-9.43,18.06-13.93,11.08-4.07,19.98.5,23.56,6.47,1.89,3.15,1,7.47.28,10.94-.46,2.24-.83,4.02-.43,5.35.38,1.3.71,1.84,1.83,2.29.66.28,2.41,1,7.54,6.69,8.61,9.57,2.5,18.99-.52,22.59C180.01,72.44,174.69,74.5,171.17,75.86Z" fill="#2c2c2c"/><path d="M154.515,62.206a1.5,1.5,0,0,1-.98-2.637c4.911-4.226,5.851-8.466,5.86-8.508a1.5,1.5,0,1,1,2.935.618c-.045.213-1.166,5.283-6.838,10.164A1.493,1.493,0,0,1,154.515,62.206Z" fill="#2c2c2c"/><path d="M163.974,66.563a1.49,1.49,0,0,1-.884-.289c-.267-.2-6.578-4.814-10.814-8.551-3.612-3.187-7.325-7.273-7.478-13.412-.15-5.953,8.54-9.5,8.91-9.645a1.5,1.5,0,0,1,1.115,2.784c-1.981.8-7.106,3.571-7.025,6.786.1,4.019,1.973,7.275,6.463,11.237,4.131,3.645,10.535,8.332,10.6,8.379a1.5,1.5,0,0,1-.885,2.711Z" fill="#2c2c2c"/><path d="M142.819,78.484c-1.758,0-3.888-.814-5.858-3.746-2.151-3.2-2.956-6.268-2.393-9.112a9.188,9.188,0,0,1,3.553-5.545,1.579,1.579,0,0,1,.266-.142,16.475,16.475,0,0,1,8.695-.581c2.84.552,6.089,2.641,5.439,9.457-.208,2.186-3.707,8.337-8.211,9.478A6.061,6.061,0,0,1,142.819,78.484Zm-3.153-15.82c-.875.665-4.522,3.986-.215,10.4,1.932,2.874,3.582,2.458,4.121,2.321,3.127-.793,5.854-5.711,5.963-6.855.37-3.882-.535-5.744-3.025-6.228A13.717,13.717,0,0,0,139.666,62.664Z" fill="#2c2c2c"/><path d="M128.5,95.414c-1.758,0-3.888-.814-5.857-3.747-2.152-3.2-2.957-6.268-2.393-9.111a9.188,9.188,0,0,1,3.553-5.546,1.6,1.6,0,0,1,.265-.141,16.487,16.487,0,0,1,8.695-.581c2.839.552,6.088,2.641,5.439,9.457-.208,2.187-3.707,8.337-8.211,9.478A6.048,6.048,0,0,1,128.5,95.414ZM125.347,79.6c-.881.672-4.513,3.993-.211,10.4,1.931,2.875,3.578,2.459,4.121,2.32,3.126-.792,5.852-5.71,5.962-6.854.37-3.881-.535-5.744-3.026-6.229A13.962,13.962,0,0,0,125.347,79.6Z" fill="#2c2c2c"/><path d="M103.8,125.6a4.983,4.983,0,0,1-1.4-.2c-5.777-1.69-9.813-13.956-10.253-15.349A1.5,1.5,0,1,1,95,109.142c1.483,4.674,5.031,12.439,8.236,13.376a2.144,2.144,0,0,0,2.141-.6,4.945,4.945,0,0,0,1.991-3.723c.14-3.9-4.082-8.008-4.125-8.049a1.5,1.5,0,0,1,1.948-2.275c.067.05,6.946,5.178,11.371,1.364,1.238-1.067,3.228-3.224,2.652-5.686-.442-1.885-2.815-5.468-13.75-8.28a1.5,1.5,0,1,1,.748-2.905c9.507,2.445,14.864,5.978,15.923,10.5.694,2.965-.589,6.034-3.614,8.642-3.009,2.595-6.542,2.471-9.441,1.61a10.877,10.877,0,0,1,1.286,5.173,7.88,7.88,0,0,1-3.069,5.932A5.385,5.385,0,0,1,103.8,125.6Z" fill="#2c2c2c"/><path d="M138.367,295.17c-28.788,0-40.485-14.952-44.509-22.363-4.947-9.113-3.869-21.871-.606-30.473,2.625-6.919,5.442-15.911,5.845-17.207.165-2.082,1.8-23.5,1.1-41.321-.329-8.4-.947-14.254-1.355-18.125-.6-5.707-.828-7.842.829-9.131a2.838,2.838,0,0,1,2.187-.483c3.767.486,12.036,6.535,18.34,14.767a67.883,67.883,0,0,1,7.047,11.985c1.835,3.744,3.283,6.7,4.909,6.85,1.66.149,2.986-.722,4.821-1.929a20.8,20.8,0,0,1,8.4-3.66,60.065,60.065,0,0,1,7.333-.8,10.409,10.409,0,0,0,2.729-.335c.31-1.647.078-8.173-.128-13.968-.306-8.591-.686-19.284-.169-27.753l.2-3.32c.943-15.72,1.262-21.015,4.888-22.052.848-.238,3.082-.868,19.477,15.959,7.842,8.048,17.5,18.889,21.072,25.176l.859,1.5c6.9,12.057,21.253,37.147,17.541,65.094-3.591,27.022-17.1,61.023-61.092,69.546A103.9,103.9,0,0,1,138.367,295.17Zm-36.9-136.142c-.233.709.045,3.33.362,6.338.412,3.91,1.036,9.82,1.37,18.322.74,18.846-1.1,41.62-1.12,41.848l-.061.32c-.032.1-3.1,10.017-5.956,17.542-3.02,7.961-4.056,19.7.438,27.977,3.747,6.9,14.687,20.79,41.9,20.792a100.6,100.6,0,0,0,19.119-1.979c42.235-8.183,55.226-40.949,58.687-66.995,3.58-26.943-10.435-51.437-17.171-63.209l-.861-1.508c-6.311-11.092-32.808-37.784-37.321-39.631-1.423,1.056-1.885,8.76-2.515,19.244l-.2,3.322c-.508,8.325-.13,18.938.173,27.464.478,13.463.4,15.282-.694,16.22-1.144.981-2.572,1.062-4.734,1.185a57.279,57.279,0,0,0-7,.757,17.994,17.994,0,0,0-7.261,3.209c-2.075,1.367-4.037,2.659-6.741,2.41-3.306-.3-4.994-3.747-7.331-8.517a65.5,65.5,0,0,0-6.735-11.481C111.288,164.135,103.449,159.139,101.462,159.028Zm59.171-40.257Z" fill="#2c2c2c"/><path d="M145.061,269.55a11.482,11.482,0,0,1-2.183-.216c-3.8-.73-7.732-3.147-7.407-6.732.092-1.015.226-2.011.358-2.863-2.542.591-6.279.84-7.725-2.195-.749-1.572-.444-3.859.858-6.44,2.233-4.43,7.371-9.46,13.813-10.713,5.966-1.158,11.287-.461,14.6,1.918a6.566,6.566,0,0,1,2.9,4.427,10.877,10.877,0,0,1-2.621,7.862,7.916,7.916,0,0,1-5.351,3.212l-.03,0a7.76,7.76,0,0,1,1.893,3.636,4.648,4.648,0,0,1-.9,3.64C151.024,268.056,148.275,269.55,145.061,269.55Zm-7.323-13.468a1.5,1.5,0,0,1,1.468,1.809,49.742,49.742,0,0,0-.747,4.983c-.142,1.551,2.478,3.032,4.985,3.514,3.031.584,5.384-.4,7.412-3.1a1.626,1.626,0,0,0,.345-1.336c-.282-1.689-2.609-3.6-3.4-4.139a1.5,1.5,0,0,1,.733-2.74l3.55-.253a5.186,5.186,0,0,0,3.238-2.115,8.055,8.055,0,0,0,1.972-5.571,3.669,3.669,0,0,0-1.672-2.387c-2.6-1.87-7.191-2.4-12.272-1.409-5.445,1.059-9.8,5.343-11.707,9.119-.937,1.857-1.091,3.247-.828,3.8.749,1.57,4.684.614,6.364-.064A1.5,1.5,0,0,1,137.738,256.082Z" fill="#2c2c2c"/><path d="M171.693,238.529c-3.586,0-7.068-2.608-9.867-7.415-2.762-4.742-4.6-11.165-5.174-18.088-1.237-14.912,3.7-27.084,11.239-27.71,7.5-.624,14.417,10.564,15.656,25.477h0c.574,6.922-.179,13.561-2.119,18.693-2.08,5.5-5.319,8.7-9.12,9.017C172.1,238.52,171.9,238.529,171.693,238.529Zm-3.214-50.237c-.115,0-.227,0-.34.014-5.049.42-9.668,10.353-8.5,24.472.538,6.487,2.234,12.462,4.775,16.826,2.311,3.967,5.106,6.119,7.642,5.91s4.938-2.8,6.562-7.089a41,41,0,0,0,1.935-17.384C179.41,197.237,173.463,188.292,168.479,188.292Z" fill="#2c2c2c"/><path d="M120.367,247.457c-7.3,0-13.846-10.988-15.053-25.5-1.238-14.913,3.7-27.084,11.239-27.71s14.417,10.565,15.655,25.477-3.7,27.084-11.238,27.71C120.769,247.449,120.567,247.457,120.367,247.457ZM117.14,197.22c-.114,0-.226,0-.339.014-5.05.42-9.669,10.353-8.5,24.473s7.32,23.143,12.417,22.735c5.049-.42,9.669-10.353,8.5-24.472C128.071,206.166,122.124,197.22,117.14,197.22Z" fill="#2c2c2c"/><path d="M176.94,214.95a16.668,16.668,0,0,0-1.54-6.92,1.236,1.236,0,0,0,.24-1.78c-3.82-5.39-8.52-2.65-10.56,2.55-2.09,5.3-2.61,12.86.53,17.9,2.38,3.84,8.41,6.51,11.38,1.67C178.84,225.34,178.49,219.37,176.94,214.95ZM174,217.13a23.086,23.086,0,0,0-3.4-1.99c.52-1.15,1.24-2.07,2.11-1.78.49.16.91,1.06,1.24,2.24.16.58.31,1.22.43,1.88A3.218,3.218,0,0,0,174,217.13Zm-1.13,7.09c-1.82,3.32-2.81-1.08-3.06-2.58a16.1,16.1,0,0,1-.13-3.18,1.988,1.988,0,0,1,.02-.22,5.109,5.109,0,0,1,2.71,1.83C172.73,220.58,173.23,223.56,172.87,224.22Zm-5.17-11.6a3.776,3.776,0,0,1,3.44-3.62,3.922,3.922,0,0,1,.75.45c-1.65.13-3.06,1.88-3.97,3.79A1.168,1.168,0,0,1,167.7,212.62Zm-1.15,3.92c.09.09.18.17.27.25a21.538,21.538,0,0,0-.13,3.91A19.934,19.934,0,0,1,166.55,216.54Z" fill="#2c2c2c"/><path d="M174.38,217.48a3.218,3.218,0,0,0-.38-.35c0-.51-.02-1.02-.05-1.53C174.11,216.18,174.26,216.82,174.38,217.48Z" fill="#2c2c2c"/><path d="M125.16,222.85a16.42,16.42,0,0,0-1.54-6.94,1.236,1.236,0,0,0,.24-1.78c-3.82-5.39-8.52-2.65-10.57,2.55-2.08,5.3-2.6,12.86.53,17.9,2.39,3.84,8.42,6.51,11.38,1.67C127.06,233.22,126.71,227.26,125.16,222.85Zm-2.94,2.17a20.839,20.839,0,0,0-3.41-2c.52-1.15,1.25-2.07,2.12-1.78.49.16.9,1.05,1.23,2.22a18.992,18.992,0,0,1,.44,1.9A2.489,2.489,0,0,0,122.22,225.02Zm-1.13,7.08c-1.82,3.32-2.81-1.08-3.06-2.58a15.373,15.373,0,0,1-.13-3.18,1.988,1.988,0,0,1,.02-.22,5.109,5.109,0,0,1,2.71,1.83C120.94,228.46,121.45,231.44,121.09,232.1Zm-5.17-11.6a3.776,3.776,0,0,1,3.44-3.62,3.922,3.922,0,0,1,.75.45c-1.65.13-3.06,1.87-3.98,3.78A1.209,1.209,0,0,1,115.92,220.5Zm-1.15,3.92a1.947,1.947,0,0,0,.26.24,22.536,22.536,0,0,0-.13,3.83A19.78,19.78,0,0,1,114.77,224.42Z" fill="#2c2c2c"/><path d="M122.6,225.36a2.489,2.489,0,0,0-.38-.34q0-.78-.06-1.56A18.992,18.992,0,0,1,122.6,225.36Z" fill="#2c2c2c"/></svg>