<svg viewBox="0 0 500 556" fill="none" xmlns="http://www.w3.org/2000/svg">
<path d="M446.421 56.216C446.108 59.4642 444.6 62.4804 442.189 64.679L423.048 44.238C434.369 36.567 442.004 44.538 442.325 44.87C442.362 44.919 446.879 50.091 446.421 56.216Z" fill="#A18ABA"/>
<path d="M193.7 225.792C193.705 226.036 193.662 226.278 193.574 226.506C193.485 226.733 193.352 226.94 193.183 227.116C193.014 227.292 192.812 227.433 192.589 227.531C192.365 227.629 192.125 227.681 191.881 227.686H191.844C191.598 227.685 191.355 227.639 191.126 227.549L193.687 225.52C193.7 225.669 193.7 225.755 193.7 225.792Z" fill="#2C2C2C"/>
<path d="M235.2 192.706C234.989 193.3 234.841 193.684 234.8 193.783C234.669 194.136 234.432 194.441 234.122 194.656C233.813 194.87 233.444 194.985 233.068 194.983C232.854 194.979 232.641 194.946 232.437 194.883L235.2 192.706Z" fill="#2C2C2C"/>
<path d="M236.272 189.477V189.489L235.196 190.33L236.272 189.477Z" fill="#2C2C2C"/>
<path d="M411.182 48.7919L408.039 51.2789C405.849 50.0662 403.605 48.9566 401.308 47.9499C375.744 36.8139 338.934 29.0559 299.945 20.8499C227.2 5.52191 218.962 5.93091 205.809 9.35791C195.997 11.9069 190.677 16.9919 188.66 19.3309C188.316 19.7213 187.994 20.1303 187.695 20.5559C187.563 20.7612 187.393 20.9386 187.193 21.0778C186.993 21.217 186.768 21.3153 186.529 21.367C186.291 21.4188 186.045 21.423 185.806 21.3794C185.566 21.3358 185.337 21.2452 185.133 21.1129C184.838 20.929 184.602 20.6646 184.453 20.3509C184.304 20.0373 184.248 19.6875 184.292 19.3429C184.316 19.0647 184.41 18.797 184.564 18.5639C184.799 18.1929 190.454 9.53091 204.881 5.76991C218.653 2.16991 227.153 1.72391 300.713 17.2149C339.887 25.4679 376.883 33.2629 402.793 44.5479C405.667 45.8032 408.468 47.2201 411.182 48.7919V48.7919Z" fill="#2C2C2C"/>
<path d="M125.543 313.866L123.749 321.401C123.749 321.414 123.737 321.438 123.737 321.451L123.588 321.574L93.0507 328.367L90.8857 325.707L99.8187 301.035L107.268 300.552L105.8 306.33C105.725 306.631 105.727 306.946 105.805 307.246C105.883 307.547 106.034 307.823 106.246 308.05C106.454 308.278 106.716 308.449 107.008 308.549C107.3 308.648 107.612 308.673 107.916 308.62L116.268 307.172L114.858 312.814C114.783 313.11 114.782 313.419 114.856 313.715C114.929 314.011 115.075 314.284 115.279 314.511C115.483 314.737 115.74 314.91 116.027 315.013C116.314 315.116 116.622 315.147 116.924 315.103L125.543 313.866Z" fill="#FAE33F"/>
<path d="M193.683 225.52C193.696 225.669 193.696 225.755 193.696 225.792C193.701 226.036 193.658 226.278 193.57 226.506C193.481 226.733 193.348 226.94 193.179 227.116C193.01 227.292 192.808 227.433 192.585 227.531C192.362 227.629 192.121 227.681 191.877 227.686H191.84C191.594 227.685 191.351 227.639 191.122 227.549L193.683 225.52Z" fill="#FAE33F"/>
<path d="M235.2 192.706C234.989 193.3 234.841 193.684 234.8 193.783C234.669 194.136 234.432 194.441 234.122 194.656C233.813 194.87 233.444 194.985 233.068 194.983C232.854 194.979 232.641 194.946 232.437 194.883L235.2 192.706Z" fill="#FAE33F"/>
<path d="M235.2 190.33L236.276 189.489V189.477L235.2 190.33ZM444.726 67.389C444.268 67.834 443.785 68.268 443.278 68.701L444.8 67.476L444.726 67.389ZM420.449 41.467L419.113 42.531C419.571 42.172 420.029 41.831 420.486 41.516L420.449 41.467ZM235.2 190.33L236.276 189.489V189.477L235.2 190.33Z" fill="#2C2C2C"/>
<path d="M448.351 92.915C445.721 85.8779 442.177 79.2174 437.809 73.105L443.278 68.705C443.785 68.272 444.268 67.838 444.726 67.393C447.835 64.5528 449.764 60.6494 450.133 56.455C450.677 48.746 445.32 42.655 445.072 42.386C441.484 38.464 431.882 33.465 420.486 41.52C420.029 41.83 419.571 42.176 419.113 42.535L411.182 48.796L408.039 51.283L261.811 166.92C245.75 150.971 235.295 149.82 224.295 148.608C221.944 148.348 219.531 148.088 217.056 147.667C201.825 145.056 187.249 136.185 165.682 116.227C167.397 115.847 169.059 115.261 170.632 114.482C170.846 114.366 171.034 114.209 171.187 114.019C171.34 113.83 171.454 113.613 171.523 113.38C171.592 113.146 171.615 112.902 171.589 112.66C171.563 112.418 171.49 112.184 171.374 111.97C171.258 111.756 171.101 111.568 170.912 111.415C170.722 111.262 170.505 111.148 170.272 111.079C170.039 111.01 169.794 110.988 169.552 111.013C169.31 111.039 169.076 111.112 168.862 111.228C168.788 111.265 161.178 115.228 147.221 112.928C133.697 110.688 130.963 108.77 130.938 108.77C130.585 108.448 130.122 108.274 129.644 108.285C129.166 108.296 128.711 108.491 128.373 108.829C128.035 109.167 127.84 109.622 127.83 110.1C127.819 110.578 127.993 111.041 128.315 111.394C128.451 111.53 141.369 125.821 141.369 145.631C141.369 165.91 138.845 177.356 138.82 177.467C138.766 177.709 138.761 177.96 138.806 178.205C138.851 178.449 138.944 178.682 139.08 178.89C139.191 179.076 150.81 196.881 154.373 208.636C158.048 220.799 157.751 234.669 156.229 243.603C154.769 252.252 139.352 264.674 134.415 265.083C129.169 265.516 125.147 263.994 122.598 255.221C119.839 245.731 119.468 243.405 119.456 243.33C119.424 243.084 119.339 242.848 119.208 242.638C114.015 233.025 110.109 222.77 107.59 212.138C103.024 193.538 99.4971 174.078 99.4601 173.88C99.4292 173.703 99.3708 173.532 99.2871 173.373C99.1761 173.15 88.3741 151.732 86.1961 137.173C84.8827 128.524 84.6624 119.745 85.5401 111.041C85.5672 110.852 85.5631 110.66 85.5281 110.472C85.5031 110.323 82.9421 94.349 91.1831 86.183C100.054 77.373 119.901 67.561 132.163 64.257C144.277 60.991 173.363 60.174 173.663 60.174C174.154 60.1572 174.619 59.948 174.957 59.5913C175.295 59.2347 175.48 58.7593 175.47 58.268C175.467 58.0231 175.415 57.7814 175.317 57.5571C175.219 57.3328 175.077 57.1304 174.899 56.962C174.721 56.7936 174.512 56.6626 174.282 56.5767C174.053 56.4908 173.809 56.4518 173.564 56.462C172.735 56.474 159.264 56.862 146.776 58.169C146.576 58.615 146.467 58.862 146.454 58.887C146.311 59.22 146.072 59.5033 145.769 59.7014C145.465 59.8996 145.11 60.0038 144.747 60.001C144.496 60.0057 144.247 59.9548 144.017 59.852C143.757 59.74 143.526 59.5687 143.343 59.3519C143.161 59.1351 143.031 58.8786 142.965 58.603C139.002 59.0279 135.072 59.7144 131.2 60.658C118.492 64.085 97.8541 74.318 88.5741 83.536C79.5041 92.536 81.4741 108.407 81.8301 110.807C80.9306 119.768 81.1678 128.806 82.5361 137.707C84.6891 152.171 94.5751 172.228 95.8621 174.807C96.2951 177.22 99.6851 195.495 103.991 213.016C106.565 223.894 110.55 234.389 115.845 244.234C116.045 245.224 116.723 248.292 119.037 256.261C121.549 264.872 125.867 268.832 132.937 268.844L97.7531 296.654L97.3321 296.989L83.8581 334.208L125.246 325L178.5 282.079C179.861 288.656 183.585 294.506 188.968 298.523C197.852 305.523 210.881 308.718 221.139 308.718C222.913 308.726 224.686 308.623 226.447 308.409C239.686 306.714 267.403 303.633 304.226 301.963C333.192 300.639 337.485 296.63 370.831 265.486C379.963 256.948 391.331 246.32 406.046 233.117C441.557 201.217 451.184 164.841 453.015 139.934C454.983 112.948 448.648 93.769 448.351 92.915ZM442.325 44.87C442.362 44.919 446.879 50.091 446.425 56.216C446.113 59.4642 444.604 62.4804 442.193 64.679L423.048 44.238C434.369 36.567 442 44.535 442.325 44.87ZM258.891 169.222L237.2 186.371C239.205 179.318 241.382 168.863 239.143 162.379C237.543 157.779 235.072 155.054 232.177 153.458C239.9 154.967 247.891 158.382 258.891 169.222ZM183.921 136.322C195.861 144.996 205.945 149.537 216.421 151.322C216.681 151.372 216.929 151.409 217.176 151.446C210.259 152.275 205.125 161.06 201.437 169.759C198.532 167.769 195.503 165.967 192.368 164.364C188.922 162.626 185.176 161.564 181.331 161.233C182.547 152.852 183.512 141.542 183.921 136.321V136.322ZM180.753 164.922C184.21 165.175 187.582 166.108 190.677 167.668C193.793 169.265 196.802 171.063 199.684 173.051C199.794 173.134 199.915 173.201 200.043 173.251C199.643 174.241 199.288 175.231 198.943 176.183C196.01 184.238 198.275 192.912 198.374 193.271C198.437 193.507 198.545 193.728 198.693 193.921C198.841 194.115 199.026 194.278 199.237 194.4C199.447 194.522 199.68 194.602 199.922 194.634C200.163 194.667 200.409 194.651 200.645 194.588C200.88 194.526 201.101 194.418 201.295 194.27C201.489 194.122 201.651 193.937 201.774 193.726C201.896 193.515 201.976 193.282 202.008 193.041C202.04 192.799 202.025 192.554 201.962 192.318C201.937 192.232 199.908 184.387 202.42 177.445C204.412 171.976 210.475 155.322 218.097 155.087C226.82 154.839 232.759 155.272 235.63 163.6C238.154 170.9 233.823 185.2 232.042 190.475L193.411 221C193.032 215.767 192.108 210.587 190.652 205.546C187.831 196.587 175.532 183.846 174.999 183.298C174.828 183.127 174.627 182.988 174.406 182.89C177.165 176.741 179.751 170.183 180.592 165.753C180.642 165.485 180.691 165.213 180.753 164.916V164.922ZM236.272 189.483V189.495L235.196 190.336L236.272 189.483ZM142.606 177.5C143.188 174.568 145.081 163.593 145.081 145.627C145.081 131.645 139.253 120.41 135.095 114.198C137.768 114.916 141.48 115.745 146.615 116.586C151.407 117.427 156.293 117.586 161.129 117.057C168.182 123.676 174.529 129.17 180.394 133.686C180.159 136.879 178.711 155.76 176.942 165.065C175.049 175.026 163.171 197.582 163.042 197.805C162.927 198.021 162.856 198.257 162.833 198.501C162.81 198.744 162.835 198.99 162.908 199.224C162.98 199.457 163.098 199.674 163.255 199.862C163.412 200.049 163.604 200.204 163.821 200.317C164.084 200.457 164.377 200.529 164.675 200.527C165.012 200.527 165.343 200.437 165.633 200.265C165.922 200.093 166.16 199.846 166.321 199.55C166.568 199.067 169.587 193.338 172.821 186.397C175.097 188.81 184.848 199.475 187.112 206.664C188.675 212.254 189.605 218.003 189.884 223.801L158.27 248.795C159.043 247.361 159.589 245.817 159.891 244.217C161.474 234.875 161.784 220.337 157.923 207.555C154.559 196.455 144.784 180.9 142.606 177.5ZM123.749 321.4C123.749 321.413 123.737 321.437 123.737 321.45L123.588 321.573L93.0511 328.366L90.8861 325.706L99.8191 301.034L107.268 300.551L105.8 306.33C105.726 306.631 105.727 306.946 105.805 307.246C105.883 307.547 106.035 307.823 106.246 308.05C106.454 308.278 106.716 308.449 107.008 308.549C107.3 308.648 107.612 308.673 107.916 308.62L116.268 307.172L114.858 312.814C114.783 313.11 114.783 313.419 114.856 313.715C114.93 314.011 115.075 314.284 115.279 314.511C115.484 314.737 115.741 314.91 116.028 315.013C116.314 315.116 116.622 315.147 116.924 315.103L125.548 313.866L123.749 321.4ZM177.981 277.735L128.463 317.651L129.787 312.071C129.854 311.776 129.85 311.47 129.774 311.177C129.699 310.884 129.555 310.614 129.354 310.388C129.15 310.165 128.895 309.995 128.61 309.894C128.325 309.792 128.02 309.762 127.721 309.806L119.121 311.031L120.556 305.302C120.63 305.002 120.63 304.688 120.554 304.388C120.479 304.089 120.331 303.812 120.123 303.583C119.911 303.357 119.646 303.188 119.352 303.091C119.058 302.994 118.745 302.971 118.44 303.026L110.1 304.473L111.5 298.992C111.571 298.709 111.573 298.413 111.508 298.129C111.443 297.845 111.311 297.58 111.124 297.356C110.938 297.132 110.701 296.955 110.433 296.839C110.165 296.724 109.873 296.674 109.582 296.692L103.16 297.1L191.122 227.549L193.683 225.52L232.437 194.884L235.196 192.706L261.496 171.894L264.417 169.58L411.479 53.308L414.56 50.871L420.078 46.503L439.356 67.092L435.582 70.136L432.7 72.462L281.188 194.562L278.107 197.049L208.322 253.286L202.915 257.641L181.793 274.667L177.981 277.735ZM280.829 223.8C280.784 223.97 280.763 224.145 280.767 224.32C272.006 235.82 265.152 246.072 265.053 246.22C265.023 246.263 264.998 246.308 264.978 246.356C243.313 250.402 231.273 254.621 228.403 255.698C228.056 255.598 227.673 255.512 227.264 255.426C225.47 255.054 222.377 254.473 218.071 253.726C216.908 253.526 215.621 253.38 214.235 253.281L279.369 200.8C280.165 203.469 280.756 206.195 281.138 208.954C281.905 213.883 281.801 218.908 280.829 223.8ZM449.292 139.822C447.5 164 438.106 199.338 403.56 230.358C388.823 243.585 377.44 254.226 368.296 262.776C335.135 293.759 331.658 296.989 304.053 298.251C267.094 299.933 239.279 303.027 225.978 304.722C216.314 305.959 200.872 303.175 191.27 295.603C185.752 291.26 182.584 285.815 181.83 279.403L209.694 256.945H209.719L209.731 256.933C212.309 256.828 214.891 256.978 217.44 257.379C224.975 258.69 227.029 259.16 227.574 259.309C227.908 259.487 228.288 259.557 228.663 259.509C228.824 259.486 228.982 259.445 229.133 259.385C229.541 259.224 249.178 251.615 287.733 246.48C288.22 246.416 288.662 246.161 288.962 245.771C289.261 245.381 289.393 244.888 289.329 244.401C289.265 243.914 289.01 243.472 288.62 243.172C288.23 242.873 287.737 242.741 287.25 242.805C281.027 243.634 275.31 244.525 270.076 245.44C274.704 238.697 286.916 221.362 298.188 209.013L312.653 193.163C312.977 192.799 313.145 192.322 313.12 191.835C313.096 191.348 312.881 190.891 312.522 190.561C312.163 190.231 311.689 190.056 311.202 190.073C310.714 190.089 310.253 190.297 309.918 190.651L295.442 206.5C292.064 210.2 288.611 214.345 285.283 218.515C285.626 211.646 284.69 204.774 282.524 198.247L434.914 75.447C439.028 81.2251 442.372 87.5143 444.862 94.156C444.924 94.35 451.247 113.542 449.292 139.822V139.822Z" fill="#2C2C2C"/>
<path d="M439.356 67.0919L435.582 70.1359L432.7 72.4619L281.188 194.562L278.107 197.049L208.322 253.286L202.915 257.641L181.793 274.667L177.982 277.736L128.464 317.652L129.788 312.072C129.855 311.777 129.851 311.471 129.775 311.178C129.7 310.885 129.556 310.615 129.355 310.389C129.151 310.166 128.896 309.996 128.611 309.895C128.326 309.793 128.021 309.763 127.722 309.807L119.122 311.032L120.557 305.303C120.631 305.003 120.631 304.689 120.555 304.389C120.48 304.09 120.332 303.813 120.124 303.584C119.912 303.358 119.647 303.189 119.353 303.092C119.059 302.995 118.746 302.972 118.441 303.027L110.101 304.474L111.501 298.993C111.571 298.71 111.574 298.414 111.509 298.13C111.444 297.846 111.312 297.581 111.125 297.357C110.939 297.133 110.702 296.956 110.434 296.84C110.166 296.725 109.874 296.675 109.583 296.693L103.161 297.101L191.123 227.55C191.352 227.639 191.595 227.686 191.841 227.687H191.878C192.122 227.682 192.363 227.63 192.586 227.532C192.81 227.434 193.012 227.293 193.18 227.117C193.349 226.941 193.482 226.734 193.571 226.507C193.659 226.279 193.702 226.037 193.697 225.793C193.697 225.756 193.697 225.67 193.684 225.521L232.438 194.885C232.643 194.947 232.855 194.981 233.069 194.985C233.446 194.986 233.814 194.872 234.124 194.658C234.434 194.443 234.67 194.138 234.801 193.785C234.838 193.685 234.986 193.302 235.201 192.708L261.501 171.896L264.422 169.582L411.479 53.3079L414.56 50.8709L420.078 46.5029L439.356 67.0919Z" fill="#FAE33F"/>
<path d="M197.37 21.9539C197.343 22.1951 197.269 22.4288 197.152 22.6414C197.035 22.854 196.877 23.0415 196.687 23.1932C196.498 23.3448 196.28 23.4577 196.047 23.5252C195.814 23.5928 195.57 23.6137 195.329 23.5869C182.857 22.2259 177.375 23.1049 167.415 28.0869C158.667 32.4549 148.669 53.9349 146.776 58.1539C146.576 58.5999 146.467 58.8469 146.454 58.8719C146.31 59.2049 146.072 59.4882 145.768 59.6864C145.464 59.8845 145.109 59.9887 144.747 59.9859C144.495 59.9906 144.246 59.9397 144.017 59.8369C143.756 59.7249 143.525 59.5537 143.343 59.3369C143.16 59.12 143.031 58.8636 142.965 58.5879C142.851 58.1942 142.882 57.7729 143.052 57.3999C143.522 56.2999 154.88 30.1999 165.757 24.7589C172.772 21.2449 177.845 19.6119 184.292 19.3389C185.665 19.2769 187.113 19.2769 188.66 19.3269C190.8 19.4139 193.126 19.6119 195.725 19.8959C195.968 19.9219 196.204 19.9959 196.419 20.1136C196.634 20.2313 196.823 20.3905 196.976 20.5819C197.129 20.7732 197.243 20.993 197.31 21.2285C197.378 21.464 197.398 21.7106 197.37 21.9539V21.9539Z" fill="#2C2C2C"/>
<path d="M146.776 58.158C146.576 58.604 146.467 58.851 146.454 58.876C146.31 59.209 146.072 59.4923 145.768 59.6904C145.465 59.8886 145.109 59.9928 144.747 59.99C144.496 59.9947 144.246 59.9438 144.017 59.841C143.756 59.729 143.526 59.5577 143.343 59.3409C143.16 59.1241 143.031 58.8676 142.965 58.592C144.215 58.431 145.489 58.282 146.776 58.158Z" fill="#2C2C2C"/>
<path d="M80.8123 346.917C69.6461 367.498 52.9624 419.038 75.5576 460.55C103.802 512.44 186.563 473.686 187.877 436.903C189.19 400.121 171.456 380.235 135.987 389.611C111.188 396.167 76.8715 473.686 171.456 525.576C247.123 567.088 328.658 485.947 359.968 440.188" stroke="#00B0BB" stroke-width="4" stroke-linecap="round" stroke-linejoin="round"/>
</svg>
