<svg xmlns="http://www.w3.org/2000/svg"  viewBox="0 0 300 300"><path d="M141.9,177.28c-2.38-4.74-3.05-11.46-2.08-17.26a15.018,15.018,0,0,1-2.59-3.67,44.031,44.031,0,0,0-.26,8.43c.28,4.23,1.22,8.65,3.73,12.16a13.016,13.016,0,0,0,4.59,4.07A9.846,9.846,0,0,1,141.9,177.28Zm-.58-33.54c2.68-1.46,5.97-2.63,8.5-1.75C147.12,139.4,143.53,140.92,141.32,143.74Zm9.4,27.18c-.32-4.54-.92-6.91-5.99-8.67-.66-.23-1.35-.26-2.04-.43a38.413,38.413,0,0,0,.18,7.2,26.714,26.714,0,0,0,.84,4.71q.705,5.25,6.77,3.5C151.32,175.96,150.82,172.31,150.72,170.92Zm-.12-23.17c-3.87-6.21-11.94-.3-11.5,5.34a5.176,5.176,0,0,0,1.55,3.43,20.568,20.568,0,0,1,.73-2c2.03-4.75,6.63-7.98,10.09-4.54A7.688,7.688,0,0,0,150.6,147.75Zm2.02,11.1c-.53-2.03-1.26-4.35-2.28-5.36-3.95-3.92-5.86.9-6.74,3.61-.12.36-.22.72-.31,1.08,1.32.57,2.76.95,4,1.37,3.23,1.12,4.58,2.4,5.44,5.41A56.54,56.54,0,0,0,152.62,158.85Zm1.88,9.09a1.6,1.6,0,0,1-1.12-.11c.69,3.64,1.08,8.16-.38,11.35a6.4,6.4,0,0,1-.52.94c1.46-1.45,1.93-3.64,2.12-5.72A31.741,31.741,0,0,0,154.5,167.94Zm0,0a1.6,1.6,0,0,1-1.12-.11c.69,3.64,1.08,8.16-.38,11.35a6.4,6.4,0,0,1-.52.94c1.46-1.45,1.93-3.64,2.12-5.72A31.741,31.741,0,0,0,154.5,167.94ZM143.6,157.1c-.12.36-.22.72-.31,1.08,1.32.57,2.76.95,4,1.37,3.23,1.12,4.58,2.4,5.44,5.41a56.54,56.54,0,0,0-.11-6.11c-.53-2.03-1.26-4.35-2.28-5.36C146.39,149.57,144.48,154.39,143.6,157.1Zm-2.95-.58a20.568,20.568,0,0,1,.73-2c2.03-4.75,6.63-7.98,10.09-4.54a7.688,7.688,0,0,0-.87-2.23c-3.87-6.21-11.94-.3-11.5,5.34A5.176,5.176,0,0,0,140.65,156.52Zm4.08,5.73c-.66-.23-1.35-.26-2.04-.43a38.413,38.413,0,0,0,.18,7.2,26.714,26.714,0,0,0,.84,4.71q.705,5.25,6.77,3.5c.84-1.27.34-4.92.24-6.31C150.4,166.38,149.8,164.01,144.73,162.25Zm5.09-20.26c-2.7-2.59-6.29-1.07-8.5,1.75C144,142.28,147.29,141.11,149.82,141.99Zm-7.92,35.29c-2.38-4.74-3.05-11.46-2.08-17.26a15.018,15.018,0,0,1-2.59-3.67,44.031,44.031,0,0,0-.26,8.43c.28,4.23,1.22,8.65,3.73,12.16a13.016,13.016,0,0,0,4.59,4.07A9.846,9.846,0,0,1,141.9,177.28Zm105.65-74.36c-3.23-3.11-7.71-5.52-13.34-7.17-12.47-3.65-27.19-2.82-42.56,2.42a149.049,149.049,0,0,0-22.63,10.18c-1.81.97-3.62,2.12-5.55,3.33a55.177,55.177,0,0,1-11.08,5.89,2,2,0,0,1-2.04-3.34c3.71-3.57,5.55-9.95,7.18-15.57.58-2.02,1.13-3.93,1.74-5.64,4.58-12.77,5.13-26.13,1.54-37.62-4.56-14.6-16.28-26.48-29.87-30.28-14.57-4.08-30.98,1.49-38.99,13.24-4.06,5.95-6.41,13.78-6.98,23.28a79.7,79.7,0,0,0,26.32,63.19c4.02,3.54,7.6,5.72,11.01,6.68,1.27.18,2.54.38,3.8.58l.03.01a1.484,1.484,0,0,1,1.27,1.61,1.5,1.5,0,0,1-1.49,1.37h-.05a17.693,17.693,0,0,1-4.14-.62,211.864,211.864,0,0,0-45.44-1.56c-9.41.69-21.12,1.55-25.59,11.53a18.83,18.83,0,0,0,.06,14.66c3.33,8.23,10.77,14.43,22.74,18.94,3.77,1.42,7.73,2.61,11.56,3.75,4.61,1.38,9.37,2.8,13.92,4.67a1.5,1.5,0,0,1-.22,2.85c-15.69,3.7-33.08,8.83-40.93,22.77-3.14,5.59-4.67,12.55-4.65,21.29.01,10.6,2.63,18.42,7.77,23.25,7.45,6.99,19.35,6.83,27.66,6.09,6.86-.61,14.7-1.79,20.83-5.91,5.38-3.61,9.15-9.21,12.55-14.63,1.39-2.21,2.75-4.45,4.09-6.7a105.371,105.371,0,0,1,2.87-25.45c.64-2.71,1.52-5.78,3.82-7.94a7.345,7.345,0,0,1,7.34-1.65,5.611,5.611,0,0,1,3.55,5.14,9,9,0,0,1-.87,4.56c-4.12,8.89-8.72,17.65-13.7,26.14v.17c.25,13.12,3.39,23.26,9.35,30.16,6.05,6.99,15.92,11.45,27.1,12.21,12.31.85,23.92-2.77,31.85-9.93,12.29-11.11,15.04-29.64,16.03-42.62.62-8.07.86-16.65-1.54-24.69-3.09-10.3-9.99-18.49-17.29-27.15a147.427,147.427,0,0,1-12.04-15.68,1.5,1.5,0,0,1,2.34-1.86c5.91,6.01,15.14,9.12,24.71,8.3,8.29-.72,16.75-4.13,25.13-10.15,6.65-4.78,15.31-12.81,18.79-23.96C256.73,120.77,254.33,109.46,247.55,102.92Zm-90.27,73.87c-1.28,6.27-7.04,9.65-13.1,6.98-6.63-2.92-9.41-10.78-10.08-17.45-.85-8.47.45-18.65,5.47-25.77,3.94-5.59,10.64-4.04,13.97,1.36a1.459,1.459,0,0,1-1.15,2.2,7.5,7.5,0,0,1,.42.8,38.281,38.281,0,0,1,2.86,13.5C157.63,164.36,158.43,171.15,157.28,176.79Zm-3.9-8.96c.69,3.64,1.08,8.16-.38,11.35a6.4,6.4,0,0,1-.52.94c1.46-1.45,1.93-3.64,2.12-5.72a31.741,31.741,0,0,0-.1-6.46A1.6,1.6,0,0,1,153.38,167.83ZM143.6,157.1c-.12.36-.22.72-.31,1.08,1.32.57,2.76.95,4,1.37,3.23,1.12,4.58,2.4,5.44,5.41a56.54,56.54,0,0,0-.11-6.11c-.53-2.03-1.26-4.35-2.28-5.36C146.39,149.57,144.48,154.39,143.6,157.1Zm-2.95-.58a20.568,20.568,0,0,1,.73-2c2.03-4.75,6.63-7.98,10.09-4.54a7.688,7.688,0,0,0-.87-2.23c-3.87-6.21-11.94-.3-11.5,5.34A5.176,5.176,0,0,0,140.65,156.52Zm4.08,5.73c-.66-.23-1.35-.26-2.04-.43a38.413,38.413,0,0,0,.18,7.2,26.714,26.714,0,0,0,.84,4.71q.705,5.25,6.77,3.5c.84-1.27.34-4.92.24-6.31C150.4,166.38,149.8,164.01,144.73,162.25Zm5.09-20.26c-2.7-2.59-6.29-1.07-8.5,1.75C144,142.28,147.29,141.11,149.82,141.99Zm-7.92,35.29c-2.38-4.74-3.05-11.46-2.08-17.26a15.018,15.018,0,0,1-2.59-3.67,44.031,44.031,0,0,0-.26,8.43c.28,4.23,1.22,8.65,3.73,12.16a13.016,13.016,0,0,0,4.59,4.07A9.846,9.846,0,0,1,141.9,177.28Z" fill="#00b0bb"/><path d="M249.63,100.76c-3.58-3.45-8.48-6.11-14.57-7.89-13.08-3.83-28.42-2.98-44.38,2.46A152.843,152.843,0,0,0,167.6,105.7c-1.9,1.02-3.85,2.26-5.73,3.45-2.23,1.41-4.52,2.85-6.83,4.02,2.57-3.98,4.04-9.07,5.37-13.68.57-1.97,1.11-3.84,1.69-5.46,4.8-13.38,5.36-27.41,1.57-39.52-4.92-15.78-17.16-28.15-31.92-32.28-15.78-4.42-33.56,1.66-42.28,14.44-4.37,6.41-6.89,14.75-7.49,24.79a82.732,82.732,0,0,0,27.33,65.62,48.79,48.79,0,0,0,4.21,3.36,214.032,214.032,0,0,0-37.46-.53c-9.67.7-22.91,1.67-28.1,13.3a21.794,21.794,0,0,0,.01,17c3.61,8.93,11.84,15.87,24.46,20.63,3.87,1.46,7.88,2.66,11.76,3.82,3.02.9,6.11,1.82,9.14,2.87-14.96,3.82-30.49,9.51-38.12,23.06-3.41,6.06-5.06,13.51-5.04,22.78.01,11.45,2.95,20.01,8.72,25.43,8.33,7.82,21.09,7.68,29.98,6.89,7.23-.64,15.54-1.91,22.24-6.41,5.86-3.94,9.84-9.83,13.41-15.52.59-.94,1.18-1.89,1.76-2.84.84,11.72,4.16,21,9.88,27.63,6.57,7.6,17.2,12.43,29.17,13.25,1.24.08,2.48.13,3.71.13,11.72-.01,22.63-3.86,30.35-10.84,13.09-11.82,15.98-31.12,17.01-44.61.64-8.36.89-17.27-1.66-25.78-3.26-10.9-10.69-19.71-17.86-28.23-2.2-2.6-4.43-5.25-6.56-7.98a36.23,36.23,0,0,0,19.52,3.66c8.85-.75,17.8-4.35,26.63-10.69,7.02-5.05,16.18-13.57,19.91-25.5C259.92,120.61,257.21,108.07,249.63,100.76ZM129.16,230.11a102.411,102.411,0,0,1,2.7-19.4c.54-2.29,1.26-4.87,2.96-6.46a4.654,4.654,0,0,1,3.07-1.22,3.038,3.038,0,0,1,1.14.2,2.734,2.734,0,0,1,1.63,2.59,5.957,5.957,0,0,1-.6,3.04C136.72,216.06,133.07,223.17,129.16,230.11Zm124.35-99.05c-3.48,11.15-12.14,19.18-18.79,23.96-8.38,6.02-16.84,9.43-25.13,10.15-9.57.82-18.8-2.29-24.71-8.3a1.5,1.5,0,0,0-2.34,1.86,147.427,147.427,0,0,0,12.04,15.68c7.3,8.66,14.2,16.85,17.29,27.15,2.4,8.04,2.16,16.62,1.54,24.69-.99,12.98-3.74,31.51-16.03,42.62-7.93,7.16-19.54,10.78-31.85,9.93-11.18-.76-21.05-5.22-27.1-12.21-5.96-6.9-9.1-17.04-9.35-30.16v-.17c4.98-8.49,9.58-17.25,13.7-26.14a9,9,0,0,0,.87-4.56,5.611,5.611,0,0,0-3.55-5.14,7.345,7.345,0,0,0-7.34,1.65c-2.3,2.16-3.18,5.23-3.82,7.94a105.371,105.371,0,0,0-2.87,25.45c-1.34,2.25-2.7,4.49-4.09,6.7-3.4,5.42-7.17,11.02-12.55,14.63-6.13,4.12-13.97,5.3-20.83,5.91-8.31.74-20.21.9-27.66-6.09-5.14-4.83-7.76-12.65-7.77-23.25-.02-8.74,1.51-15.7,4.65-21.29C65.67,198.13,83.06,193,98.75,189.3a1.5,1.5,0,0,0,.22-2.85c-4.55-1.87-9.31-3.29-13.92-4.67-3.83-1.14-7.79-2.33-11.56-3.75-11.97-4.51-19.41-10.71-22.74-18.94a18.83,18.83,0,0,1-.06-14.66c4.47-9.98,16.18-10.84,25.59-11.53a211.864,211.864,0,0,1,45.44,1.56,17.693,17.693,0,0,0,4.14.62h.05a1.5,1.5,0,0,0,1.49-1.37,1.484,1.484,0,0,0-1.27-1.61l-.03-.01c-1.26-.2-2.53-.4-3.8-.58-3.41-.96-6.99-3.14-11.01-6.68A79.7,79.7,0,0,1,84.97,61.64c.57-9.5,2.92-17.33,6.98-23.28,8.01-11.75,24.42-17.32,38.99-13.24,13.59,3.8,25.31,15.68,29.87,30.28,3.59,11.49,3.04,24.85-1.54,37.62-.61,1.71-1.16,3.62-1.74,5.64-1.63,5.62-3.47,12-7.18,15.57a2,2,0,0,0,2.04,3.34,55.177,55.177,0,0,0,11.08-5.89c1.93-1.21,3.74-2.36,5.55-3.33a149.049,149.049,0,0,1,22.63-10.18c15.37-5.24,30.09-6.07,42.56-2.42,5.63,1.65,10.11,4.06,13.34,7.17C254.33,109.46,256.73,120.77,253.51,131.06Z" fill="#2c2c2c"/><path d="M155.67,158.41a38.281,38.281,0,0,0-2.86-13.5,7.5,7.5,0,0,0-.42-.8,1.459,1.459,0,0,0,1.15-2.2c-3.33-5.4-10.03-6.95-13.97-1.36-5.02,7.12-6.32,17.3-5.47,25.77.67,6.67,3.45,14.53,10.08,17.45,6.06,2.67,11.82-.71,13.1-6.98C158.43,171.15,157.63,164.36,155.67,158.41Zm-3.05.44a56.54,56.54,0,0,1,.11,6.11c-.86-3.01-2.21-4.29-5.44-5.41-1.24-.42-2.68-.8-4-1.37.09-.36.19-.72.31-1.08.88-2.71,2.79-7.53,6.74-3.61C151.36,154.5,152.09,156.82,152.62,158.85Zm-2.14,18.38q-6.06,1.755-6.77-3.5a26.714,26.714,0,0,1-.84-4.71,38.413,38.413,0,0,1-.18-7.2c.69.17,1.38.2,2.04.43,5.07,1.76,5.67,4.13,5.99,8.67C150.82,172.31,151.32,175.96,150.48,177.23Zm.12-29.48a7.688,7.688,0,0,1,.87,2.23c-3.46-3.44-8.06-.21-10.09,4.54a20.568,20.568,0,0,0-.73,2,5.176,5.176,0,0,1-1.55-3.43C138.66,147.45,146.73,141.54,150.6,147.75Zm-.78-5.76c-2.53-.88-5.82.29-8.5,1.75C143.53,140.92,147.12,139.4,149.82,141.99Zm-9.12,34.95c-2.51-3.51-3.45-7.93-3.73-12.16a44.031,44.031,0,0,1,.26-8.43,15.018,15.018,0,0,0,2.59,3.67c-.97,5.8-.3,12.52,2.08,17.26a9.846,9.846,0,0,0,3.39,3.73A13.016,13.016,0,0,1,140.7,176.94Zm13.9-2.54c-.19,2.08-.66,4.27-2.12,5.72a6.4,6.4,0,0,0,.52-.94c1.46-3.19,1.07-7.71.38-11.35a1.6,1.6,0,0,0,1.12.11A31.741,31.741,0,0,1,154.6,174.4Z" fill="#2c2c2c"/></svg>