
<svg xmlns="http://www.w3.org/2000/svg" viewBox="0 0 300 300"><path d="M154.77,255.97a131.394,131.394,0,0,0,10.51,23.73,1.763,1.763,0,0,0,.23,0C164.02,276.07,160.19,267,154.77,255.97Zm14.09,23.94a.405.405,0,0,1-.05-.09c.08.21.14.37.18.46a1.107,1.107,0,0,1,.07.26A1.456,1.456,0,0,0,168.86,279.91Z" fill="#2c2c2c"/><path d="M145.35,114.78a1.641,1.641,0,0,0-.23.02.06.06,0,0,0-.04.01c-.1-.07-.21-.14-.31-.21A2.751,2.751,0,0,1,145.35,114.78Z" fill="#2c2c2c"/><path d="M148.38,118.13c-.04.02-.07.04-.11.06a.974.974,0,0,0,.05-.11A.265.265,0,0,1,148.38,118.13Z" fill="#2c2c2c"/><path d="M132.77,118.57a.615.615,0,0,0-.13-.01c-.08-.09-.17-.19-.26-.28C132.52,118.38,132.65,118.48,132.77,118.57Z" fill="#2c2c2c"/><path d="M141.95,84.51c1.13,1.9,3.85,7.5,2.82,10.6a2.787,2.787,0,0,1-1.71,1.79,4.5,4.5,0,0,1-3.66.09,7.6,7.6,0,0,1-3.14-2.92,11.867,11.867,0,0,1-1.09-2.06,1.5,1.5,0,0,0-2.9.63,4.941,4.941,0,0,1-5.44,5.29,4.711,4.711,0,0,1-3.62-1.25c-2.1-2.04-2.12-5.89-2.12-5.93a1.5,1.5,0,0,0-1.22-1.48,1.407,1.407,0,0,0-.28-.03,1.491,1.491,0,0,0-1.4.96c-.63,1.63-3,6.45-5.52,7.17a2.252,2.252,0,0,1-2.12-.52,2.4,2.4,0,0,1-1.02-1.86c-.28-3.4,4.12-8.81,5.84-10.61a1.511,1.511,0,0,0-.3-2.32c-.07-.03-6.39-4.05-5.75-17.92.64-13.85,11.78-21.15,17.6-21.98,2.54-.37,15.39-1.17,18.92,18.5,2.97,16.59-3.45,21.83-3.5,21.87A1.5,1.5,0,0,0,141.95,84.51Z" fill="#00b0bb"/><path d="M227.25,197.03c-10.84,25.17-50.07,70.5-58.81,80.43a98.48,98.48,0,0,1-3.19-40.6c3.44-24.08,14.35-45.47,23.41-57.45,1.01-1.34,2-2.71,3.01-4.08,6.85-9.41,13.38-18.39,24.7-18.39a26.221,26.221,0,0,1,7.45,1.16,12.184,12.184,0,0,1,7.99,6.61C235,171.51,233.42,182.69,227.25,197.03Z" fill="#00bb84"/><path d="M168.67,279.48c-.03.02-.04.03-.04.04.05.09.1.17.16.26Q168.73,279.645,168.67,279.48Zm.19.43a.405.405,0,0,1-.05-.09c.08.21.14.37.18.46a1.107,1.107,0,0,1,.07.26A1.456,1.456,0,0,0,168.86,279.91Zm.21.78a1.513,1.513,0,0,1-.29.87.8.8,0,0,0,.17-.15l.04-.04.01-.01A1.378,1.378,0,0,0,169.07,280.69Z" fill="#2c2c2c"/><path d="M234.52,163.44a15.053,15.053,0,0,0-9.85-8.22c-18.18-5.35-27.34,7.24-35.43,18.34-.99,1.36-1.98,2.72-2.98,4.04-9.28,12.28-20.46,34.19-23.98,58.84a98.122,98.122,0,0,0,.39,29.09c-1.54-3.39-3.33-7.21-5.32-11.29-6.89-21.24-8.16-43.6-2.93-61.65,3.46-11.91,10.05-22.83,16.43-33.39,5.29-8.78,10.77-17.85,14.54-27.58,8.02-20.68,8.88-45.66,2.55-74.25-2.26-10.21-6.61-24.46-18.25-30.45-13.93-7.16-29.11,1.3-37.63,12.39a17.146,17.146,0,0,0-5.57-.12c-7.72,1.1-19.48,9.75-20.17,24.81-.54,11.69,3.57,17.32,5.81,19.5-2.01,2.34-5.94,7.5-5.59,11.73a5.424,5.424,0,0,0,2.21,4.02,5.255,5.255,0,0,0,4.75,1c2.29-.65,4.14-2.85,5.44-4.91a9.275,9.275,0,0,0,2.16,3.48,5.128,5.128,0,0,0,.77.64c-1.51,9.02,2.31,14.26,4.12,16.17a.675.675,0,0,0-.02.14c-.21,2.51,1.55,5.32,3.12,7.12,1.47,1.68,3.72,3.27,6.08,2.78a3.024,3.024,0,0,0,2.33-4.15,10.189,10.189,0,0,0-3.94-4.36,8.9,8.9,0,0,0-3.2-2.61.769.769,0,0,0-.54-.86,3.54,3.54,0,0,0-1.67-.14c-1.32-1.4-4.4-5.53-3.44-12.81a8.833,8.833,0,0,0,1.89.2c.1,0,.21-.01.32-.01a10.424,10.424,0,0,0,1.72-.18c1.85,8.55,7.18,11.91,9.3,12.94.38,2.42,2.66,4.66,4.52,6.02,1.83,1.35,4.49,2.49,6.73,1.41a3.028,3.028,0,0,0,1.21-4.67,10.7,10.7,0,0,0-4.84-3.28,9.117,9.117,0,0,0-3.65-1.79.768.768,0,0,0-.75-.67,3.949,3.949,0,0,0-1.79.34c-1.45-.67-6.29-3.43-7.88-11.3a6.741,6.741,0,0,0,1.74-1.4,7.086,7.086,0,0,0,1.16-1.73,9.954,9.954,0,0,0,3.81,3.12,7.447,7.447,0,0,0,6.01-.07,5.82,5.82,0,0,0,3.41-3.62c1.34-4.05-1.26-9.68-2.52-12.05,2.05-2.29,6.34-9.08,3.69-23.87-2.09-11.63-7.65-17.61-13.6-19.93,7.87-9.66,21.11-16.79,33.13-10.61C178.84,35,182.88,48.4,185.01,58.02c6.2,27.99,5.39,52.4-2.42,72.52-3.67,9.48-9.08,18.44-14.31,27.11-6.48,10.73-13.17,21.82-16.74,34.1-4.3,14.82-4.35,32.44-.61,50.03-11.59-21.43-27.46-45.03-43.67-51.43-8.14-3.21-15.12-2.88-19.17.91-3.05,2.87-5.81,8.99-1.64,21.93,8.82,27.39,28.7,50.45,53.18,61.7,14.11,6.49,21.57,7.85,25.34,7.85a7.019,7.019,0,0,0,3.37-.6,1.437,1.437,0,0,0,.65-.77l-.04.04a.8.8,0,0,1-.17.15,1.513,1.513,0,0,0,.29-.87,1.378,1.378,0,0,1-.07.67c.83-.94,12.65-14.21,25.75-30.61,18.2-22.8,30.06-40.47,35.25-52.53C236.53,183.06,238.09,171.04,234.52,163.44ZM133.53,120.77a4.9,4.9,0,0,1,.91.91c1.35,1.59-.68,1.33-1.46.64a10.134,10.134,0,0,1-1.51-1.62A1.571,1.571,0,0,1,133.53,120.77Zm-2-2.93a2.136,2.136,0,0,1,.84.43c.01,0,.01,0,.01.01.14.1.27.2.39.29a.615.615,0,0,0-.13-.01.487.487,0,0,0-.12-.01,5.709,5.709,0,0,0-1.89.6C130.5,118.53,130.65,117.82,131.53,117.84Zm-.98,4.31a10.241,10.241,0,0,1-.99-1.19.847.847,0,0,0,.17.04A10.046,10.046,0,0,0,130.55,122.15Zm-.78-6.04a2.084,2.084,0,0,0-.98,1.96c-.01-.04-.01-.08-.02-.12C128.65,117.12,128.57,115.8,129.77,116.11Zm17.17.93a6.1,6.1,0,0,1,1.38,1.04.265.265,0,0,1,.06.05c-.04.02-.07.04-.11.06-.35.2-.71.41-1.06.61-.44.01-1.13-.52-1.51-.75a9.565,9.565,0,0,1-1.29-.93,1.039,1.039,0,0,1,.25-.2A2.928,2.928,0,0,1,146.94,117.04Zm-3.51-2.15a1.277,1.277,0,0,1,1.34-.29,2.751,2.751,0,0,1,.58.18,1.641,1.641,0,0,0-.23.02.06.06,0,0,0-.04.01,5.515,5.515,0,0,0-1.9,1.03C143.04,115.57,143.08,115.3,143.43,114.89Zm-.64,2.94a10.97,10.97,0,0,0,1.27,1.08,10.332,10.332,0,0,1-1.46-1.07C142.66,117.84,142.73,117.83,142.79,117.83Zm-1.28-4.86a.569.569,0,0,1,.33.03,1.947,1.947,0,0,0-.62,2.29c-.03-.06-.05-.13-.08-.2C140.96,114.58,140.53,113.26,141.51,112.97Zm4.33-52.31c2.97,16.59-3.45,21.83-3.5,21.87a1.5,1.5,0,0,0-.39,1.98c1.13,1.9,3.85,7.5,2.82,10.6a2.787,2.787,0,0,1-1.71,1.79,4.5,4.5,0,0,1-3.66.09,7.6,7.6,0,0,1-3.14-2.92,11.867,11.867,0,0,1-1.09-2.06,1.5,1.5,0,0,0-2.9.63,4.941,4.941,0,0,1-5.44,5.29,4.711,4.711,0,0,1-3.62-1.25c-2.1-2.04-2.12-5.89-2.12-5.93a1.5,1.5,0,0,0-1.22-1.48,1.407,1.407,0,0,0-.28-.03,1.491,1.491,0,0,0-1.4.96c-.63,1.63-3,6.45-5.52,7.17a2.252,2.252,0,0,1-2.12-.52,2.4,2.4,0,0,1-1.02-1.86c-.28-3.4,4.12-8.81,5.84-10.61a1.511,1.511,0,0,0-.3-2.32c-.07-.03-6.39-4.05-5.75-17.92.64-13.85,11.78-21.15,17.6-21.98C129.46,41.79,142.31,40.99,145.84,60.66ZM165.28,279.7c-2.83.07-9.79-.82-24.4-7.53-23.72-10.91-43-33.3-51.58-59.9-2.87-8.93-2.57-15.61.84-18.82a9.807,9.807,0,0,1,6.87-2.31,25.539,25.539,0,0,1,9.15,2c18.48,7.29,37.12,39.44,48.61,62.83,5.42,11.03,9.25,20.1,10.74,23.73A1.763,1.763,0,0,1,165.28,279.7Zm3.35-.18c0-.01.01-.02.04-.04q.06.165.12.3C168.73,279.69,168.68,279.61,168.63,279.52Zm.36.76c-.04-.09-.1-.25-.18-.46a.405.405,0,0,0,.05.09,1.456,1.456,0,0,1,.2.63A1.107,1.107,0,0,0,168.99,280.28Zm58.26-83.25c-10.84,25.17-50.07,70.5-58.81,80.43a98.48,98.48,0,0,1-3.19-40.6c3.44-24.08,14.35-45.47,23.41-57.45,1.01-1.34,2-2.71,3.01-4.08,6.85-9.41,13.38-18.39,24.7-18.39a26.221,26.221,0,0,1,7.45,1.16,12.184,12.184,0,0,1,7.99,6.61C235,171.51,233.42,182.69,227.25,197.03Z" fill="#2c2c2c"/><path d="M165.51,279.7a1.763,1.763,0,0,1-.23,0c-2.83.07-9.79-.82-24.4-7.53-23.72-10.91-43-33.3-51.58-59.9-2.87-8.93-2.57-15.61.84-18.82a9.807,9.807,0,0,1,6.87-2.31,25.539,25.539,0,0,1,9.15,2c18.48,7.29,37.12,39.44,48.61,62.83C160.19,267,164.02,276.07,165.51,279.7Z" fill="#00bb84"/><path d="M168.67,279.48c-.03.02-.04.03-.04.04.05.09.1.17.16.26Q168.73,279.645,168.67,279.48Zm.4,1.21a1.513,1.513,0,0,1-.29.87.8.8,0,0,0,.17-.15l.04-.04.01-.01A1.378,1.378,0,0,0,169.07,280.69Z" fill="#2c2c2c"/></svg>