<svg xmlns="http://www.w3.org/2000/svg" viewBox="0 0 300 300"><path d="M228.18,131.916c-7.022,7.866-18.926,11.348-28.712,14.056-28.828,7.982-60,10.434-89.839,9.821h-.058a270.4,270.4,0,0,1-47.314-5.9c-12.112-2.51-26.422-5.078-36.96-11.984a9.631,9.631,0,0,1-3.945-4.211c-2.406-5.241,2.175-7.647,6.409-9.243a255.822,255.822,0,0,1,24.756-7.485,303.951,303.951,0,0,1,38.811-7.635c.359,6.629,2.568,12.806,8.5,17.919,2.012,1.724,4.951-1.18,2.926-2.927a21.494,21.494,0,0,1-7.519-15.466q8.034-.956,16.126-1.435,8.538-.5,17.086-.567a28.157,28.157,0,0,0-1.457,7.08c-.428,7.392,4.72,13.639,3.991,20.973-.266,2.649,3.864,2.626,4.13,0,.682-6.918-3.841-12.516-4.026-19.261a25.284,25.284,0,0,1,1.608-8.815c10.064.023,20.14.428,30.182,1.1a83.28,83.28,0,0,0,1.133,13.743c.44,2.615,4.419,1.5,3.991-1.1a75.292,75.292,0,0,1-1.029-12.355l2.278.174c15.271,1.18,30.4,2.071,45.059,6.744,4.777,1.527,13.106,3.355,16.45,7.473C233.027,125.415,230.263,129.6,228.18,131.916Z" fill="#00bb84"/><path d="M273.921,154.717c-6.293-13.708-22.512-24.594-36.6-15.235a214.943,214.943,0,0,1,.231,24.42,10.468,10.468,0,0,1,7.45-1.966c6.386.37,9.8,5.633,12.529,10.862,6.605,12.644,8.375,29.36-2.291,40.443-7.843,8.167-21.378,9.358-29.557,1.492l-.312.659a99.943,99.943,0,0,1-6.872,12.147,1.737,1.737,0,0,1,.024.5c-.6,7.508,4.384,15.409,11.776,17.306,7.947,2.048,18.035.035,25.705-2.406,16.207-5.147,22.2-22.789,23.2-38.2C280.26,188.774,280.7,169.536,273.921,154.717ZM232.68,132.9a19.186,19.186,0,0,1-1.319,1.655c-7.554,8.549-20.186,12.459-30.794,15.4-29.141,8.063-60.722,10.6-90.869,9.972h-.069a1.648,1.648,0,0,1-.243-.012,276.078,276.078,0,0,1-58.9-8.468A124.583,124.583,0,0,1,27.738,143.9a34.068,34.068,0,0,1-5.206-2.9c-.509,28.146-.984,56.812,18.035,79.763,15.975,19.284,39.447,30.263,63.532,35.445a222.907,222.907,0,0,0,41.565,4.546c13.315.313,26.491-1.018,38.511-7.126,19.851-10.076,34.184-29.14,41.553-49.859a128.585,128.585,0,0,0,3.655-13.893q1.458-7.27,2.938-14.53c.035-.208.081-.405.116-.613A200.5,200.5,0,0,0,232.68,132.9Zm-6.108,79.891c-.023.046-.035.081-.058.127a.576.576,0,0,0,.1-.081Z" fill="none"/><path d="M283.534,189.9c-.289-15.524-1.018-32.287-10.793-45.185-8.283-10.944-23.46-16.647-35.758-9.857-.3-3.794-.682-7.577-1.122-11.348a2.454,2.454,0,0,0-.289-.879c-1.1-3.528-5.263-5.495-8.433-6.987-13.176-6.224-27-8.526-41.357-9.926q-9.335-.9-18.682-1.608a70.12,70.12,0,0,1,2.661-15.791c2.394-8.271,7.322-15.917,7.38-24.732.081-14.1-17.167-37.412-1.828-48.714,2.117-1.562.058-5.148-2.093-3.563-15.317,11.279-4.5,30.713-1.157,44.9,2.961,12.529-4.246,22.35-7.092,34.069a74.05,74.05,0,0,0-1.978,13.546c-9.578-.636-19.192-1.053-28.793-1.1a54.511,54.511,0,0,0,2.209-6.733,24.1,24.1,0,0,0-1.48-15.455c-2.881-6.871-8.364-14.877-3.066-21.991,1.585-2.14-2-4.2-3.575-2.094-3.458,4.662-3.308,10.342-1.55,15.686,2.592,7.913,7.612,13.94,5.68,22.755a58.774,58.774,0,0,1-2.51,7.832c-3.991.012-7.97.092-11.961.254q-11.418.451-22.767,1.759c.486-12.494,6.478-26.573,5.264-37.8C99.4,57.278,93.468,50.511,88.158,42.852c-6.79-9.8-8.768-20.8-4.361-32.067.972-2.475-3.019-3.551-3.979-1.1a35.8,35.8,0,0,0,.543,28.053C85.579,49.2,96.268,56.746,96.511,70.292c.185,10.689-4.628,23.3-5.195,34.9a306.56,306.56,0,0,0-37.9,7.264c-9.5,2.453-19.446,4.882-28.516,8.688-5.032,2.129-9.671,5.819-8.225,11.881a11.944,11.944,0,0,0,1.793,4.025c-.451,27.093-2.07,55.551,13.605,79.162C45.853,237,68.2,250.421,91.768,257.339c14.032,4.13,28.62,6.131,43.195,7.056,13.894.891,28.238,1.273,41.623-3.158,15.3-5.067,28.25-15.409,37.99-28.18,1.7,10.076,10.943,16.855,21.32,17.063,14.056.278,29.152-3.621,37.84-15.293C283.326,221.928,283.823,205.317,283.534,189.9Zm-46.828-15.559c.127-.6.266-1.192.416-1.793,1.088-4.443,4.3-7.936,9.428-6.282,4.072,1.319,6.571,6.837,8.272,10.412a39.221,39.221,0,0,1,3.933,14.09c.555,8.421-2.568,17.7-9.937,22.453a16.593,16.593,0,0,1-21.1-2.371c-.115.324-.243.659-.358.983a2.042,2.042,0,0,1-.741,1.007.576.576,0,0,1-.1.081c.023-.046.035-.081.058-.127.324-.718.636-1.435.937-2.164a118.66,118.66,0,0,0,4.234-11.741.594.594,0,0,1,.046-.151A138.314,138.314,0,0,0,236.706,174.337ZM27.761,124.455a255.822,255.822,0,0,1,24.756-7.485,303.951,303.951,0,0,1,38.811-7.635c.359,6.629,2.568,12.806,8.5,17.919,2.012,1.724,4.951-1.18,2.926-2.927a21.494,21.494,0,0,1-7.519-15.466q8.034-.956,16.126-1.435,8.538-.5,17.086-.567a28.157,28.157,0,0,0-1.457,7.08c-.428,7.392,4.72,13.639,3.991,20.973-.266,2.649,3.864,2.626,4.13,0,.682-6.918-3.841-12.516-4.026-19.261a25.284,25.284,0,0,1,1.608-8.815c10.064.023,20.14.428,30.182,1.1a83.28,83.28,0,0,0,1.133,13.743c.44,2.615,4.419,1.5,3.991-1.1a75.292,75.292,0,0,1-1.029-12.355l2.278.174c15.271,1.18,30.4,2.071,45.059,6.744,4.777,1.527,13.106,3.355,16.45,7.473,2.267,2.8-.5,6.987-2.58,9.3-7.022,7.866-18.926,11.348-28.712,14.056-28.828,7.982-60,10.434-89.839,9.821h-.058a270.4,270.4,0,0,1-47.314-5.9c-12.112-2.51-26.422-5.078-36.96-11.984a9.631,9.631,0,0,1-3.945-4.211C18.946,128.457,23.527,126.051,27.761,124.455Zm156.414,129.17c-12.02,6.108-25.2,7.439-38.511,7.126a222.907,222.907,0,0,1-41.565-4.546c-24.085-5.182-47.557-16.161-63.532-35.445C21.548,197.809,22.023,169.143,22.532,141a34.068,34.068,0,0,0,5.206,2.9,124.583,124.583,0,0,0,22.743,7.542,276.078,276.078,0,0,0,58.9,8.468,1.648,1.648,0,0,0,.243.012h.069c30.147.624,61.728-1.909,90.869-9.972,10.608-2.938,23.24-6.848,30.794-15.4a19.186,19.186,0,0,0,1.319-1.655,200.5,200.5,0,0,1-.243,41.831c-.035.208-.081.405-.116.613q-1.475,7.27-2.938,14.53a128.585,128.585,0,0,1-3.655,13.893C218.359,224.485,204.026,243.549,184.175,253.625Zm95.032-48.887c-1.006,15.409-7,33.051-23.2,38.2-7.67,2.441-17.758,4.454-25.705,2.406-7.392-1.9-12.378-9.8-11.776-17.306a1.737,1.737,0,0,0-.024-.5,99.943,99.943,0,0,0,6.872-12.147l.312-.659c8.179,7.866,21.714,6.675,29.557-1.492,10.666-11.083,8.9-27.8,2.291-40.443-2.73-5.229-6.143-10.492-12.529-10.862a10.468,10.468,0,0,0-7.45,1.966,214.943,214.943,0,0,0-.231-24.42c14.09-9.359,30.309,1.527,36.6,15.235C280.7,169.536,280.26,188.774,279.207,204.738Z"/><path d="M231.743,198.885a121.07,121.07,0,0,1-4.026,11.961c-.115.324-.243.659-.358.983a2.042,2.042,0,0,1-.741,1.007.576.576,0,0,1-.1.081c.023-.046.035-.081.058-.127.324-.718.636-1.435.937-2.164A118.66,118.66,0,0,0,231.743,198.885Z" fill="#2c2c2c"/></svg>