<svg xmlns="http://www.w3.org/2000/svg" viewBox="0 0 300 300"><path d="M173.79,130.06c1.17,14.12-3.44,24.05-8.49,24.47-.12.01-.23.01-.34.01-4.99,0-10.93-8.94-12.08-22.75-1.17-14.11,3.45-24.05,8.5-24.47.11-.01.22-.01.34-.01,2.45,0,5.09,2.13,7.3,5.92C171.56,117.6,173.25,123.57,173.79,130.06Z" fill="#fae33f"/><path d="M197.47,75.18c-18.78-26.41-40.37-51.13-70.94-53.2-14.15-.96-16.77,1.57-17.23,2.7-.78,1.89,2.01,5.15,3.48,6.42.03.03.06.05.09.08.32.33,32.38,33.41,21.08,73.7-7.06,25.19-10.65,36.42-12.42,41.41a2.464,2.464,0,0,0,.95,2.88c6.97,4.61,22.1,16.77,26.48,37.68,9.51,3.31,12.64-4.26,12.77-4.58a1.5,1.5,0,0,1,2.8,1.09c-.04.09-2.97,7.36-11,7.36a15.754,15.754,0,0,1-3.99-.55,58.011,58.011,0,0,1,.57,6.2c.7,18.36-31.17,78.84-36.57,88.95,1.89.47,7.2.79,20.42-3.42,19.94-6.36,72.75-47.62,81.55-88.95C224.28,151.74,216.69,102.21,197.47,75.18Zm-31.93,82.34c-.2.02-.4.02-.6.02-7.3,0-13.85-10.98-15.05-25.5-1.24-14.91,3.7-27.08,11.24-27.71,3.81-.31,7.52,2.31,10.48,7.39,2.76,4.74,4.6,11.17,5.17,18.09.13,1.54.19,3.05.19,4.53C176.97,147.11,172.3,156.96,165.54,157.52Z" fill="#fae33f"/><path d="M189.222,173.374a12.738,12.738,0,0,1-10.542-5.423h0c-2.186-3.35-1.967-7.286.6-10.8a22.059,22.059,0,0,0,2-3.4c1.158-2.309,2.157-4.3,6.474-4.944,5.856-.865,11.941,2.888,13.551,8.375a12.728,12.728,0,0,1-8.2,15.55A11.868,11.868,0,0,1,189.222,173.374Zm-8.031-7.063a9.837,9.837,0,0,0,10.928,3.591,9.732,9.732,0,0,0,6.305-11.872c-1.183-4.034-5.87-6.9-10.233-6.25-2.773.411-3.17,1.2-4.23,3.32a25.091,25.091,0,0,1-2.258,3.824c-2.329,3.184-1.563,5.775-.512,7.387Z" fill="#2c2c2c"/><path d="M165.3,154.53c-.12.01-.23.01-.34.01-4.99,0-10.93-8.94-12.08-22.75-1.17-14.11,3.45-24.05,8.5-24.47.11-.01.22-.01.34-.01,2.45,0,5.09,2.13,7.3,5.92,2.54,4.37,4.23,10.34,4.77,16.83C174.96,144.18,170.35,154.11,165.3,154.53Z" fill="#fff"/><path d="M199.91,73.44c-19.2-27.01-41.37-52.3-73.18-54.46-12.17-.82-18.58.63-20.21,4.56-1.76,4.27,3.42,9.06,4.25,9.79,1.2,1.25,30.95,32.74,20.3,70.74-7.41,26.44-10.93,37.17-12.37,41.21a5.457,5.457,0,0,0,2.13,6.39c7.58,5.01,25.31,19.42,26.28,44.81.72,18.82-36.55,88.06-36.93,88.75a1.513,1.513,0,0,0,.07,1.55c.41.61,1.74,1.8,5.97,1.8,3.65,0,9.45-.89,18.65-3.83,20.43-6.51,74.56-48.8,83.57-91.17C227.37,151.62,219.58,101.09,199.91,73.44Zm15.6,119.51c-8.8,41.33-61.61,82.59-81.55,88.95-13.22,4.21-18.53,3.89-20.42,3.42,5.4-10.11,37.27-70.59,36.57-88.95a58.011,58.011,0,0,0-.57-6.2,15.754,15.754,0,0,0,3.99.55c8.03,0,10.96-7.27,11-7.36a1.5,1.5,0,0,0-2.8-1.09c-.13.32-3.26,7.89-12.77,4.58-4.38-20.91-19.51-33.07-26.48-37.68a2.464,2.464,0,0,1-.95-2.88c1.77-4.99,5.36-16.22,12.42-41.41,11.3-40.29-20.76-73.37-21.08-73.7-.03-.03-.06-.05-.09-.08-1.47-1.27-4.26-4.53-3.48-6.42.46-1.13,3.08-3.66,17.23-2.7,30.57,2.07,52.16,26.79,70.94,53.2C216.69,102.21,224.28,151.74,215.51,192.95Z"/><path d="M176.78,129.81c-.57-6.92-2.41-13.35-5.17-18.09-2.96-5.08-6.67-7.7-10.48-7.39-7.54.63-12.48,12.8-11.24,27.71,1.2,14.52,7.75,25.5,15.05,25.5.2,0,.4,0,.6-.02,6.76-.56,11.43-10.41,11.43-23.18C176.97,132.86,176.91,131.35,176.78,129.81Zm-11.82,24.73c-4.99,0-10.93-8.94-12.08-22.75-1.17-14.11,3.45-24.05,8.5-24.47.11-.01.22-.01.34-.01,2.45,0,5.09,2.13,7.3,5.92,2.54,4.37,4.23,10.34,4.77,16.83,1.17,14.12-3.44,24.05-8.49,24.47C165.18,154.54,165.07,154.54,164.96,154.54Z" fill="#2c2c2c"/><path d="M150.836,91.092a1.5,1.5,0,0,1-1.23-2.359c.068-.1,6.88-9.582,18.086-1.889a1.5,1.5,0,1,1-1.7,2.473c-8.78-6.027-13.722.837-13.928,1.133A1.5,1.5,0,0,1,150.836,91.092Z" fill="#2c2c2c"/><path d="M169.71,131.71a16.561,16.561,0,0,0-1.54-6.93,1.223,1.223,0,0,0,.24-1.77c-3.82-5.4-8.52-2.66-10.56,2.54-2.09,5.31-2.6,12.87.53,17.91,2.38,3.84,8.41,6.5,11.38,1.66C171.62,142.09,171.27,136.12,169.71,131.71Zm-9.02-1.72a1.168,1.168,0,0,1-.22-.62,3.767,3.767,0,0,1,3.44-3.61,4.132,4.132,0,0,1,.74.44C163.01,126.34,161.6,128.09,160.69,129.99Zm-1.24,7.27a19.493,19.493,0,0,1-.13-3.97c.09.09.18.17.27.25A22.248,22.248,0,0,0,159.45,137.26Zm6.19,3.71c-1.82,3.33-2.81-1.08-3.06-2.58a16,16,0,0,1-.13-3.17,2.151,2.151,0,0,1,.02-.23,5.049,5.049,0,0,1,2.71,1.84C165.5,137.33,166,140.31,165.64,140.97Zm-2.27-9.07c.52-1.15,1.24-2.07,2.11-1.79.49.16.91,1.06,1.24,2.24.03.51.05,1.03.05,1.54A21.445,21.445,0,0,0,163.37,131.9Z" fill="#2c2c2c"/></svg>