<svg xmlns="http://www.w3.org/2000/svg" viewBox="0 0 300 300"><path d="M79.8,166.454c.082-.051.154-.082.215-.123-.041.133-.072.266-.1.4C79.882,166.638,79.841,166.546,79.8,166.454Z" fill="#00bb84"/><path d="M80.733,163.809c.112-.39.236-.79.369-1.21C80.979,163.029,80.845,163.439,80.733,163.809Z" fill="#00bb84"/><path d="M89.181,143.405c-2.953,5.937-4.973,10.622-6.408,14.385A119.585,119.585,0,0,1,89.181,143.405Z" fill="#00bb84"/><path d="M154.44,102.394c-.379-.031-.758-.062-1.138-.082.185,0,.369.01.554.02a.162.162,0,0,0,.072.011C154.1,102.363,154.266,102.373,154.44,102.394Z" fill="#00bb84"/><path d="M187.485,115.077a69.956,69.956,0,0,0-31.62-12.529A65.754,65.754,0,0,1,187.485,115.077Z" fill="#00bb84"/><path d="M203.921,130.436A93.734,93.734,0,0,0,187.69,115.22,78.168,78.168,0,0,1,203.921,130.436Z" fill="#00bb84"/><path d="M220.028,154.858a162.24,162.24,0,0,0-15.974-24.248.2.2,0,0,1-.041-.062A126.987,126.987,0,0,1,220.028,154.858Z" fill="#00bb84"/><path d="M224.621,165.018c-1.015-2.583-2.317-5.587-3.937-8.858A84.4,84.4,0,0,1,224.621,165.018Z" fill="#00bb84"/><path d="M224.929,165.839a.034.034,0,0,0-.011.02c-.071-.225-.153-.451-.246-.687C224.765,165.4,224.847,165.623,224.929,165.839Z" fill="#00bb84"/><path d="M256.21,165.213c-.461.41-.861.779-1.189,1.108a19.636,19.636,0,0,0-16.446-7.147c-2.747-11.893-6.213-24.709-9.812-32.737-6.51-14.539-19.737-28.585-35.382-37.556-11.3-6.47-28.411-13.985-45.861-13.032a93.254,93.254,0,0,0-46.035,14.5c-24.023,15.441-36.06,53.53-39.925,68.14a14.986,14.986,0,0,0-7.351,4.9c-1.374-3.8-4.184-10.1-8.705-13.759,2.461-25.314,7.751-35.865,13.339-46.979,1.158-2.3,2.358-4.675,3.537-7.207C66.7,86.194,75.8,75.972,86.741,68.109,101.607,57.425,120,50.73,139.933,48.741c6.336-.625,12.078-1.005,17.45-1.005,21.869,0,37.659,6.193,62.5,26.555,16,13.093,25.161,38.438,30.041,57.4A270.5,270.5,0,0,1,256.21,165.213Z" fill="#00bb84"/><path d="M79.8,166.454c.041.092.082.184.113.277.03-.134.061-.267.1-.4C79.954,166.372,79.882,166.4,79.8,166.454Zm3.8-1.507c.5-1.631,1.251-3.917,2.277-6.655C84.864,160.917,84.147,163.1,83.6,164.947Zm-.83-7.157c1.435-3.763,3.455-8.448,6.408-14.385A119.585,119.585,0,0,0,82.773,157.79Zm9.156-13.011c-.093.185-.185.369-.277.554a105.781,105.781,0,0,1,5.516-9.433c9.248-14.005,20.362-23.243,33.2-27.662C117.469,112.575,102.94,122.664,91.929,144.779ZM142.1,105.624c-.338.041-.687.082-1.025.133.676-.092,1.353-.174,2.04-.246C142.772,105.542,142.445,105.572,142.1,105.624Zm1.015-.113c2.009-.185,4.039-.277,6.111-.277A53.863,53.863,0,0,0,143.111,105.511Zm12.754-2.963a69.956,69.956,0,0,1,31.62,12.529A65.754,65.754,0,0,0,155.865,102.548Zm45.759,29.959a74.726,74.726,0,0,0-16.958-15.636,90.427,90.427,0,0,1,17.86,16.815C202.239,133.3,201.932,132.906,201.624,132.507Zm2.389-1.959a.2.2,0,0,0,.041.062,162.24,162.24,0,0,1,15.974,24.248A126.987,126.987,0,0,0,204.013,130.548ZM215.3,152.664a125.027,125.027,0,0,1,6.224,12.959A95.445,95.445,0,0,0,215.3,152.664Zm9.371,12.508c.093.236.175.462.246.687a.034.034,0,0,1,.011-.02C224.847,165.623,224.765,165.4,224.672,165.172Zm-.974,1.887.062.184c0-.01,0-.01.01-.01A1.123,1.123,0,0,0,223.7,167.059Z" fill="#2c2c2c"/><path d="M80.681,169.478c-.01.041-.02.072-.03.1a.153.153,0,0,0-.021-.072C80.651,169.5,80.661,169.489,80.681,169.478Z" fill="#f6912e"/><path d="M79.8,166.454c.082-.051.154-.082.215-.123-.041.133-.072.266-.1.4C79.882,166.638,79.841,166.546,79.8,166.454Z" fill="#f6912e"/><path d="M80.733,163.809c.112-.39.236-.79.369-1.21C80.979,163.029,80.845,163.439,80.733,163.809Z" fill="#f6912e"/><path d="M89.181,143.405c-2.953,5.937-4.973,10.622-6.408,14.385A119.585,119.585,0,0,1,89.181,143.405Z" fill="#f6912e"/><path d="M154.44,102.394c-.379-.031-.758-.062-1.138-.082.185,0,.369.01.554.02a.162.162,0,0,0,.072.011C154.1,102.363,154.266,102.373,154.44,102.394Z" fill="#f6912e"/><path d="M187.485,115.077a69.956,69.956,0,0,0-31.62-12.529A65.754,65.754,0,0,1,187.485,115.077Z" fill="#f6912e"/><path d="M203.921,130.436A93.734,93.734,0,0,0,187.69,115.22,78.168,78.168,0,0,1,203.921,130.436Z" fill="#f6912e"/><path d="M220.028,154.858a162.24,162.24,0,0,0-15.974-24.248.2.2,0,0,1-.041-.062A126.987,126.987,0,0,1,220.028,154.858Z" fill="#f6912e"/><path d="M224.621,165.018c-1.015-2.583-2.317-5.587-3.937-8.858A84.4,84.4,0,0,1,224.621,165.018Z" fill="#f6912e"/><path d="M224.929,165.839a.034.034,0,0,0-.011.02c-.071-.225-.153-.451-.246-.687C224.765,165.4,224.847,165.623,224.929,165.839Z" fill="#f6912e"/><path d="M222.7,168.689v.01a.627.627,0,0,0-.072.092,39.313,39.313,0,0,0-4.88,10.592,34.077,34.077,0,0,0-2.461-3.558c-.01-.01-.02-.021-.02-.031a169.8,169.8,0,0,0-13.616-21.685c-8.674-11.924-25.048-25.57-44.99-28.113-14.692-1.876-28.113,1.938-39.883,11.309-11.361,9.043-18.455,21.08-22.393,29.59-1.784,3.834-3.2,7.146-4.337,10.017-.686.164-1.373.358-2.071.564a47.739,47.739,0,0,0-8.192,3.321,31.29,31.29,0,0,0,1.118-7.894v-.01a24.8,24.8,0,0,0,1.927-5.168v-.02a.139.139,0,0,0,.021-.062c.02-.1.082-.338.185-.7q.123-.477.277-1.015c.092-.318.184-.646.286-.984.544-1.846,1.261-4.03,2.277-6.655.092-.235.184-.471.287-.727a117.577,117.577,0,0,1,5.485-12.232c.092-.185.184-.369.277-.554,11.011-22.115,25.54-32.2,38.438-36.541.42-.143.83-.277,1.251-.41.512-.164,1.015-.318,1.517-.451.318-.092.625-.174.933-.256l.246-.062c.472-.123.943-.236,1.415-.349q.8-.184,1.569-.338c.523-.1,1.056-.195,1.589-.287.256-.051.513-.092.759-.123.481-.072.953-.143,1.425-.2.676-.092,1.353-.174,2.04-.246a53.863,53.863,0,0,1,6.111-.277h.328c.246-.01.492,0,.738.01.471.011.954.031,1.425.052.267.01.523.02.779.041s.513.03.759.051l.79.061c.512.052.994.1,1.455.154a62.043,62.043,0,0,1,28.339,10.7c.277.174.554.359.831.564a74.726,74.726,0,0,1,16.958,15.636c.308.4.615.789.9,1.179a1.333,1.333,0,0,1,.113.133,124.512,124.512,0,0,1,12.59,18.722c.021.041.052.082.072.123a95.445,95.445,0,0,1,6.224,12.959c.03.072.061.154.092.236C222.037,166.905,222.4,167.838,222.7,168.689Z" fill="#f6912e"/><path d="M223.77,167.233c-.01,0-.01,0-.01.01l-.062-.184A1.123,1.123,0,0,1,223.77,167.233Z" fill="#f6912e"/><path d="M223.78,173.374a.092.092,0,0,1-.01-.051c0-.01-.02-.123-.051-.328a.562.562,0,0,1,.071-.133A1.265,1.265,0,0,0,223.78,173.374Z" fill="#f6912e"/><path d="M80.681,169.478c-.01.041-.02.072-.03.1a.153.153,0,0,0-.021-.072C80.651,169.5,80.661,169.489,80.681,169.478Z" fill="#a18aba"/><path d="M223.77,167.233c-.01,0-.01,0-.01.01l-.062-.184A1.123,1.123,0,0,1,223.77,167.233Z" fill="#a18aba"/><path d="M79.8,166.454c.082-.051.154-.082.215-.123-.041.133-.072.266-.1.4C79.882,166.638,79.841,166.546,79.8,166.454Z" fill="#a18aba"/><path d="M80.733,163.809c.112-.39.236-.79.369-1.21C80.979,163.029,80.845,163.439,80.733,163.809Z" fill="#a18aba"/><path d="M89.181,143.405c-2.953,5.937-4.973,10.622-6.408,14.385A119.585,119.585,0,0,1,89.181,143.405Z" fill="#a18aba"/><path d="M154.44,102.394c-.379-.031-.758-.062-1.138-.082.185,0,.369.01.554.02a.162.162,0,0,0,.072.011C154.1,102.363,154.266,102.373,154.44,102.394Z" fill="#a18aba"/><path d="M187.485,115.077a69.956,69.956,0,0,0-31.62-12.529A65.754,65.754,0,0,1,187.485,115.077Z" fill="#a18aba"/><path d="M203.921,130.436A93.734,93.734,0,0,0,187.69,115.22,78.168,78.168,0,0,1,203.921,130.436Z" fill="#a18aba"/><path d="M220.028,154.858a162.24,162.24,0,0,0-15.974-24.248.2.2,0,0,1-.041-.062A126.987,126.987,0,0,1,220.028,154.858Z" fill="#a18aba"/><path d="M224.621,165.018c-1.015-2.583-2.317-5.587-3.937-8.858A84.4,84.4,0,0,1,224.621,165.018Z" fill="#a18aba"/><path d="M224.929,165.839a.034.034,0,0,0-.011.02c-.071-.225-.153-.451-.246-.687C224.765,165.4,224.847,165.623,224.929,165.839Z" fill="#a18aba"/><path d="M80.63,169.509a.153.153,0,0,1,.021.072c.01-.031.02-.062.03-.1C80.661,169.489,80.651,169.5,80.63,169.509Zm.1-5.7c.112-.37.246-.78.369-1.21C80.969,163.019,80.845,163.419,80.733,163.809Zm2.122,3.834c.062-.225.123-.451.185-.7C82.937,167.305,82.875,167.541,82.855,167.643Zm3.312-10.078c1.3-3.312,3.065-7.321,5.485-12.232A117.577,117.577,0,0,0,86.167,157.565Zm67.761-55.222a.162.162,0,0,1-.072-.011c-.185-.01-.369-.02-.554-.02.38.02.759.051,1.138.082C154.266,102.373,154.1,102.363,153.928,102.343Zm1.568,3.26a66.182,66.182,0,0,1,28.339,10.7A62.043,62.043,0,0,0,155.5,105.6Zm32.194,9.617a93.734,93.734,0,0,1,16.231,15.216A78.168,78.168,0,0,0,187.69,115.22Zm14.949,18.6a162.634,162.634,0,0,1,12.59,18.722A124.512,124.512,0,0,0,202.639,133.819Zm18.045,22.341c1.62,3.271,2.922,6.275,3.937,8.858A84.4,84.4,0,0,0,220.684,156.16Zm3.106,16.7a.562.562,0,0,0-.071.133c.031.2.051.318.051.328a.092.092,0,0,0,.01.051A1.265,1.265,0,0,1,223.79,172.862Zm-.092-5.8.062.184c0-.01,0-.01.01-.01A1.123,1.123,0,0,0,223.7,167.059Zm-2.081-1.2c.41,1.1.748,2.071,1.015,2.932a.627.627,0,0,1,.072-.092v-.01C222.4,167.838,222.037,166.905,221.617,165.859Z" fill="#2c2c2c"/><path d="M295.273,169.037c-6.449-12.3-21.92-14.271-29.743-10.211a46.223,46.223,0,0,0-6.48,4.06c-2.4-18.9-11.094-69.576-37.218-90.974C190.048,45.87,172.67,42.394,139.625,45.685,92,50.422,66.45,79.448,59.591,94.14c-1.158,2.492-2.348,4.85-3.5,7.136-5.608,11.166-10.94,21.757-13.513,46.559-9.125-3.845-28.329.461-35.106,10.416-7.854,11.514-8.53,30,4.05,39.8a13.451,13.451,0,0,0,10.5,2.912c4.429-.646,8.459-3.291,11.524-5.978-1.9,5.65-3.588,13.309-1.784,19.5C35.118,226.064,45.4,231.959,67.24,234.85a31.84,31.84,0,0,0,4.1.277c14.518,0,22.023-10.857,24.935-16.5a8.313,8.313,0,0,0,2.256,2.163c3,1.948,7.228,2.112,12.58.482,6.11-1.876,10.6-8,11.709-15.984,1.425-10.294-2.851-20.3-10.909-25.489-5.178-3.343-11.412-4.552-18.271-3.578.984-2.379,2.143-5.045,3.537-8.039,18.456-39.77,47.471-40.621,59.1-39.135,18.967,2.41,34.593,15.462,42.9,26.863,3.69,5.075,6.725,9.709,9.217,13.9a15.859,15.859,0,0,0-2.071-.944c-4.214-1.6-8.684-1.25-13.288,1.016-10.571,5.2-14.682,16.589-12.416,24.165,1.661,5.609,6.377,8.623,12.734,8.223-.133.267-.267.533-.39.79-1.435,2.881-3.844,7.689-1.835,12.611,1.681,4.111,5.926,7.289,12.98,9.73,7.187,2.481,14.17-.339,20.188-8.162a48.714,48.714,0,0,0,4.665-7.5c1.405,6.286,4.788,16.487,12.129,18.948a10.56,10.56,0,0,0,3.394.553c4.911,0,10.488-3.239,16.64-9.678,4.932-5.178,5.526-15.072,5.209-22.177a15.151,15.151,0,0,0,6.613,5.465c3.414,1.291,7.105.769,10.96-1.579C297.519,193,301.671,181.249,295.273,169.037ZM58.843,102.65c1.158-2.3,2.358-4.675,3.537-7.207C66.7,86.194,75.8,75.972,86.741,68.109,101.607,57.425,120,50.73,139.933,48.741c6.336-.625,12.078-1.005,17.45-1.005,21.869,0,37.659,6.193,62.5,26.555,16,13.093,25.161,38.438,30.041,57.4a270.5,270.5,0,0,1,6.285,33.527c-.461.41-.861.779-1.189,1.108a19.636,19.636,0,0,0-16.446-7.147c-2.747-11.893-6.213-24.709-9.812-32.737-6.51-14.539-19.737-28.585-35.382-37.556-11.3-6.47-28.411-13.985-45.861-13.032a93.254,93.254,0,0,0-46.035,14.5c-24.023,15.441-36.06,53.53-39.925,68.14a14.986,14.986,0,0,0-7.351,4.9c-1.374-3.8-4.184-10.1-8.705-13.759C47.965,124.315,53.255,113.764,58.843,102.65Zm161.841,53.51c-.2-.42-.42-.861-.656-1.3a162.24,162.24,0,0,0-15.974-24.248.2.2,0,0,1-.041-.062.824.824,0,0,1-.092-.112A93.734,93.734,0,0,0,187.69,115.22a2.375,2.375,0,0,0-.2-.143,69.956,69.956,0,0,0-31.62-12.529c-.481-.062-.953-.113-1.425-.154-.379-.031-.758-.062-1.138-.082.185,0,.369.01.554.02a57.625,57.625,0,0,0-33.219,6.737,61.882,61.882,0,0,0-7.434,4.757c-12.026,8.93-19.6,20.782-23.858,29.261-.061.113-.113.216-.164.318-2.953,5.937-4.973,10.622-6.408,14.385-.1.267-.195.533-.3.8-.113.307-.226.615-.328.912-.134.369-.257.739-.38,1.087s-.225.7-.338,1.015-.205.646-.308.943a.176.176,0,0,0-.02.052c-.123.43-.257.84-.369,1.21-.154.5-.3.994-.421,1.455-.082.267-.153.523-.2.728l-.092.339c-.041.133-.072.266-.1.4-.031-.093-.072-.185-.113-.277-.051-.144-.1-.277-.164-.421a12.468,12.468,0,0,0-1.949-3.158,11.708,11.708,0,0,0-1.23-1.23,10.593,10.593,0,0,0-1.322-.994,13.807,13.807,0,0,0-2.717-1.385,18.544,18.544,0,0,0-7.5-1.322,198.78,198.78,0,0,1,7.566-22.269c5.865-14.272,15.933-33.281,30.656-42.744a90.379,90.379,0,0,1,44.539-14.016c16.722-.9,33.229,6.367,44.169,12.642,15.1,8.653,27.847,22.166,34.1,36.141,3.445,7.7,6.828,20.208,9.545,31.917-.318.062-.635.133-.953.215a18.164,18.164,0,0,0-5.68,2.553,15.655,15.655,0,0,0-1.323.985,14.839,14.839,0,0,0-1.292,1.128,18.031,18.031,0,0,0-1.322,1.343.034.034,0,0,0-.011.02c-.071-.225-.153-.451-.246-.687-.02-.051-.03-.1-.051-.154C223.606,162.435,222.3,159.431,220.684,156.16Zm3.086,11.073c-.01,0-.01,0-.01.01l-.062-.184A1.123,1.123,0,0,1,223.77,167.233ZM80.681,169.478c-.01.041-.02.072-.03.1a.153.153,0,0,0-.021-.072C80.651,169.5,80.661,169.489,80.681,169.478Zm29.57,12.909c8.571,5.526,10.488,15.563,9.524,22.474-.943,6.8-4.613,11.955-9.555,13.472-4.358,1.323-7.8,1.292-9.966-.092a5.483,5.483,0,0,1-2.42-3.589,1.538,1.538,0,0,0-1.374-1.343,1.519,1.519,0,0,0-1.609,1.026c-.287.83-7.085,20.126-27.211,17.47-20.424-2.706-29.969-7.966-32.922-18.178-2.871-9.894,4.747-25.048,4.829-25.2a1.53,1.53,0,0,0-.574-2.01,1.5,1.5,0,0,0-.8-.226,1.542,1.542,0,0,0-1.241.636c-.071.1-7.207,9.925-15.358,11.094a10.33,10.33,0,0,1-8.162-2.3c-8.694-6.777-12.477-22.331-3.4-35.639,6.438-9.443,25.581-12.662,32.255-8.879.154.093.308.185.451.277a11.66,11.66,0,0,1,1,.759,13.822,13.822,0,0,1,1.435,1.363c4.768,5.137,7.065,13.729,7.095,13.832a1.538,1.538,0,0,0,2.881.256,12.575,12.575,0,0,1,5.527-5.5,10.868,10.868,0,0,1,1.763-.676,10.269,10.269,0,0,1,1.671-.339,14.993,14.993,0,0,1,7.229,1.067,10.383,10.383,0,0,1,2.747,1.517,8.49,8.49,0,0,1,2.369,2.819c.133.236.256.493.369.749.092.215.184.441.256.666a12.219,12.219,0,0,1,.431,1.508,13.958,13.958,0,0,1,.246,1.609c.041.38.061.759.082,1.138a22.24,22.24,0,0,1-.113,2.994,27.164,27.164,0,0,1-.441,2.9,35.847,35.847,0,0,1-1.589,5.485,1.522,1.522,0,0,0,.441,1.774,1.557,1.557,0,0,0,1.835.092A44.544,44.544,0,0,1,88.7,180.5c.585-.184,1.2-.348,1.815-.5.584-.154,1.189-.287,1.794-.41C97.937,178.47,104.437,178.634,110.251,182.387Zm91.4-28.278c-8.674-11.924-25.048-25.57-44.99-28.113-14.692-1.876-28.113,1.938-39.883,11.309-11.361,9.043-18.455,21.08-22.393,29.59-1.784,3.834-3.2,7.146-4.337,10.017-.686.164-1.373.358-2.071.564a47.739,47.739,0,0,0-8.192,3.321,31.29,31.29,0,0,0,1.118-7.894v-.01a24.8,24.8,0,0,0,1.927-5.168v-.02a.139.139,0,0,0,.021-.062c.02-.1.082-.338.185-.7q.123-.477.277-1.015c.092-.318.184-.646.286-.984.544-1.846,1.261-4.03,2.277-6.655.092-.235.184-.471.287-.727a117.577,117.577,0,0,1,5.485-12.232c.092-.185.184-.369.277-.554,11.011-22.115,25.54-32.2,38.438-36.541.42-.143.83-.277,1.251-.41.512-.164,1.015-.318,1.517-.451.318-.092.625-.174.933-.256l.246-.062c.472-.123.943-.236,1.415-.349q.8-.184,1.569-.338c1.65-.338,3.26-.584,4.8-.748.349-.052.676-.082,1.015-.113a53.863,53.863,0,0,1,6.111-.277h.328c.246-.01.492,0,.738.01.492.011.964.031,1.425.052.267.01.523.02.779.041s.513.03.759.051l.79.061c.512.052.994.1,1.455.154a62.043,62.043,0,0,1,28.339,10.7c.277.174.554.359.831.564a74.726,74.726,0,0,1,16.958,15.636c.308.4.615.789.9,1.179a1.333,1.333,0,0,1,.113.133,124.512,124.512,0,0,1,12.59,18.722c.021.041.052.082.072.123a95.445,95.445,0,0,1,6.224,12.959c.03.072.061.154.092.236.42,1.046.779,1.979,1.087,2.83v.01a.627.627,0,0,0-.072.092,39.313,39.313,0,0,0-4.88,10.592,34.077,34.077,0,0,0-2.461-3.558c-.01-.01-.02-.021-.02-.031A169.8,169.8,0,0,0,201.655,154.109ZM282.3,198.658c-3,1.815-5.782,2.266-8.263,1.333-5.762-2.184-8.551-10.971-8.582-11.053a1.537,1.537,0,0,0-2.984.708c.041.205,3.415,20.464-3.578,27.805-6.705,7.024-12.365,9.833-16.825,8.336-6.121-2.051-9.032-11.658-10.232-17.276-.215-1-.369-1.866-.482-2.553-.164-.964-.236-1.548-.236-1.579a1.535,1.535,0,0,0-1.343-1.353,1.033,1.033,0,0,0-.184-.011,1.513,1.513,0,0,0-1,.369,1.426,1.426,0,0,0-.451.636c0,.01-.1.287-.3.769a48.388,48.388,0,0,1-6.039,10.632c-5.188,6.736-10.807,9.115-16.7,7.075-6.08-2.1-9.833-4.788-11.135-7.977-1.486-3.629.38-7.361,1.733-10.078.953-1.907,1.641-3.292.8-4.471a2.375,2.375,0,0,0-2.41-.851c-5.454.677-9.2-1.445-10.539-5.946-1.9-6.367,1.7-16.036,10.837-20.527,3.8-1.876,7.443-2.173,10.827-.9a18.315,18.315,0,0,1,7.4,5.7.01.01,0,0,0,.01.01,30.848,30.848,0,0,1,4.214,6.839,1.485,1.485,0,0,0,1.077.892,1.242,1.242,0,0,0,.512.041,1.543,1.543,0,0,0,1.344-1.261A40.4,40.4,0,0,1,223.719,173a.562.562,0,0,1,.071-.133c.339-.615.7-1.231,1.087-1.836a1.72,1.72,0,0,0,.113-.184c.338-.5.677-1,1.046-1.476.031-.041.061-.072.092-.113.328-.441.687-.872,1.056-1.282q.6-.676,1.261-1.292.617-.584,1.292-1.107a15.012,15.012,0,0,1,5.567-2.758c.3-.072.595-.144.882-.2.523-.1,1.036-.2,1.528-.256.533-.072,1.056-.113,1.558-.134a16.42,16.42,0,0,1,14.036,6.87c.154.215.246.369.277.41a1.53,1.53,0,0,0,1.2.728,1.547,1.547,0,0,0,1.292-.544,23.394,23.394,0,0,1,1.968-1.968c.41-.379.892-.8,1.425-1.231v-.01a42.472,42.472,0,0,1,7.475-4.921c6.551-3.394,20.106-1.569,25.6,8.92C298.175,181.208,294.535,191.214,282.3,198.658Z"/><path d="M235.5,159.615c-.318.062-.635.133-.953.215a18.164,18.164,0,0,0-5.68,2.553,15.655,15.655,0,0,0-1.323.985,14.839,14.839,0,0,0-1.292,1.128,18.031,18.031,0,0,0-1.322,1.343c-.082-.216-.164-.441-.257-.667-.02-.051-.03-.1-.051-.154a84.4,84.4,0,0,0-3.937-8.858c-.2-.42-.42-.861-.656-1.3a126.987,126.987,0,0,0-16.015-24.31.824.824,0,0,1-.092-.112A78.168,78.168,0,0,0,187.69,115.22a2.375,2.375,0,0,0-.2-.143,65.754,65.754,0,0,0-31.62-12.529c-.481-.062-.953-.113-1.425-.154-.174-.021-.338-.031-.512-.051a.162.162,0,0,1-.072-.011,57.625,57.625,0,0,0-33.219,6.737,61.882,61.882,0,0,0-7.434,4.757c-12.026,8.93-19.6,20.782-23.858,29.261-.061.113-.113.216-.164.318a119.585,119.585,0,0,0-6.408,14.385c-.1.267-.195.533-.3.8-.113.307-.226.615-.328.912-.134.369-.257.739-.38,1.087s-.225.7-.338,1.015-.205.646-.308.943a.176.176,0,0,0-.02.052c-.133.42-.257.82-.369,1.21-.154.5-.3.994-.421,1.455-.082.267-.153.523-.2.728l-.092.339c-.061.041-.133.072-.215.123-.051-.144-.1-.277-.164-.421a12.468,12.468,0,0,0-1.949-3.158,11.708,11.708,0,0,0-1.23-1.23,10.593,10.593,0,0,0-1.322-.994,13.807,13.807,0,0,0-2.717-1.385,18.544,18.544,0,0,0-7.5-1.322,198.78,198.78,0,0,1,7.566-22.269c5.865-14.272,15.933-33.281,30.656-42.744a90.379,90.379,0,0,1,44.539-14.016c16.722-.9,33.229,6.367,44.169,12.642,15.1,8.653,27.847,22.166,34.1,36.141C229.4,135.4,232.782,147.906,235.5,159.615Z" fill="#a18aba"/><path d="M282.3,198.658c-3,1.815-5.782,2.266-8.263,1.333-5.762-2.184-8.551-10.971-8.582-11.053a1.537,1.537,0,0,0-2.984.708c.041.205,3.415,20.464-3.578,27.805-6.705,7.024-12.365,9.833-16.825,8.336-6.121-2.051-9.032-11.658-10.232-17.276-.215-1-.369-1.866-.482-2.553-.164-.964-.236-1.548-.236-1.579a1.535,1.535,0,0,0-1.343-1.353,1.033,1.033,0,0,0-.184-.011,1.513,1.513,0,0,0-1,.369,1.426,1.426,0,0,0-.451.636c0,.01-.1.287-.3.769a48.388,48.388,0,0,1-6.039,10.632c-5.188,6.736-10.807,9.115-16.7,7.075-6.08-2.1-9.833-4.788-11.135-7.977-1.486-3.629.38-7.361,1.733-10.078.953-1.907,1.641-3.292.8-4.471a2.375,2.375,0,0,0-2.41-.851c-5.454.677-9.2-1.445-10.539-5.946-1.9-6.367,1.7-16.036,10.837-20.527,3.8-1.876,7.443-2.173,10.827-.9a18.315,18.315,0,0,1,7.4,5.7.01.01,0,0,0,.01.01,30.848,30.848,0,0,1,4.214,6.839,1.485,1.485,0,0,0,1.077.892,1.242,1.242,0,0,0,.512.041,1.543,1.543,0,0,0,1.344-1.261A40.4,40.4,0,0,1,223.719,173c.031.2.051.318.051.328a.092.092,0,0,0,.01.051,1.265,1.265,0,0,1,.01-.512c.339-.615.7-1.231,1.087-1.836a1.72,1.72,0,0,0,.113-.184c.338-.5.677-1,1.046-1.476.031-.041.061-.072.092-.113.328-.441.687-.872,1.056-1.282q.6-.676,1.261-1.292.617-.584,1.292-1.107a15.012,15.012,0,0,1,5.567-2.758c.3-.072.595-.144.882-.2.523-.1,1.036-.2,1.528-.256.533-.072,1.056-.113,1.558-.134a16.42,16.42,0,0,1,14.036,6.87c.154.215.246.369.277.41a1.53,1.53,0,0,0,1.2.728,1.547,1.547,0,0,0,1.292-.544,23.394,23.394,0,0,1,1.968-1.968c.41-.379.892-.8,1.425-1.231v-.01a42.472,42.472,0,0,1,7.475-4.921c6.551-3.394,20.106-1.569,25.6,8.92C298.175,181.208,294.535,191.214,282.3,198.658Z" fill="#fff"/><path d="M223.78,173.374a.092.092,0,0,1-.01-.051c0-.01-.02-.123-.051-.328a.562.562,0,0,1,.071-.133A1.265,1.265,0,0,0,223.78,173.374Z" fill="#fff"/><path d="M119.775,204.861c-.943,6.8-4.613,11.955-9.555,13.472-4.358,1.323-7.8,1.292-9.966-.092a5.483,5.483,0,0,1-2.42-3.589,1.538,1.538,0,0,0-1.374-1.343,1.519,1.519,0,0,0-1.609,1.026c-.287.83-7.085,20.126-27.211,17.47-20.424-2.706-29.969-7.966-32.922-18.178-2.871-9.894,4.747-25.048,4.829-25.2a1.53,1.53,0,0,0-.574-2.01,1.5,1.5,0,0,0-.8-.226,1.542,1.542,0,0,0-1.241.636c-.071.1-7.207,9.925-15.358,11.094a10.33,10.33,0,0,1-8.162-2.3c-8.694-6.777-12.477-22.331-3.4-35.639,6.438-9.443,25.581-12.662,32.255-8.879.154.093.308.185.451.277a11.66,11.66,0,0,1,1,.759,13.822,13.822,0,0,1,1.435,1.363c4.768,5.137,7.065,13.729,7.095,13.832a1.538,1.538,0,0,0,2.881.256,12.575,12.575,0,0,1,5.527-5.5,10.868,10.868,0,0,1,1.763-.676,10.269,10.269,0,0,1,1.671-.339,14.993,14.993,0,0,1,7.229,1.067,10.383,10.383,0,0,1,2.747,1.517,8.49,8.49,0,0,1,2.369,2.819c.133.236.256.493.369.749.092.215.184.441.256.666a12.219,12.219,0,0,1,.431,1.508,13.958,13.958,0,0,1,.246,1.609c.041.38.061.759.082,1.138a22.24,22.24,0,0,1-.113,2.994,27.164,27.164,0,0,1-.441,2.9,35.847,35.847,0,0,1-1.589,5.485,1.522,1.522,0,0,0,.441,1.774,1.557,1.557,0,0,0,1.835.092A44.544,44.544,0,0,1,88.7,180.5c.585-.184,1.2-.348,1.815-.5.584-.154,1.189-.287,1.794-.41,5.629-1.118,12.129-.954,17.943,2.8C118.822,187.913,120.739,197.95,119.775,204.861Z" fill="#fff"/></svg>