<svg xmlns="http://www.w3.org/2000/svg" viewBox="0 0 300 300"><path d="M261.75,39.61c-.6.6-1.22,1.22-1.85,1.87q-4.47,4.53-10.29,10.49l10.24,8.65a1.5,1.5,0,0,1-.97,2.65,1.471,1.471,0,0,1-.96-.36l-10.41-8.78-.01.01c-.86.88-1.75,1.79-2.65,2.72q-5.28,5.445-11.43,11.85l9.69,8.17a1.5,1.5,0,0,1-.97,2.65,1.562,1.562,0,0,1-.97-.35l-9.82-8.3-1.99,2.08c-1.35,1.4-2.71,2.84-4.1,4.3q-5.22,5.475-10.92,11.52l10.56,8.91a1.5,1.5,0,0,1-1.94,2.3L212.32,91c-.01-.01-.03-.02-.04-.04q-3.9,4.17-8.03,8.57c-1.8,1.91-3.62,3.87-5.46,5.85-.98,1.06-1.97,2.12-2.97,3.2l10.63,8.98a1.485,1.485,0,0,1,.18,2.11,1.479,1.479,0,0,1-2.11.18l-10.64-8.98a.406.406,0,0,1-.09-.1q-6.39,6.9-13.19,14.3-1.68,1.83-3.38,3.69l10.55,8.9a1.5,1.5,0,0,1-.97,2.65,1.471,1.471,0,0,1-.96-.36l-10.64-8.97c-.08.09-.17.18-.25.27q-2.46,2.7-4.95,5.47c-.83.92-1.66,1.85-2.5,2.79-.91,1.02-1.82,2.05-2.73,3.08-1.14,1.29-2.29,2.6-3.44,3.91l10.32,8.72a1.5,1.5,0,0,1-.96,2.64,1.467,1.467,0,0,1-.97-.35l-10.36-8.75q-2.04,2.34-4.08,4.71c-.14.15-.27.31-.41.47q-3.825,4.425-7.65,8.96c-1.41,1.66-2.82,3.34-4.23,5.02l10.49,8.85a1.5,1.5,0,0,1,.17,2.12,1.489,1.489,0,0,1-2.11.17l-10.48-8.84q-2.025,2.415-4.04,4.85c-.85,1.02-1.7,2.04-2.55,3.07-1.69,2.04-3.38,4.1-5.06,6.15l-1.21,1.48,9.95,8.4a1.485,1.485,0,0,1,.18,2.11,1.479,1.479,0,0,1-2.11.18l-9.92-8.37c-4.81,5.91-9.57,11.82-14.23,17.65l9.98,8.43a1.484,1.484,0,0,1,.18,2.11,1.505,1.505,0,0,1-1.15.53,1.46,1.46,0,0,1-.96-.35l-9.92-8.37q-3.9,4.89-7.69,9.7-2.34,2.97-4.63,5.89c-.1.12-.19.25-.29.37l10.44,8.82a1.5,1.5,0,0,1-.97,2.64,1.486,1.486,0,0,1-.97-.35l-10.35-8.75q-2.895,3.705-5.69,7.3c-.67.87-1.34,1.73-2,2.59-.11.14-.23.29-.33.43q-.885,1.125-1.74,2.25-1.89,2.43-3.72,4.82c-.61.79-1.22,1.58-1.81,2.36.02.02.04.03.06.05l10.64,8.99a1.5,1.5,0,0,1,.18,2.11,1.491,1.491,0,0,1-2.12.18l-10.6-8.94c-.68.88-1.35,1.76-2.01,2.62-.35.45-.69.9-1.03,1.35-.64.84-1.28,1.68-1.91,2.5-.35.46-.69.9-1.03,1.35-.56.74-1.12,1.47-1.67,2.2-.61.8-1.2,1.58-1.79,2.36-.71.93-1.41,1.85-2.09,2.75l10.56,8.92a1.5,1.5,0,1,1-1.93,2.29l-10.44-8.81c-1.78,2.36-3.48,4.62-5.08,6.75q-.72.945-1.41,1.86c-.25.36-.51.7-.77,1.04-.93,1.25-1.83,2.46-2.7,3.61l-.09.12c-.22.3-.44.6-.66.89-.47.63-.93,1.24-1.37,1.84-.31.42-.61.83-.91,1.23-1.71,2.29-3.2,4.31-4.46,6.02-.26.35-.51.68-.74,1l-.45.6c-.23.32-.46.64-.68.93-.12.16-.23.31-.34.46,9.29-2.59,34.16-9.72,74.22-22.61,48.25-15.54,101.36-25.93,108.92-27.38,1.46-5.04,8.84-30.8,15.14-56.63,6.24-25.58,22.6-131.37,26.15-154.53C268.1,33.21,265.31,36.01,261.75,39.61ZM225.93,176.26c-3.77,28.09-6.51,43.18-6.54,43.33a1.488,1.488,0,0,1-1.13,1.19c-.29.07-29.4,6.85-56.61,18.02-27.42,11.25-42.81,15.57-42.96,15.61a1.453,1.453,0,0,1-.41.06,1.5,1.5,0,0,1-1.15-2.46L224.03,122.8a1.506,1.506,0,0,1,2.65.77A228.957,228.957,0,0,1,225.93,176.26Z" fill="#fae33f"/><path d="M147.22,162.9c2.55-3.02,5.11-6.01,7.65-8.96Q151.045,158.365,147.22,162.9Zm78.04-85.64c1.39-1.46,2.76-2.9,4.1-4.3C228.01,74.36,226.65,75.8,225.26,77.26Z" fill="#2c2c2c"/><path d="M272.89,25.69a1.5,1.5,0,0,0-1.73.26c-.39.39-39.61,38.86-98.42,103.28-58.84,64.44-131.38,163.9-132.1,164.9a1.494,1.494,0,0,0,1.21,2.38,1.2,1.2,0,0,0,.38-.05c.27-.06,26.74-7.12,78.52-23.79,51.64-16.63,108.89-27.34,109.46-27.45a1.493,1.493,0,0,0,1.17-1.06c.08-.28,8.42-28.92,15.42-57.64,7.02-28.76,26.7-157.97,26.89-159.27A1.483,1.483,0,0,0,272.89,25.69Zm-29,160.12c-6.3,25.83-13.68,51.59-15.14,56.63-7.56,1.45-60.67,11.84-108.92,27.38-40.06,12.89-64.93,20.02-74.22,22.61.11-.15.22-.3.34-.46.21-.29.44-.6.68-.93l.45-.6c.23-.32.48-.65.74-1,1.26-1.71,2.75-3.73,4.46-6.02.3-.4.6-.81.91-1.23.44-.6.9-1.21,1.37-1.84.22-.29.44-.59.66-.89l.09-.12c.86-1.15,1.76-2.36,2.7-3.61.26-.34.52-.68.77-1.04q.69-.915,1.41-1.86c1.6-2.13,3.3-4.39,5.08-6.75l10.44,8.81a1.478,1.478,0,0,0,.97.36,1.5,1.5,0,0,0,.96-2.65l-10.56-8.92c.68-.9,1.38-1.82,2.09-2.75.58-.78,1.18-1.56,1.79-2.36.55-.73,1.11-1.46,1.67-2.2.34-.45.68-.89,1.03-1.35.63-.82,1.27-1.66,1.91-2.5.34-.45.68-.9,1.03-1.35.66-.86,1.33-1.74,2.01-2.62l10.6,8.94a1.5,1.5,0,1,0,1.94-2.29l-10.64-8.99c-.02-.02-.04-.03-.06-.05.59-.78,1.2-1.57,1.81-2.36q1.83-2.385,3.72-4.82.855-1.125,1.74-2.25c.1-.14.22-.29.33-.43.66-.86,1.33-1.72,2-2.59q2.79-3.6,5.69-7.3l10.35,8.75a1.486,1.486,0,0,0,.97.35,1.5,1.5,0,0,0,.97-2.64l-10.44-8.82c.1-.12.19-.25.29-.37q2.3-2.925,4.63-5.89,3.78-4.8,7.69-9.7l9.92,8.37a1.46,1.46,0,0,0,.96.35,1.505,1.505,0,0,0,1.15-.53,1.484,1.484,0,0,0-.18-2.11l-9.98-8.43c4.66-5.83,9.42-11.74,14.23-17.65l9.92,8.37a1.5,1.5,0,0,0,1.93-2.29l-9.95-8.4,1.21-1.48c1.68-2.05,3.37-4.11,5.06-6.15.85-1.03,1.7-2.05,2.55-3.07q2.01-2.43,4.04-4.85l10.48,8.84a1.5,1.5,0,0,0,1.94-2.29l-10.49-8.85c1.41-1.68,2.82-3.36,4.23-5.02q3.825-4.53,7.65-8.96c.14-.16.27-.32.41-.47q2.04-2.37,4.08-4.71l10.36,8.75a1.467,1.467,0,0,0,.97.35,1.5,1.5,0,0,0,.96-2.64l-10.32-8.72c1.15-1.31,2.3-2.62,3.44-3.91.91-1.03,1.82-2.06,2.73-3.08.84-.94,1.67-1.87,2.5-2.79q2.49-2.775,4.95-5.47c.08-.09.17-.18.25-.27l10.64,8.97a1.471,1.471,0,0,0,.96.36,1.5,1.5,0,0,0,.97-2.65l-10.55-8.9q1.695-1.86,3.38-3.69,6.795-7.395,13.19-14.3a.406.406,0,0,0,.09.1l10.64,8.98a1.5,1.5,0,1,0,1.93-2.29l-10.63-8.98c1-1.08,1.99-2.14,2.97-3.2,1.84-1.98,3.66-3.94,5.46-5.85q4.125-4.41,8.03-8.57c.01.02.03.03.04.04l10.64,8.99a1.5,1.5,0,1,0,1.94-2.3l-10.56-8.91q5.685-6.03,10.92-11.52c1.39-1.46,2.75-2.9,4.1-4.3l1.99-2.08,9.82,8.3a1.562,1.562,0,0,0,.97.35,1.5,1.5,0,0,0,.97-2.65l-9.69-8.17q6.135-6.4,11.43-11.85c.9-.93,1.79-1.84,2.65-2.72l.01-.01,10.41,8.78a1.471,1.471,0,0,0,.96.36,1.5,1.5,0,0,0,.97-2.65l-10.24-8.65q5.8-5.955,10.29-10.49c.63-.65,1.25-1.27,1.85-1.87,3.56-3.6,6.35-6.4,8.29-8.33C266.49,54.44,250.13,160.23,243.89,185.81Z" fill="#2c2c2c"/><path d="M226.68,123.57a1.506,1.506,0,0,0-2.65-.77L117.13,252.01a1.5,1.5,0,0,0,1.15,2.46,1.453,1.453,0,0,0,.41-.06c.15-.04,15.54-4.36,42.96-15.61,27.21-11.17,56.32-17.95,56.61-18.02a1.488,1.488,0,0,0,1.13-1.19c.03-.15,2.77-15.24,6.54-43.33A228.957,228.957,0,0,0,226.68,123.57ZM122.63,250.07,224.06,127.48a230.985,230.985,0,0,1-1.11,48.38c-3.22,24.03-5.68,38.5-6.34,42.23-5.3,1.28-31.46,7.82-56.1,17.93C142.05,243.59,129.11,248,122.63,250.07Z" fill="#2c2c2c"/></svg>