<svg xmlns="http://www.w3.org/2000/svg" viewBox="0 0 300 300"><path d="M107.586,236.825q5.2,25.26,10.42,50.51a355.41,355.41,0,0,1-38-32.88c-20.98,13.57-42.13,27.15-62.26,36.73,12.61-22.5,21.89-46.86,31.73-70.82a359.635,359.635,0,0,1-34.66-52.02c4.58,1.23,25.84,8.73,49.55,18.16,6.93-14.23,14.79-27.92,24.47-40.53q5.745,27.87,11.5,55.74c15.25,6.94,28.33,13.76,34.83,19.1C126.186,225.535,116.966,231,107.586,236.825Z" fill="#fae33f"/><path d="M135.944,218.716C95.578,240.08,59.771,269.281,18.528,289.077l2.443,2.444C47.224,244.362,59.027,189.748,92.06,146.312l-3.264-.427,29.166,141.364,2.624-2.017A371.392,371.392,0,0,1,18.038,166.881l-2.016,2.624c13.033,3.558,25.769,8.922,38.351,13.775,19.9,7.674,39.745,15.7,58.871,25.152,7.654,3.783,15.664,7.691,22.339,13.089,1.771,1.433,4.314-1.079,2.525-2.525-13.584-10.987-31.17-17.789-47.055-24.634q-28.185-12.145-57.1-22.525c-5.6-2.025-11.225-4.206-16.977-5.777a1.807,1.807,0,0,0-2.017,2.624A375.485,375.485,0,0,0,118.783,288.316c1.358,1.017,2.9-.656,2.623-2.017L92.24,144.935c-.346-1.674-2.426-1.529-3.264-.426-33.035,43.438-44.838,98.054-71.089,145.209a1.8,1.8,0,0,0,2.444,2.443c41.243-19.8,77.05-49,117.416-70.36C139.779,220.725,137.976,217.641,135.944,218.716Z" fill="#2c2c2c"/><path d="M263.737,100.267c-13.164.052-26.3.753-39.455,1.094-1.653.043-3.311.076-4.964.1-.587.014-1.175.019-1.767.028-.241.54-.478,1.085-.715,1.625q-3.312,7.518-6.528,15.078c-2.951,6.973-5.821,13.978-8.517,21.056q-7.3-17.829-13.069-36.224c-.18-.564-.355-1.132-.531-1.7l-1.8-.028c-2.5-.038-5-.081-7.494-.114-8.55-.123-17.1-.223-25.651-.237q11.939-9.195,23.974-18.256c1.085-.815,2.165-1.635,3.25-2.449.488-.365.976-.735,1.468-1.1-.156-.592-.308-1.184-.45-1.772q-4.312-17.194-7.257-34.7-2.337-13.9-3.789-27.934a299.863,299.863,0,0,1,38.805,31.78q3.013,2.9,5.978,5.846c.417.412.834.824,1.251,1.241q.717-.519,1.435-1.037,4.4-3.162,8.83-6.3c6.7-4.737,13.438-9.474,20.411-13.813-4.49,11.809-9.412,23.443-14.49,35.016q-.391.9-.8,1.805c.407.416.81.829,1.213,1.245q5.166,5.294,10.388,10.531C250.066,87.629,256.8,94.061,263.737,100.267Z" fill="#fae33f"/><path d="M247.1,29.893c-14.178,37.653-32.823,73.45-47,111.1h3.444a456.4,456.4,0,0,1-32.34-128.05l-2.688,1.542c36.4,24.525,63.6,58.885,96.167,87.814l1.263-3.049c-17.973-.019-35.91,1.229-53.881,1.275-20.428.052-40.853-.581-61.281-.6l.9,3.328c24.73-19.087,49.677-37.957,75.18-56,7.488-5.3,15.018-10.583,22.86-15.35,1.961-1.193.168-4.283-1.8-3.084-15.4,9.364-29.929,20.283-44.438,30.953q-22.254,16.363-44.177,33.17-4.719,3.6-9.425,7.227c-1.31,1.011-1.036,3.327.9,3.328,20.428.016,40.853.649,61.281.6,17.971-.046,35.908-1.293,53.881-1.274a1.8,1.8,0,0,0,1.263-3.049c-32.8-29.139-60.23-63.669-96.89-88.372a1.8,1.8,0,0,0-2.687,1.542,459.523,459.523,0,0,0,32.468,129,1.8,1.8,0,0,0,3.444,0c14.178-37.652,32.823-73.45,47-111.1C251.358,28.689,247.906,27.758,247.1,29.893Z" fill="#2c2c2c"/></svg>