<svg xmlns="http://www.w3.org/2000/svg"  viewBox="0 0 300 300"><path d="M265.441,116.265l-.043-.017h0Z" fill="#2c2c2c" stroke="#2c2c2c" stroke-miterlimit="10" stroke-width="1.076"/><path d="M124.15,160.71a18.123,18.123,0,0,1-.39-3.36,3,3,0,0,0,.3.23A19.8,19.8,0,0,0,124.15,160.71Z" fill="#fae33f"/><path d="M128.09,150.04a5.339,5.339,0,0,0-2.77,2.74,10.654,10.654,0,0,1,1.29-2.81A4.7,4.7,0,0,1,128.09,150.04Z" fill="#fae33f"/><path d="M130.9,165.88c-.85.74-3.14-3.14-3.4-3.89a12.616,12.616,0,0,1-.43-2.92,5.933,5.933,0,0,1,3.31,2.67C130.55,162.08,131.32,165.5,130.9,165.88Z" fill="#fae33f"/><path d="M131.63,157.54a2.446,2.446,0,0,0-.34-.31,6.658,6.658,0,0,0-2.37-1.06,8.208,8.208,0,0,1-1.68-.17c.29-1.5.95-2.62,2.27-2.41.58.1,1.16,1.22,1.66,2.58C131.33,156.61,131.48,157.08,131.63,157.54Z" fill="#fae33f"/><path d="M137.84,151.81a41.649,41.649,0,0,0-6.53-15.3c-2.65-3.6-5.55-5.58-8-5.58a4.078,4.078,0,0,0-.93.1c-2.5.56-4.5,3.45-5.52,7.93a41.006,41.006,0,0,0,.51,17.49c3.13,13.81,10.53,21.89,15.46,20.78S140.96,165.63,137.84,151.81Zm-2.55,16.54c-2.48,4.85-8.51,2.97-11.27-.47-3.7-4.61-4.04-12.2-2.56-17.71,1.38-5.17,5.77-9.06,10.18-4a1.5,1.5,0,0,1,.1,1.91c1.25,1.71,1.9,4.4,2.27,6.94v.01C135.98,159.28,136.93,165.13,135.29,168.35Zm2.55-16.54a41.649,41.649,0,0,0-6.53-15.3c-2.65-3.6-5.55-5.58-8-5.58a4.078,4.078,0,0,0-.93.1c-2.5.56-4.5,3.45-5.52,7.93a41.006,41.006,0,0,0,.51,17.49c3.13,13.81,10.53,21.89,15.46,20.78S140.96,165.63,137.84,151.81Zm-2.55,16.54c-2.48,4.85-8.51,2.97-11.27-.47-3.7-4.61-4.04-12.2-2.56-17.71,1.38-5.17,5.77-9.06,10.18-4a1.5,1.5,0,0,1,.1,1.91c1.25,1.71,1.9,4.4,2.27,6.94v.01C135.98,159.28,136.93,165.13,135.29,168.35Zm2.55-16.54a41.649,41.649,0,0,0-6.53-15.3c-2.65-3.6-5.55-5.58-8-5.58a4.078,4.078,0,0,0-.93.1c-2.5.56-4.5,3.45-5.52,7.93a41.006,41.006,0,0,0,.51,17.49c3.13,13.81,10.53,21.89,15.46,20.78S140.96,165.63,137.84,151.81Zm-2.55,16.54c-2.48,4.85-8.51,2.97-11.27-.47-3.7-4.61-4.04-12.2-2.56-17.71,1.38-5.17,5.77-9.06,10.18-4a1.5,1.5,0,0,1,.1,1.91c1.25,1.71,1.9,4.4,2.27,6.94v.01C135.98,159.28,136.93,165.13,135.29,168.35Zm42.75-19.89a5.933,5.933,0,0,0-3.31-2.67,12.616,12.616,0,0,0,.43,2.92c.26.75,2.55,4.63,3.4,3.88C178.98,152.22,178.21,148.8,178.04,148.46Zm.79-5.57c-.5-1.36-1.08-2.49-1.66-2.59-1.32-.21-1.98.92-2.27,2.42a8.208,8.208,0,0,0,1.68.17,6.658,6.658,0,0,1,2.37,1.06,1.547,1.547,0,0,1,.33.3C179.14,143.79,178.99,143.33,178.83,142.89Zm0,0c-.5-1.36-1.08-2.49-1.66-2.59-1.32-.21-1.98.92-2.27,2.42a8.208,8.208,0,0,0,1.68.17,6.658,6.658,0,0,1,2.37,1.06,1.547,1.547,0,0,1,.33.3C179.14,143.79,178.99,143.33,178.83,142.89Zm-.79,5.57a5.933,5.933,0,0,0-3.31-2.67,12.616,12.616,0,0,0,.43,2.92c.26.75,2.55,4.63,3.4,3.88C178.98,152.22,178.21,148.8,178.04,148.46Zm-40.2,3.35a41.649,41.649,0,0,0-6.53-15.3c-2.65-3.6-5.55-5.58-8-5.58a4.078,4.078,0,0,0-.93.1c-2.5.56-4.5,3.45-5.52,7.93a41.006,41.006,0,0,0,.51,17.49c3.13,13.81,10.53,21.89,15.46,20.78S140.96,165.63,137.84,151.81Zm-2.55,16.54c-2.48,4.85-8.51,2.97-11.27-.47-3.7-4.61-4.04-12.2-2.56-17.71,1.38-5.17,5.77-9.06,10.18-4a1.5,1.5,0,0,1,.1,1.91c1.25,1.71,1.9,4.4,2.27,6.94v.01C135.98,159.28,136.93,165.13,135.29,168.35Zm2.55-16.54a41.649,41.649,0,0,0-6.53-15.3c-2.65-3.6-5.55-5.58-8-5.58a4.078,4.078,0,0,0-.93.1c-2.5.56-4.5,3.45-5.52,7.93a41.006,41.006,0,0,0,.51,17.49c3.13,13.81,10.53,21.89,15.46,20.78S140.96,165.63,137.84,151.81Zm-2.55,16.54c-2.48,4.85-8.51,2.97-11.27-.47-3.7-4.61-4.04-12.2-2.56-17.71,1.38-5.17,5.77-9.06,10.18-4a1.5,1.5,0,0,1,.1,1.91c1.25,1.71,1.9,4.4,2.27,6.94v.01C135.98,159.28,136.93,165.13,135.29,168.35Zm36.43-24.05a2.1,2.1,0,0,1-.3-.24,17.938,17.938,0,0,0,.4,3.42A19.328,19.328,0,0,1,171.72,144.3Zm2.55-7.61a10.471,10.471,0,0,0-1.29,2.8,5.4,5.4,0,0,1,2.76-2.74A4.994,4.994,0,0,0,174.27,136.69Zm3.77,11.77a5.933,5.933,0,0,0-3.31-2.67,12.616,12.616,0,0,0,.43,2.92c.26.75,2.55,4.63,3.4,3.88C178.98,152.22,178.21,148.8,178.04,148.46Zm.79-5.57c-.5-1.36-1.08-2.49-1.66-2.59-1.32-.21-1.98.92-2.27,2.42a8.208,8.208,0,0,0,1.68.17,6.658,6.658,0,0,1,2.37,1.06,1.547,1.547,0,0,1,.33.3C179.14,143.79,178.99,143.33,178.83,142.89Zm-40.99,8.92a41.649,41.649,0,0,0-6.53-15.3c-2.65-3.6-5.55-5.58-8-5.58a4.078,4.078,0,0,0-.93.1c-2.5.56-4.5,3.45-5.52,7.93a41.006,41.006,0,0,0,.51,17.49c3.13,13.81,10.53,21.89,15.46,20.78S140.96,165.63,137.84,151.81Zm-2.55,16.54c-2.48,4.85-8.51,2.97-11.27-.47-3.7-4.61-4.04-12.2-2.56-17.71,1.38-5.17,5.77-9.06,10.18-4a1.5,1.5,0,0,1,.1,1.91c1.25,1.71,1.9,4.4,2.27,6.94v.01C135.98,159.28,136.93,165.13,135.29,168.35Zm43.54-25.46c-.5-1.36-1.08-2.49-1.66-2.59-1.32-.21-1.98.92-2.27,2.42a8.208,8.208,0,0,0,1.68.17,6.658,6.658,0,0,1,2.37,1.06,1.547,1.547,0,0,1,.33.3C179.14,143.79,178.99,143.33,178.83,142.89Zm-4.1,2.9a12.616,12.616,0,0,0,.43,2.92c.26.75,2.55,4.63,3.4,3.88.42-.37-.35-3.79-.52-4.13A5.933,5.933,0,0,0,174.73,145.79Zm-.46-9.1a10.471,10.471,0,0,0-1.29,2.8,5.4,5.4,0,0,1,2.76-2.74A4.994,4.994,0,0,0,174.27,136.69Zm-2.55,7.61a2.1,2.1,0,0,1-.3-.24,17.938,17.938,0,0,0,.4,3.42A19.328,19.328,0,0,1,171.72,144.3Zm45.21,49.78,31.22.32L230.7,146.95a1.527,1.527,0,0,1,.39-1.62l31.52-29.18L217.45,94.39a1.506,1.506,0,0,1-.81-1.69l10.65-46.06L177.8,64.21a1.49,1.49,0,0,1-1.22-.11,1.449,1.449,0,0,1-.74-.98L164.27,10.79l-32,44.6a1.5,1.5,0,0,1-1.04.62,1.512,1.512,0,0,1-1.15-.35L96.93,27.29,94.2,78.06a1.5,1.5,0,0,1-1.89,1.36L57.56,70.01,71.6,107.95a1.491,1.491,0,0,1-.1,1.27,1.519,1.519,0,0,1-1.03.73l-41.21,7.51,42.4,51.95a1.516,1.516,0,0,1,.05,1.83L48.68,203.07l38.64,9.98a1.5,1.5,0,0,1,1.12,1.53l-2.55,49.45,43.71-28.77a1.551,1.551,0,0,1,.83-.25,1.682,1.682,0,0,1,.44.07,1.485,1.485,0,0,1,.94.86l22.32,53.58,14.44-57.53a1.5,1.5,0,0,1,2.37-.82l47.74,37.05-3.26-72.57a1.46,1.46,0,0,1,.42-1.11A1.369,1.369,0,0,1,216.93,194.08Zm-83.44-13.92a7.291,7.291,0,0,1-1.61.18c-6.95,0-14.37-9.69-17.44-23.23-1.53-6.78-1.71-13.46-.5-18.81,1.29-5.73,4.05-9.36,7.77-10.2,7.38-1.66,15.75,8.46,19.05,23.05a50.858,50.858,0,0,1,1.3,11.12C142.06,171.76,138.9,178.94,133.49,180.16Zm54.69-23.25c-1.29,5.73-4.05,9.35-7.77,10.19a6.821,6.821,0,0,1-1.62.18c-6.95,0-14.37-9.69-17.43-23.22-3.3-14.6-.11-27.34,7.27-29.01s15.75,8.46,19.05,23.05C189.21,144.87,189.39,151.55,188.18,156.91Zm-17.95-39.04a4.169,4.169,0,0,0-.94.11c-4.94,1.12-8.13,11.6-5.01,25.41s10.52,21.91,15.47,20.79c2.49-.57,4.5-3.46,5.51-7.93a41.006,41.006,0,0,0-.51-17.49C181.82,125.79,175.13,117.87,170.23,117.87Zm12.72,37.2c-2.48,4.84-8.51,2.97-11.27-.47-3.71-4.61-4.04-12.2-2.56-17.71,1.38-5.17,5.77-9.06,10.18-4a1.487,1.487,0,0,1,.09,1.9c1.25,1.71,1.91,4.4,2.27,6.94C183.64,145.98,184.6,151.85,182.95,155.07Zm-5.78-14.77c-1.32-.21-1.98.92-2.27,2.42a8.208,8.208,0,0,0,1.68.17,6.658,6.658,0,0,1,2.37,1.06,1.547,1.547,0,0,1,.33.3c-.14-.46-.29-.92-.45-1.36C178.33,141.53,177.75,140.4,177.17,140.3Zm-2.44,5.49a12.616,12.616,0,0,0,.43,2.92c.26.75,2.55,4.63,3.4,3.88.42-.37-.35-3.79-.52-4.13A5.933,5.933,0,0,0,174.73,145.79Zm-.46-9.1a10.471,10.471,0,0,0-1.29,2.8,5.4,5.4,0,0,1,2.76-2.74A4.994,4.994,0,0,0,174.27,136.69Zm-2.55,7.61a2.1,2.1,0,0,1-.3-.24,17.938,17.938,0,0,0,.4,3.42A19.328,19.328,0,0,1,171.72,144.3Zm-40.41-7.79c-2.65-3.6-5.55-5.58-8-5.58a4.078,4.078,0,0,0-.93.1c-2.5.56-4.5,3.45-5.52,7.93a41.006,41.006,0,0,0,.51,17.49c3.13,13.81,10.53,21.89,15.46,20.78s8.13-11.6,5.01-25.42A41.649,41.649,0,0,0,131.31,136.51Zm3.98,31.84c-2.48,4.85-8.51,2.97-11.27-.47-3.7-4.61-4.04-12.2-2.56-17.71,1.38-5.17,5.77-9.06,10.18-4a1.5,1.5,0,0,1,.1,1.91c1.25,1.71,1.9,4.4,2.27,6.94v.01C135.98,159.28,136.93,165.13,135.29,168.35Zm2.55-16.54a41.649,41.649,0,0,0-6.53-15.3c-2.65-3.6-5.55-5.58-8-5.58a4.078,4.078,0,0,0-.93.1c-2.5.56-4.5,3.45-5.52,7.93a41.006,41.006,0,0,0,.51,17.49c3.13,13.81,10.53,21.89,15.46,20.78S140.96,165.63,137.84,151.81Zm-2.55,16.54c-2.48,4.85-8.51,2.97-11.27-.47-3.7-4.61-4.04-12.2-2.56-17.71,1.38-5.17,5.77-9.06,10.18-4a1.5,1.5,0,0,1,.1,1.91c1.25,1.71,1.9,4.4,2.27,6.94v.01C135.98,159.28,136.93,165.13,135.29,168.35Zm36.43-24.05a2.1,2.1,0,0,1-.3-.24,17.938,17.938,0,0,0,.4,3.42A19.328,19.328,0,0,1,171.72,144.3Zm2.55-7.61a10.471,10.471,0,0,0-1.29,2.8,5.4,5.4,0,0,1,2.76-2.74A4.994,4.994,0,0,0,174.27,136.69Zm3.77,11.77a5.933,5.933,0,0,0-3.31-2.67,12.616,12.616,0,0,0,.43,2.92c.26.75,2.55,4.63,3.4,3.88C178.98,152.22,178.21,148.8,178.04,148.46Zm.79-5.57c-.5-1.36-1.08-2.49-1.66-2.59-1.32-.21-1.98.92-2.27,2.42a8.208,8.208,0,0,0,1.68.17,6.658,6.658,0,0,1,2.37,1.06,1.547,1.547,0,0,1,.33.3C179.14,143.79,178.99,143.33,178.83,142.89Zm0,0c-.5-1.36-1.08-2.49-1.66-2.59-1.32-.21-1.98.92-2.27,2.42a8.208,8.208,0,0,0,1.68.17,6.658,6.658,0,0,1,2.37,1.06,1.547,1.547,0,0,1,.33.3C179.14,143.79,178.99,143.33,178.83,142.89Zm-.79,5.57a5.933,5.933,0,0,0-3.31-2.67,12.616,12.616,0,0,0,.43,2.92c.26.75,2.55,4.63,3.4,3.88C178.98,152.22,178.21,148.8,178.04,148.46Zm-3.77-11.77a10.471,10.471,0,0,0-1.29,2.8,5.4,5.4,0,0,1,2.76-2.74A4.994,4.994,0,0,0,174.27,136.69Zm-2.55,7.61a2.1,2.1,0,0,1-.3-.24,17.938,17.938,0,0,0,.4,3.42A19.328,19.328,0,0,1,171.72,144.3Zm-33.88,7.51a41.649,41.649,0,0,0-6.53-15.3c-2.65-3.6-5.55-5.58-8-5.58a4.078,4.078,0,0,0-.93.1c-2.5.56-4.5,3.45-5.52,7.93a41.006,41.006,0,0,0,.51,17.49c3.13,13.81,10.53,21.89,15.46,20.78S140.96,165.63,137.84,151.81Zm-2.55,16.54c-2.48,4.85-8.51,2.97-11.27-.47-3.7-4.61-4.04-12.2-2.56-17.71,1.38-5.17,5.77-9.06,10.18-4a1.5,1.5,0,0,1,.1,1.91c1.25,1.71,1.9,4.4,2.27,6.94v.01C135.98,159.28,136.93,165.13,135.29,168.35Zm2.55-16.54a41.649,41.649,0,0,0-6.53-15.3c-2.65-3.6-5.55-5.58-8-5.58a4.078,4.078,0,0,0-.93.1c-2.5.56-4.5,3.45-5.52,7.93a41.006,41.006,0,0,0,.51,17.49c3.13,13.81,10.53,21.89,15.46,20.78S140.96,165.63,137.84,151.81Zm-2.55,16.54c-2.48,4.85-8.51,2.97-11.27-.47-3.7-4.61-4.04-12.2-2.56-17.71,1.38-5.17,5.77-9.06,10.18-4a1.5,1.5,0,0,1,.1,1.91c1.25,1.71,1.9,4.4,2.27,6.94v.01C135.98,159.28,136.93,165.13,135.29,168.35Zm2.55-16.54a41.649,41.649,0,0,0-6.53-15.3c-2.65-3.6-5.55-5.58-8-5.58a4.078,4.078,0,0,0-.93.1c-2.5.56-4.5,3.45-5.52,7.93a41.006,41.006,0,0,0,.51,17.49c3.13,13.81,10.53,21.89,15.46,20.78S140.96,165.63,137.84,151.81Zm-2.55,16.54c-2.48,4.85-8.51,2.97-11.27-.47-3.7-4.61-4.04-12.2-2.56-17.71,1.38-5.17,5.77-9.06,10.18-4a1.5,1.5,0,0,1,.1,1.91c1.25,1.71,1.9,4.4,2.27,6.94v.01C135.98,159.28,136.93,165.13,135.29,168.35Z" fill="#fae33f"/><path d="M266.72,115.53a1.493,1.493,0,0,0-.83-1.13L219.83,92.21l11-47.56a1.512,1.512,0,0,0-1.97-1.76L178.4,60.81,166.47,6.86a1.5,1.5,0,0,0-1.16-1.14,1.486,1.486,0,0,0-1.52.59l-33,46L96.57,23.03a1.5,1.5,0,0,0-2.47,1.06L91.3,76.04,55.54,66.36a1.495,1.495,0,0,0-1.8,1.96l14.43,39-41.95,7.65a1.5,1.5,0,0,0-.89,2.42L68.6,170.42,44.96,203.09a1.492,1.492,0,0,0,.84,2.33l39.58,10.23-2.64,51.19a1.5,1.5,0,0,0,2.32,1.33l44.68-29.41,23.36,56.09a1.516,1.516,0,0,0,1.39.92h.11a1.493,1.493,0,0,0,1.34-1.13l14.98-59.69,48.49,37.63a1.5,1.5,0,0,0,1.61.15,1.517,1.517,0,0,0,.81-1.4l-3.34-74.23,31.8.33a1.422,1.422,0,0,0,1.24-.64,1.481,1.481,0,0,0,.19-1.38l-17.85-48.56,32.39-29.99A1.507,1.507,0,0,0,266.72,115.53Zm-35.63,29.8a1.527,1.527,0,0,0-.39,1.62l17.45,47.45-31.22-.32a1.369,1.369,0,0,0-1.09.46,1.46,1.46,0,0,0-.42,1.11l3.26,72.57-47.74-37.05a1.5,1.5,0,0,0-2.37.82l-14.44,57.53-22.32-53.58a1.485,1.485,0,0,0-.94-.86,1.682,1.682,0,0,0-.44-.07,1.551,1.551,0,0,0-.83.25L85.89,264.03l2.55-49.45a1.5,1.5,0,0,0-1.12-1.53l-38.64-9.98,23.03-31.83a1.516,1.516,0,0,0-.05-1.83l-42.4-51.95,41.21-7.51a1.519,1.519,0,0,0,1.03-.73,1.491,1.491,0,0,0,.1-1.27L57.56,70.01l34.75,9.41a1.5,1.5,0,0,0,1.89-1.36l2.73-50.77,33.15,28.37a1.512,1.512,0,0,0,1.15.35,1.5,1.5,0,0,0,1.04-.62l32-44.6,11.57,52.33a1.449,1.449,0,0,0,.74.98,1.49,1.49,0,0,0,1.22.11l49.49-17.57L216.64,92.7a1.506,1.506,0,0,0,.81,1.69l45.16,21.76Z" fill="#2c2c2c"/><path d="M203.987,179.345a12.738,12.738,0,0,1-10.542-5.423h0c-2.186-3.35-1.966-7.285.6-10.8a22.055,22.055,0,0,0,2-3.4c1.157-2.31,2.156-4.3,6.473-4.944,5.859-.866,11.943,2.888,13.55,8.374a12.728,12.728,0,0,1-8.2,15.551A11.863,11.863,0,0,1,203.987,179.345Zm-8.03-7.062a9.837,9.837,0,0,0,10.928,3.591,9.732,9.732,0,0,0,6.3-11.872c-1.182-4.035-5.867-6.9-10.232-6.25-2.772.411-3.169,1.2-4.229,3.319a25.094,25.094,0,0,1-2.258,3.825c-2.329,3.184-1.565,5.774-.513,7.387Z" fill="#2c2c2c"/><path d="M113.742,203.078a12.7,12.7,0,0,1-3.965-24.738h0c3.831-1.154,7.546.163,10.193,3.617a22.078,22.078,0,0,0,2.7,2.871c1.891,1.76,3.523,3.279,2.923,7.6C124.774,198.3,119.46,203.078,113.742,203.078Zm-3.1-21.866a9.836,9.836,0,0,0-6.521,9.476,9.731,9.731,0,0,0,9.618,9.39c4.2,0,8.27-3.691,8.877-8.061.386-2.777-.263-3.38-2-4.993a25.055,25.055,0,0,1-3.034-3.242c-2.4-3.132-5.1-3.125-6.944-2.57Z" fill="#2c2c2c"/><path d="M178.56,152.59c-.85.75-3.14-3.13-3.4-3.88a12.616,12.616,0,0,1-.43-2.92,5.933,5.933,0,0,1,3.31,2.67C178.21,148.8,178.98,152.22,178.56,152.59Z" fill="#fff"/><path d="M179.28,144.25a1.547,1.547,0,0,0-.33-.3,6.658,6.658,0,0,0-2.37-1.06,8.208,8.208,0,0,1-1.68-.17c.29-1.5.95-2.63,2.27-2.42.58.1,1.16,1.23,1.66,2.59C178.99,143.33,179.14,143.79,179.28,144.25Z" fill="#fff"/><path d="M171.72,144.3a2.1,2.1,0,0,1-.3-.24,17.938,17.938,0,0,0,.4,3.42A19.328,19.328,0,0,1,171.72,144.3Zm2.55-7.61a10.471,10.471,0,0,0-1.29,2.8,5.4,5.4,0,0,1,2.76-2.74A4.994,4.994,0,0,0,174.27,136.69Zm0,0a10.471,10.471,0,0,0-1.29,2.8,5.4,5.4,0,0,1,2.76-2.74A4.994,4.994,0,0,0,174.27,136.69Zm-2.55,7.61a2.1,2.1,0,0,1-.3-.24,17.938,17.938,0,0,0,.4,3.42A19.328,19.328,0,0,1,171.72,144.3Zm13.03-5.54c-2.93-12.97-9.62-20.89-14.52-20.89a4.169,4.169,0,0,0-.94.11c-4.94,1.12-8.13,11.6-5.01,25.41s10.52,21.91,15.47,20.79c2.49-.57,4.5-3.46,5.51-7.93A41.006,41.006,0,0,0,184.75,138.76Zm-1.8,16.31c-2.48,4.84-8.51,2.97-11.27-.47-3.71-4.61-4.04-12.2-2.56-17.71,1.38-5.17,5.77-9.06,10.18-4a1.487,1.487,0,0,1,.09,1.9c1.25,1.71,1.91,4.4,2.27,6.94C183.64,145.98,184.6,151.85,182.95,155.07Zm-8.68-18.38a10.471,10.471,0,0,0-1.29,2.8,5.4,5.4,0,0,1,2.76-2.74A4.994,4.994,0,0,0,174.27,136.69Zm-2.55,7.61a2.1,2.1,0,0,1-.3-.24,17.938,17.938,0,0,0,.4,3.42A19.328,19.328,0,0,1,171.72,144.3Z" fill="#fff"/><path d="M187.68,138.1c-3.3-14.59-11.67-24.72-19.05-23.05s-10.57,14.41-7.27,29.01c3.06,13.53,10.48,23.22,17.43,23.22a6.821,6.821,0,0,0,1.62-.18c3.72-.84,6.48-4.46,7.77-10.19C189.39,151.55,189.21,144.87,187.68,138.1Zm-23.4,5.29c-3.12-13.81.07-24.29,5.01-25.41a4.169,4.169,0,0,1,.94-.11c4.9,0,11.59,7.92,14.52,20.89a41.006,41.006,0,0,1,.51,17.49c-1.01,4.47-3.02,7.36-5.51,7.93C174.8,165.3,167.41,157.21,164.28,143.39Z" fill="#2c2c2c"/><path d="M124.15,160.71a18.123,18.123,0,0,1-.39-3.36,3,3,0,0,0,.3.23A19.8,19.8,0,0,0,124.15,160.71Z" fill="#fff"/><path d="M128.09,150.04a5.339,5.339,0,0,0-2.77,2.74,10.654,10.654,0,0,1,1.29-2.81A4.7,4.7,0,0,1,128.09,150.04Z" fill="#fff"/><path d="M130.9,165.88c-.85.74-3.14-3.14-3.4-3.89a12.616,12.616,0,0,1-.43-2.92,5.933,5.933,0,0,1,3.31,2.67C130.55,162.08,131.32,165.5,130.9,165.88Z" fill="#fff"/><path d="M131.63,157.54a2.446,2.446,0,0,0-.34-.31,6.658,6.658,0,0,0-2.37-1.06,8.208,8.208,0,0,1-1.68-.17c.29-1.5.95-2.62,2.27-2.41.58.1,1.16,1.22,1.66,2.58C131.33,156.61,131.48,157.08,131.63,157.54Z" fill="#fff"/><path d="M137.84,151.81a41.649,41.649,0,0,0-6.53-15.3c-2.65-3.6-5.55-5.58-8-5.58a4.078,4.078,0,0,0-.93.1c-2.5.56-4.5,3.45-5.52,7.93a41.006,41.006,0,0,0,.51,17.49c3.13,13.81,10.53,21.89,15.46,20.78S140.96,165.63,137.84,151.81Zm-2.55,16.54c-2.48,4.85-8.51,2.97-11.27-.47-3.7-4.61-4.04-12.2-2.56-17.71,1.38-5.17,5.77-9.06,10.18-4a1.5,1.5,0,0,1,.1,1.91c1.25,1.71,1.9,4.4,2.27,6.94v.01C135.98,159.28,136.93,165.13,135.29,168.35Z" fill="#fff"/><path d="M140.76,151.15c-3.3-14.59-11.67-24.71-19.05-23.05-3.72.84-6.48,4.47-7.77,10.2-1.21,5.35-1.03,12.03.5,18.81,3.07,13.54,10.49,23.23,17.44,23.23a7.291,7.291,0,0,0,1.61-.18c5.41-1.22,8.57-8.4,8.57-17.89A50.858,50.858,0,0,0,140.76,151.15Zm-23.39,5.3a41.006,41.006,0,0,1-.51-17.49c1.02-4.48,3.02-7.37,5.52-7.93a4.078,4.078,0,0,1,.93-.1c2.45,0,5.35,1.98,8,5.58a41.649,41.649,0,0,1,6.53,15.3c3.12,13.82-.07,24.3-5.01,25.42S120.5,170.26,117.37,156.45Z" fill="#2c2c2c"/><path d="M155.628,181.76a17.32,17.32,0,0,1-6.124-1.231,1.5,1.5,0,1,1,1.062-2.806c9.888,3.742,13.129-4.079,13.262-4.414a1.5,1.5,0,0,1,2.795,1.089C166.589,174.488,163.66,181.76,155.628,181.76Z" fill="#2c2c2c"/><path d="M157.784,114.482a1.5,1.5,0,0,1-1.4-2.038c.042-.11,4.4-10.941,17.119-6.132a1.5,1.5,0,1,1-1.063,2.806c-9.885-3.743-13.129,4.081-13.261,4.415A1.506,1.506,0,0,1,157.784,114.482Z" fill="#2c2c2c"/><path d="M109.736,125.641a1.5,1.5,0,0,1-1.4-2.038c.041-.11,4.4-10.941,17.119-6.131a1.5,1.5,0,1,1-1.062,2.806c-9.886-3.742-13.129,4.079-13.262,4.414A1.506,1.506,0,0,1,109.736,125.641Z" fill="#2c2c2c"/><path d="M181.66,141.73c-.36-2.54-1.02-5.23-2.27-6.94a1.487,1.487,0,0,0-.09-1.9c-4.41-5.06-8.8-1.17-10.18,4-1.48,5.51-1.15,13.1,2.56,17.71,2.76,3.44,8.79,5.31,11.27.47C184.6,151.85,183.64,145.98,181.66,141.73Zm-10.24,2.33a2.1,2.1,0,0,0,.3.24,19.328,19.328,0,0,0,.1,3.18A17.938,17.938,0,0,1,171.42,144.06Zm1.56-4.57a10.471,10.471,0,0,1,1.29-2.8,4.994,4.994,0,0,1,1.47.06A5.4,5.4,0,0,0,172.98,139.49Zm5.58,13.1c-.85.75-3.14-3.13-3.4-3.88a12.616,12.616,0,0,1-.43-2.92,5.933,5.933,0,0,1,3.31,2.67C178.21,148.8,178.98,152.22,178.56,152.59Zm.39-8.64a6.658,6.658,0,0,0-2.37-1.06,8.208,8.208,0,0,1-1.68-.17c.29-1.5.95-2.63,2.27-2.42.58.1,1.16,1.23,1.66,2.59.16.44.31.9.45,1.36A1.547,1.547,0,0,0,178.95,143.95Z" fill="#2c2c2c"/><path d="M179.28,144.25a1.547,1.547,0,0,0-.33-.3c-.03-.35-.07-.71-.12-1.06C178.99,143.33,179.14,143.79,179.28,144.25Z" fill="#2c2c2c"/><path d="M134.01,155.03v-.01c-.37-2.54-1.02-5.23-2.27-6.94a1.5,1.5,0,0,0-.1-1.91c-4.41-5.06-8.8-1.17-10.18,4-1.48,5.51-1.14,13.1,2.56,17.71,2.76,3.44,8.79,5.32,11.27.47C136.93,165.13,135.98,159.28,134.01,155.03Zm-3.11,10.85c-.85.74-3.14-3.14-3.4-3.89a12.616,12.616,0,0,1-.43-2.92,5.933,5.933,0,0,1,3.31,2.67C130.55,162.08,131.32,165.5,130.9,165.88Zm-1.39-12.29c.58.1,1.16,1.22,1.66,2.58.16.44.31.91.46,1.37a2.446,2.446,0,0,0-.34-.31,6.658,6.658,0,0,0-2.37-1.06,8.208,8.208,0,0,1-1.68-.17C127.53,154.5,128.19,153.38,129.51,153.59Zm-2.9-3.62a4.7,4.7,0,0,1,1.48.07,5.339,5.339,0,0,0-2.77,2.74A10.654,10.654,0,0,1,126.61,149.97Zm-2.85,7.38a3,3,0,0,0,.3.23,19.8,19.8,0,0,0,.09,3.13A18.123,18.123,0,0,1,123.76,157.35Z" fill="#2c2c2c"/><path d="M131.63,157.54a2.446,2.446,0,0,0-.34-.31c-.03-.35-.07-.71-.12-1.06C131.33,156.61,131.48,157.08,131.63,157.54Z" fill="#2c2c2c"/></svg>